<?xml version="1.0" encoding="UTF-8"?>
<svg width="90px" height="91px" viewBox="0 0 90 91" version="1.1" xmlns="http://www.w3.org/2000/svg" xmlns:xlink="http://www.w3.org/1999/xlink">
    <!-- Generator: Sketch 60 (88103) - https://sketch.com -->
    <title>brut-works-logo</title>
    <desc>Created with Sketch.</desc>
    <defs>
        <polygon id="path-1" points="0.0003 0.0001 90.009 0.0001 90.009 90.3379 0.0003 90.3379"></polygon>
    </defs>
    <g id="Page-1" stroke="none" stroke-width="1" fill="none" fill-rule="evenodd">
        <g id="Desktop-HD" transform="translate(-657.000000, -343.000000)">
            <g id="brut-works-logo" transform="translate(657.000000, 343.000000)">
                <mask id="mask-2" fill="white">
                    <use xlink:href="#path-1"></use>
                </mask>
                <g id="Clip-2"></g>
                <path d="M63.9993,63.9451 L8.0103,63.9451 L8.0103,48.4511 L63.9993,48.4511 C68.2773,48.4511 71.7463,51.9201 71.7463,56.1981 C71.7463,60.4771 68.2773,63.9451 63.9993,63.9451 L63.9993,63.9451 Z M8.0103,26.1291 L63.9993,26.1291 C68.2773,26.1291 71.7463,29.5981 71.7463,33.8761 C71.7463,38.1551 68.2773,41.6231 63.9993,41.6231 L8.0103,41.6231 L8.0103,26.1291 Z M67.8183,45.9561 C67.8183,45.9561 65.6523,46.2191 65.6523,45.1691 C65.6523,44.1181 67.8183,44.3811 67.8183,44.3811 C80.0733,44.3811 90.0093,34.4451 90.0093,22.1901 C90.0093,9.9351 80.0733,0.0001 67.8183,0.0001 L0.0003,0.0001 L0.0003,90.3381 L67.8183,90.3381 C80.0733,90.3381 90.0093,80.4031 90.0093,68.1471 C90.0093,55.8911 80.0733,45.9561 67.8183,45.9561 L67.8183,45.9561 Z" id="Fill-1" fill="#070707" mask="url(#mask-2)"></path>
            </g>
        </g>
    </g>
</svg>