<?xml version="1.0" standalone="no"?>
<!DOCTYPE svg PUBLIC "-//W3C//DTD SVG 1.1//EN" "http://www.w3.org/Graphics/SVG/1.1/DTD/svg11.dtd" >
<svg xmlns="http://www.w3.org/2000/svg" xmlns:xlink="http://www.w3.org/1999/xlink" version="1.1">
<metadata>
Created by FontForge 20170731 at Thu Oct  3 20:56:21 2019
 By Aleksey,,,
Copyright (c) 2017 Swiss Typefaces Sarl. All rights reserved.
</metadata>
<defs>
<font id="NewPanamSkyline-Regular" horiz-adv-x="530" >
  <font-face 
    font-family="NewPanam Skyline"
    font-weight="400"
    font-stretch="normal"
    units-per-em="1000"
    panose-1="2 11 5 4 0 0 0 0 0 0"
    ascent="800"
    descent="-200"
    x-height="430"
    cap-height="692"
    bbox="-191 -264 1245 960"
    underline-thickness="62"
    underline-position="-213"
    unicode-range="U+0020-FEFF"
  />
<missing-glyph horiz-adv-x="672" 
d="M86 725h500v-725h-500v725zM105 696v-667l220 333zM567 29v667l-221 -334zM119 19h433l-216 327zM336 378l216 328h-433z" />
    <glyph glyph-name=".notdef" horiz-adv-x="672" 
d="M86 725h500v-725h-500v725zM105 696v-667l220 333zM567 29v667l-221 -334zM119 19h433l-216 327zM336 378l216 328h-433z" />
    <glyph glyph-name=".null" horiz-adv-x="0" 
 />
    <glyph glyph-name="nonmarkingreturn" horiz-adv-x="236" 
 />
    <glyph glyph-name="space" unicode=" " horiz-adv-x="236" 
 />
    <glyph glyph-name="exclam" unicode="!" horiz-adv-x="251" 
d="M106 218l-22 278v196h83v-196l-23 -278h-38zM71 110h110v-110h-110v110z" />
    <glyph glyph-name="quotedbl" unicode="&#x22;" horiz-adv-x="353" 
d="M300 692l-20 -249h-48l-20 249h88zM141 692l-20 -249h-48l-20 249h88z" />
    <glyph glyph-name="numbersign" unicode="#" horiz-adv-x="664" 
d="M179 279l23 166h-136l10 68h135l25 179h71l-25 -179h149l25 179h70l-25 -179h128l-9 -68h-128l-23 -166h129l-10 -67h-128l-29 -212h-71l29 212h-149l-29 -212h-70l29 212h-135l10 67h134zM250 279h149l23 166h-149z" />
    <glyph glyph-name="dollar" unicode="$" horiz-adv-x="505" 
d="M295 699q59 -11 101.5 -54t55.5 -124h-84q-10 60 -43.5 88t-78.5 28q-23 0 -44 -7t-36.5 -21t-24.5 -34.5t-9 -47.5q0 -39 24.5 -68.5t78.5 -52.5l66 -28q36 -15 66.5 -36t53 -47.5t35 -58.5t12.5 -69q0 -66 -44 -115.5t-129 -60.5v-102h-77v102q-47 6 -81.5 27.5t-57 50
t-33.5 60t-12 58.5h86q1 -24 10.5 -48t26.5 -42.5t42 -30.5t58 -12q69 0 101 32.5t32 81.5q0 42 -31.5 78t-90.5 61l-57 24q-81 34 -119 81.5t-38 113.5q0 72 43 119.5t121 55.5v111h77v-113z" />
    <glyph glyph-name="percent" unicode="%" horiz-adv-x="879" 
d="M636 692h76l-469 -692h-76zM205 309q-36 0 -67.5 14t-55 40t-36.5 62.5t-13 80.5t13 80.5t36.5 62.5t55 40t67.5 14t67.5 -14t55 -40t36.5 -62.5t13 -80.5t-13 -80.5t-36.5 -62.5t-55 -40t-67.5 -14zM205 372q48 0 73.5 35t25.5 99t-25.5 99t-73.5 35t-73.5 -35
t-25.5 -99t25.5 -99t73.5 -35zM673 -12q-36 0 -67.5 14t-55 40t-36.5 62.5t-13 80.5t13 80.5t36.5 62.5t55 40t67.5 14t67.5 -14t55 -40t36.5 -62.5t13 -80.5t-13 -80.5t-36.5 -62.5t-55 -40t-67.5 -14zM673 51q48 0 73.5 35t25.5 99t-25.5 99t-73.5 35t-73.5 -35t-25.5 -99
t25.5 -99t73.5 -35z" />
    <glyph glyph-name="ampersand" unicode="&#x26;" horiz-adv-x="580" 
d="M379 542q0 48 -28.5 71.5t-66.5 23.5t-64.5 -20t-26.5 -59q0 -21 8 -41t20.5 -39t28 -37t30.5 -36l290 -337v-103l-132 152q-30 -68 -80.5 -98.5t-110.5 -30.5q-50 0 -88.5 15.5t-64.5 42.5t-40 62.5t-14 75.5q0 62 39.5 120.5t108.5 103.5q-28 35 -49 72.5t-21 79.5
q0 31 13 57t36 45t54 30t68 11q32 0 62 -10.5t53.5 -31t37.5 -50.5t14 -69h-77zM252 54q43 0 86.5 23t72.5 72l-180 209q-1 0 -1 0.5t-1 0.5q-54 -38 -82.5 -81.5t-28.5 -89.5q0 -28 10 -52.5t27.5 -42.5t42 -28.5t54.5 -10.5z" />
    <glyph glyph-name="quotesingle" unicode="'" horiz-adv-x="194" 
d="M141 692l-20 -249h-48l-20 249h88z" />
    <glyph glyph-name="parenleft" unicode="(" horiz-adv-x="279" 
d="M43 240q0 76 14.5 146t37 130.5t51 110t55.5 84.5h63q-30 -45 -56.5 -96t-46.5 -109.5t-31.5 -125t-11.5 -140.5q0 -73 11.5 -139t31.5 -124.5t46.5 -110t56.5 -96.5h-63q-27 35 -55.5 84.5t-51 110t-37 130.5t-14.5 145z" />
    <glyph glyph-name="parenright" unicode=")" horiz-adv-x="279" 
d="M236 240q0 -75 -14.5 -145t-37 -130.5t-51 -110t-55.5 -84.5h-63q30 45 56.5 96.5t46.5 110t31.5 124.5t11.5 139q0 74 -11.5 140.5t-31.5 125t-46.5 109.5t-56.5 96h63q27 -35 55.5 -84.5t51 -110t37 -130.5t14.5 -146z" />
    <glyph glyph-name="asterisk" unicode="*" horiz-adv-x="396" 
d="M87 465l65 89l-104 37l18 51l104 -39v108h56v-108l104 39l18 -51l-104 -37l65 -89l-49 -31l-62 91l-62 -91z" />
    <glyph glyph-name="plus" unicode="+" 
d="M233 186h-184v62h184v182h63v-182h185v-62h-185v-186h-63v186z" />
    <glyph glyph-name="comma" unicode="," horiz-adv-x="245" 
d="M122 0h-53v110h110v-110l-73 -139h-57z" />
    <glyph glyph-name="hyphen" unicode="-" horiz-adv-x="365" 
d="M62 183v68h241v-68h-241z" />
    <glyph glyph-name="period" unicode="." horiz-adv-x="234" 
d="M62 110h110v-110h-110v110z" />
    <glyph glyph-name="slash" unicode="/" horiz-adv-x="406" 
d="M31 0l274 711h72l-275 -711h-71z" />
    <glyph glyph-name="zero" unicode="0" horiz-adv-x="622" 
d="M569 346q0 -84 -19 -150t-53.5 -112.5t-82 -71t-103.5 -24.5t-103.5 24.5t-82 71t-53.5 112.5t-19 150t19 150t53.5 112t82 70.5t103.5 24.5t103.5 -24.5t82 -70.5t53.5 -112t19 -150zM133 346q0 -76 14 -131t38 -91t56.5 -53t69.5 -17t69.5 17t56.5 53t38 91t14 131
t-14 131t-38 90.5t-56.5 52.5t-69.5 17t-69.5 -17t-56.5 -52.5t-38 -90.5t-14 -131z" />
    <glyph glyph-name="one" unicode="1" horiz-adv-x="307" 
d="M137 0v619h-105v73h182v-692h-77z" />
    <glyph glyph-name="two" unicode="2" horiz-adv-x="547" 
d="M39 0v15q0 42 12.5 78.5t39.5 72t70 71t103 76.5q35 24 63.5 45t49 43.5t32 48.5t11.5 60q0 25 -8.5 48t-26 40.5t-43 28t-58.5 10.5q-30 0 -56.5 -10t-46 -30t-30.5 -51t-8 -74h-80q-3 39 8 80t37.5 74.5t70.5 55t109 21.5q51 0 90 -16t66 -43t40.5 -62t13.5 -72
q0 -40 -13.5 -73t-38.5 -63t-61 -58.5t-81 -58.5q-51 -35 -84.5 -62.5t-53.5 -50t-28.5 -39.5t-9.5 -31h358v-74h-447z" />
    <glyph glyph-name="three" unicode="3" horiz-adv-x="571" 
d="M298 361q46 -4 86.5 -17t70.5 -34.5t47.5 -53t17.5 -72.5q0 -48 -19.5 -85t-52 -61.5t-75 -37t-87.5 -12.5q-59 0 -103.5 17.5t-75 47.5t-47 69.5t-18.5 83.5h81q5 -75 46.5 -113.5t116.5 -38.5q30 0 58 8t50 24.5t35 42.5t13 62q0 34 -17.5 59t-46 41.5t-65 24
t-75.5 7.5h-13v75h10q86 0 136 33.5t50 96.5q0 48 -36.5 78.5t-93.5 30.5q-32 0 -59 -10.5t-47 -31t-31.5 -51.5t-11.5 -72h-79q0 39 12 80t39 74.5t71 55t107 21.5q47 0 85.5 -13.5t65.5 -36.5t41.5 -53t14.5 -63q0 -39 -15 -69t-42 -52t-64 -35t-80 -18v-2z" />
    <glyph glyph-name="four" unicode="4" horiz-adv-x="573" 
d="M363 166h-340v69l346 457h70v-453h94v-73h-94v-166h-76v166zM363 239v340l-258 -340h258z" />
    <glyph glyph-name="five" unicode="5" horiz-adv-x="562" 
d="M278 -12q-58 0 -100.5 18t-71.5 48t-45 69t-21 81h81q12 -78 50 -114t107 -36q30 0 58.5 10t51 31.5t36 54.5t13.5 79t-14.5 78.5t-38 53t-52 30t-55.5 9.5q-26 0 -47 -6.5t-37.5 -16.5t-27.5 -23t-17 -26h-84l49 364h377v-74h-312l-33 -235h2q19 32 58.5 57.5
t100.5 25.5q39 0 76.5 -15.5t67 -45.5t47.5 -74t18 -101q0 -59 -19.5 -104.5t-52.5 -76t-76 -46t-89 -15.5z" />
    <glyph glyph-name="six" unicode="6" horiz-adv-x="583" 
d="M134 311q6 24 21.5 48t39.5 42.5t56 30t73 11.5q48 0 86 -18t64.5 -49t41 -72.5t14.5 -87.5q0 -48 -17 -90t-48 -72.5t-73 -48t-92 -17.5q-123 0 -185 86t-62 247q0 73 15 142t47.5 122.5t83 85.5t122.5 32q49 0 85 -14t61 -38t39.5 -55t20.5 -65h-80q-15 58 -48.5 82
t-78.5 24q-41 0 -75 -18t-59.5 -57t-39.5 -101t-14 -150h2zM299 54q33 0 61.5 11.5t48.5 32.5t31.5 51t11.5 67t-11.5 67t-31.5 51t-48.5 32.5t-61.5 11.5q-69 0 -111 -43.5t-42 -118.5t42 -118.5t111 -43.5z" />
    <glyph glyph-name="seven" unicode="7" horiz-adv-x="524" 
d="M132 0q0 97 20.5 188t60 170t97 145t130.5 114v1h-418v74h481v-69q-64 -50 -116 -109.5t-89.5 -134.5t-58 -168.5t-20.5 -210.5h-87v0z" />
    <glyph glyph-name="eight" unicode="8" horiz-adv-x="558" 
d="M279 -12q-49 0 -90.5 13.5t-72 38t-48 59.5t-17.5 79q0 34 12 64t33 53.5t49 39t61 21.5v2q-28 6 -52.5 20t-42.5 35t-28 48.5t-10 59.5q0 34 14 67t40.5 58.5t65 41t86.5 15.5t86.5 -15.5t65 -41t40.5 -58.5t14 -67q0 -32 -10 -59.5t-28 -48.5t-42.5 -35t-52.5 -20v-2
q33 -6 61 -21.5t49 -39t33 -53.5t12 -64q0 -44 -17.5 -79t-48 -59.5t-72 -38t-90.5 -13.5zM279 54q32 0 59.5 9t47.5 26.5t31.5 42t11.5 55.5t-11.5 55.5t-31.5 42t-47.5 26.5t-59.5 9t-59.5 -9t-47.5 -26.5t-31.5 -42t-11.5 -55.5t11.5 -55.5t31.5 -42t47.5 -26.5t59.5 -9z
M279 637q-64 0 -96.5 -35.5t-32.5 -86.5t32.5 -86.5t96.5 -35.5t96.5 35.5t32.5 86.5t-32.5 86.5t-96.5 35.5z" />
    <glyph glyph-name="nine" unicode="9" horiz-adv-x="583" 
d="M449 380q-6 -24 -21.5 -48t-39.5 -42.5t-56 -30t-73 -11.5q-48 0 -86 18t-64.5 49t-41 72.5t-14.5 87.5q0 48 17 90t48 72.5t73 48t92 17.5q123 0 185 -86t62 -247q0 -73 -15 -142t-47.5 -122.5t-83 -85.5t-122.5 -32q-49 0 -85 14t-61 38t-39.5 55t-20.5 65h80
q15 -58 48.5 -82t78.5 -24q41 0 75 18t59.5 57t39.5 101t14 150h-2zM284 637q-33 0 -61.5 -11.5t-48.5 -32.5t-31.5 -51t-11.5 -67t11.5 -67t31.5 -51t48.5 -32.5t61.5 -11.5q69 0 111 43.5t42 118.5t-42 118.5t-111 43.5z" />
    <glyph glyph-name="colon" unicode=":" horiz-adv-x="232" 
d="M61 430h110v-110h-110v110zM61 110h110v-110h-110v110z" />
    <glyph glyph-name="semicolon" unicode=";" horiz-adv-x="259" 
d="M132 0h-53v110h110v-110l-73 -139h-57zM79 430h110v-110h-110v110z" />
    <glyph glyph-name="less" unicode="&#x3c;" 
d="M52 186v62l416 182v-68l-335 -145l335 -145v-68z" />
    <glyph glyph-name="equal" unicode="=" 
d="M65 155h400v-62h-400v62zM65 339h400v-62h-400v62z" />
    <glyph glyph-name="greater" unicode="&#x3e;" 
d="M62 72l335 145l-335 145v68l416 -182v-62l-416 -182v68z" />
    <glyph glyph-name="question" unicode="?" horiz-adv-x="506" 
d="M260 703q49 0 88 -13.5t65 -37t40 -54.5t14 -65q0 -36 -11.5 -62t-30 -46.5t-43.5 -37.5t-52 -35q-19 -13 -29.5 -24.5t-16 -25t-6.5 -29t-1 -35.5v-20h-77v17q0 23 1.5 45.5t10 44t26.5 42t51 40.5q18 10 36 22t32 27t23 33.5t9 42.5q0 45 -33 75t-96 30
q-42 0 -70.5 -14.5t-46.5 -36.5t-26.5 -48.5t-8.5 -50.5h-76q2 48 19 88t46.5 68.5t70.5 44t92 15.5zM183 110h110v-110h-110v110z" />
    <glyph glyph-name="at" unicode="@" horiz-adv-x="793" 
d="M390 471q-30 0 -52.5 -13t-37.5 -34.5t-22 -48.5t-7 -55q0 -47 20.5 -75t65.5 -28q27 0 49 13.5t38.5 35.5t25.5 50t9 58q0 21 -7 38.5t-19.5 30.5t-28.5 20.5t-34 7.5zM585 215q46 0 77 39t31 108q0 59 -21.5 109.5t-59.5 88t-91 59t-116 21.5q-64 0 -118 -22.5
t-93 -62.5t-60.5 -93.5t-21.5 -116.5q0 -60 22 -113t62 -93.5t95.5 -64t123.5 -23.5q39 0 67 6.5t56 19.5l24 -59q-33 -16 -70.5 -23t-78.5 -7q-80 0 -147.5 28.5t-116 77t-75.5 113.5t-27 138q0 76 27 141.5t75 113.5t113.5 75.5t142.5 27.5q74 0 138.5 -25.5t112 -70.5
t75 -107.5t27.5 -137.5q0 -50 -14.5 -88t-38.5 -63.5t-55.5 -38.5t-65.5 -13q-56 0 -79.5 29t-26.5 72h-1q-17 -41 -51 -69.5t-86 -28.5q-26 0 -50.5 10t-44 30.5t-31 50t-11.5 68.5t13 76t36.5 66.5t56.5 47t73 17.5q42 0 69.5 -24.5t37.5 -57.5h1l8 67h64l-26 -194
q-8 -59 1.5 -81.5t47.5 -22.5z" />
    <glyph glyph-name="A" unicode="A" horiz-adv-x="642" 
d="M13 0l265 692h86l265 -692h-86l-77 208h-290l-77 -208h-86zM321 600l-119 -320h237z" />
    <glyph glyph-name="B" unicode="B" horiz-adv-x="616" 
d="M92 0v692h216q51 0 93 -12t71.5 -34t46 -54t16.5 -72q0 -33 -14.5 -60.5t-38 -48t-53.5 -34t-61 -19.5v-1q48 -2 86 -15t64.5 -36t40.5 -54t14 -67q0 -43 -16 -77.5t-46 -58.5t-72 -36.5t-94 -12.5h-253zM173 72h170q77 0 112 33t35 92q0 27 -10.5 49.5t-30 39t-46.5 26
t-60 9.5h-170v-249zM173 390h127q78 0 115.5 32t37.5 83q0 57 -34 86t-109 29h-137v-230z" />
    <glyph glyph-name="C" unicode="C" horiz-adv-x="746" 
d="M396 -12q-73 0 -137 27.5t-111.5 75.5t-75 113.5t-27.5 141.5t27.5 141.5t75 113.5t111.5 75t137 27q54 0 104.5 -15t93 -43.5t73.5 -70t46 -94.5h-89q-11 37 -34.5 65.5t-54.5 47.5t-67 28.5t-72 9.5q-54 0 -103 -21t-85.5 -59t-58 -90t-21.5 -115t21.5 -115.5t58 -90.5
t85.5 -59t103 -21q36 0 72 9.5t67 28.5t54.5 47.5t34.5 65.5h89q-15 -53 -46 -94.5t-73.5 -70t-93 -43.5t-104.5 -15z" />
    <glyph glyph-name="D" unicode="D" horiz-adv-x="692" 
d="M92 0v692h197q75 0 140 -25.5t113.5 -71.5t76 -109.5t27.5 -139.5t-27.5 -139.5t-76 -109.5t-113.5 -71.5t-140 -25.5h-197zM563 346q0 63 -21.5 114t-58.5 86.5t-87 54.5t-107 19h-116v-548h116q57 0 107 19t87 54.5t58.5 86.5t21.5 114z" />
    <glyph glyph-name="E" unicode="E" horiz-adv-x="554" 
d="M92 692h412v-72h-331v-228h290v-72h-290v-248h331v-72h-412v692z" />
    <glyph glyph-name="F" unicode="F" horiz-adv-x="567" 
d="M92 692h451v-72h-370v-228h318v-72h-318v-320h-81v692z" />
    <glyph glyph-name="G" unicode="G" horiz-adv-x="768" 
d="M386 -12q-75 0 -137.5 27.5t-107.5 75.5t-70.5 113.5t-25.5 141.5t27.5 141.5t75.5 113.5t112 75t137 27q54 0 102 -15t88 -43t69.5 -67t46.5 -88h-89q-13 33 -35 59t-50.5 44.5t-62 28t-69.5 9.5q-54 0 -103 -21t-86 -59t-58.5 -90t-21.5 -115t19 -115.5t54.5 -90.5
t85 -59t110.5 -21q55 0 98 13.5t72.5 36.5t45 53.5t15.5 65.5v55h-182v72h263v-356h-78v128h-1q-9 -25 -28.5 -50t-50 -45t-72 -32.5t-93.5 -12.5z" />
    <glyph glyph-name="H" unicode="H" horiz-adv-x="727" 
d="M554 320h-381v-320h-81v692h81v-300h381v300h81v-692h-81v320z" />
    <glyph glyph-name="I" unicode="I" horiz-adv-x="265" 
d="M173 0h-81v692h81v-692z" />
    <glyph glyph-name="J" unicode="J" horiz-adv-x="509" 
d="M222 -12q-45 0 -82.5 14.5t-64.5 41t-42 64t-15 83.5h80q0 -35 9.5 -60t26 -41t39 -23t48.5 -7q52 0 87 29.5t35 89.5v513h81v-499q0 -46 -14.5 -83.5t-41 -64.5t-64 -42t-82.5 -15z" />
    <glyph glyph-name="K" unicode="K" horiz-adv-x="582" 
d="M173 0h-81v692h81v-692zM184 347v2l292 343h97l-291 -341l298 -351h-102z" />
    <glyph glyph-name="L" unicode="L" horiz-adv-x="502" 
d="M92 692h81v-620h317v-72h-398v692z" />
    <glyph glyph-name="M" unicode="M" horiz-adv-x="840" 
d="M462 113h-84l-205 410v-523h-81v692h83l245 -497l245 497h83v-692h-81v523z" />
    <glyph glyph-name="N" unicode="N" horiz-adv-x="706" 
d="M92 0v692h83l358 -562v562h81v-692h-83l-358 563v-563h-81z" />
    <glyph glyph-name="O" unicode="O" horiz-adv-x="804" 
d="M759 346q0 -76 -27.5 -141.5t-76 -113.5t-113.5 -75.5t-140 -27.5t-140 27.5t-113.5 75.5t-76 113.5t-27.5 141.5t27.5 141.5t76 113.5t113.5 75t140 27t140 -27t113.5 -75t76 -113.5t27.5 -141.5zM676 346q0 63 -21.5 115t-59 90t-87.5 59t-106 21t-106 -21t-87.5 -59
t-59 -90t-21.5 -115t21.5 -115.5t59 -90.5t87.5 -59t106 -21t106 21t87.5 59t59 90.5t21.5 115.5z" />
    <glyph glyph-name="P" unicode="P" horiz-adv-x="578" 
d="M311 332q73 0 115 40t42 104t-42 104t-115 40h-138v-288h138zM173 260v-260h-81v692h216q52 0 96.5 -14.5t76.5 -42t50.5 -68t18.5 -91.5t-18.5 -91.5t-50.5 -68t-76.5 -42t-96.5 -14.5h-135z" />
    <glyph glyph-name="Q" unicode="Q" horiz-adv-x="804" 
d="M387 -46h372v-73h-372v73zM759 346q0 -76 -27.5 -141.5t-76 -113.5t-113.5 -75.5t-140 -27.5t-140 27.5t-113.5 75.5t-76 113.5t-27.5 141.5t27.5 141.5t76 113.5t113.5 75t140 27t140 -27t113.5 -75t76 -113.5t27.5 -141.5zM676 346q0 63 -21.5 115t-59 90t-87.5 59
t-106 21t-106 -21t-87.5 -59t-59 -90t-21.5 -115t21.5 -115.5t59 -90.5t87.5 -59t106 -21t106 21t87.5 59t59 90.5t21.5 115.5z" />
    <glyph glyph-name="R" unicode="R" horiz-adv-x="609" 
d="M285 318h-112v-318h-81v692h216q51 0 93 -12t71.5 -35.5t46 -58.5t16.5 -81q0 -77 -43.5 -122.5t-118.5 -59.5l213 -323h-92zM311 390q75 0 109 29t34 86t-34 86t-109 29h-138v-230h138z" />
    <glyph glyph-name="S" unicode="S" horiz-adv-x="517" 
d="M261 -12q-56 0 -97.5 20t-68.5 50t-40.5 64.5t-14.5 64.5h86q1 -23 10.5 -45.5t26.5 -41.5t42 -30.5t58 -11.5t57.5 8.5t40.5 23.5t24 34.5t8 41.5q0 44 -30.5 79t-88.5 58l-57 23q-157 64 -157 200q0 39 14.5 71.5t40 56t61.5 36.5t80 13q37 0 70.5 -10.5t60.5 -32.5
t45 -56.5t26 -82.5h-84q-10 58 -43.5 85t-78.5 27q-20 0 -40 -7t-36 -20.5t-25.5 -33.5t-9.5 -45q0 -41 26 -72t74 -51l66 -27q36 -15 67 -35t53 -45.5t34.5 -57t12.5 -70.5q0 -36 -13.5 -69t-40.5 -57.5t-67 -39.5t-92 -15z" />
    <glyph glyph-name="T" unicode="T" horiz-adv-x="547" 
d="M535 620h-221v-620h-81v620h-221v72h523v-72z" />
    <glyph glyph-name="U" unicode="U" horiz-adv-x="706" 
d="M353 60q94 0 141 56.5t47 160.5v415h81v-427q0 -64 -18 -115.5t-52.5 -87.5t-84.5 -55t-114 -19t-114 19t-84.5 55t-52.5 87.5t-18 115.5v427h81v-415q0 -104 47 -160.5t141 -56.5z" />
    <glyph glyph-name="V" unicode="V" horiz-adv-x="642" 
d="M13 692h87l221 -594l221 594h87l-266 -692h-84z" />
    <glyph glyph-name="W" unicode="W" horiz-adv-x="858" 
d="M27 692h80l125 -558l157 515h80l157 -515l125 558h80l-160 -692h-77l-165 536l-165 -536h-77z" />
    <glyph glyph-name="X" unicode="X" horiz-adv-x="607" 
d="M349 358l253 -358h-91l-208 293l-207 -293h-91l253 358l-236 334h91l190 -270l191 270h91z" />
    <glyph glyph-name="Y" unicode="Y" horiz-adv-x="597" 
d="M492 692h89l-242 -432v-260h-81v260l-242 432h89l194 -348z" />
    <glyph glyph-name="Z" unicode="Z" horiz-adv-x="560" 
d="M404 620h-353v72h491l-396 -620h380v-72h-518z" />
    <glyph glyph-name="bracketleft" unicode="[" horiz-adv-x="304" 
d="M285 711v-63h-130v-815h130v-63h-199v941h199z" />
    <glyph glyph-name="backslash" unicode="\" horiz-adv-x="406" 
d="M375 0h-71l-275 711h72z" />
    <glyph glyph-name="bracketright" unicode="]" horiz-adv-x="304" 
d="M218 711v-941h-199v63h130v815h-130v63h199z" />
    <glyph glyph-name="asciicircum" unicode="^" horiz-adv-x="522" 
d="M102 289h-68l193 403h68l193 -403h-68l-159 335z" />
    <glyph glyph-name="underscore" unicode="_" horiz-adv-x="491" 
d="M61 -62v62h369v-62h-369z" />
    <glyph glyph-name="grave" unicode="`" horiz-adv-x="232" 
d="M3 711h112l108 -157h-72z" />
    <glyph glyph-name="a" unicode="a" horiz-adv-x="526" 
d="M236 -12q-35 0 -69.5 14.5t-63 43t-46 71t-17.5 98.5t17.5 98.5t46 71t63 43t69.5 14.5q30 0 53.5 -9.5t41 -23.5t29.5 -30t18 -28h1v79h77v-430h-77v79h-1q-6 -12 -18 -28t-29.5 -30t-41 -23.5t-53.5 -9.5zM253 54q23 0 46.5 8.5t43 28t32 50t12.5 74.5t-12.5 74.5
t-32 50t-43 28t-46.5 8.5t-47 -8.5t-43.5 -28t-32 -50t-12.5 -74.5t12.5 -74.5t32 -50t43.5 -28t47 -8.5z" />
    <glyph glyph-name="b" unicode="b" horiz-adv-x="526" 
d="M290 -12q-30 0 -53.5 9.5t-41 23.5t-29.5 30t-18 28h-1v-79h-77v711h77v-360h1q6 12 18 28t29.5 30t41 23.5t53.5 9.5q34 0 69 -14.5t63.5 -43t46 -71t17.5 -98.5t-17.5 -98.5t-46 -71t-63.5 -43t-69 -14.5zM273 54q23 0 47 8.5t43.5 28t32 50t12.5 74.5t-12.5 74.5
t-32 50t-43.5 28t-47 8.5t-46.5 -8.5t-43 -28t-32 -50t-12.5 -74.5t12.5 -74.5t32 -50t43 -28t46.5 -8.5z" />
    <glyph glyph-name="c" unicode="c" horiz-adv-x="497" 
d="M256 -12q-48 0 -88 18t-68.5 49t-44.5 72.5t-16 88.5t16 88.5t44.5 72.5t68.5 49t88 18q41 0 75.5 -12t61.5 -34t45 -51.5t27 -65.5h-76q-14 42 -47 69.5t-86 27.5q-33 0 -58.5 -13t-43.5 -35.5t-27.5 -52t-9.5 -61.5t9.5 -61.5t27.5 -52t43.5 -35.5t58.5 -13
q53 0 86 27.5t47 69.5h76q-9 -36 -27 -65.5t-45 -51.5t-61.5 -34t-75.5 -12z" />
    <glyph glyph-name="d" unicode="d" horiz-adv-x="526" 
d="M236 -12q-35 0 -69.5 14.5t-63 43t-46 71t-17.5 98.5t17.5 98.5t46 71t63 43t69.5 14.5q30 0 53.5 -9.5t41 -23.5t29.5 -30t18 -28h1v360h77v-711h-77v79h-1q-6 -12 -18 -28t-29.5 -30t-41 -23.5t-53.5 -9.5zM253 54q23 0 46.5 8.5t43 28t32 50t12.5 74.5t-12.5 74.5
t-32 50t-43 28t-46.5 8.5t-47 -8.5t-43.5 -28t-32 -50t-12.5 -74.5t12.5 -74.5t32 -50t43.5 -28t47 -8.5z" />
    <glyph glyph-name="e" unicode="e" horiz-adv-x="506" 
d="M257 -12q-49 0 -89 18t-68.5 49t-44.5 72.5t-16 88.5t16 88.5t44.5 72.5t69 49t90.5 18q39 0 76.5 -14.5t66.5 -44.5t47.5 -76t19.5 -110h-352q1 -30 11.5 -56t28 -46t42.5 -31.5t55 -11.5q47 0 78 18t46 50h81q-21 -60 -74 -97t-128 -37zM255 380q-55 0 -90.5 -33.5
t-44.5 -87.5h266q-6 54 -42 87.5t-89 33.5z" />
    <glyph glyph-name="f" unicode="f" horiz-adv-x="308" 
d="M321 642h-30q-29 0 -47 -10t-28.5 -28.5t-14 -45t-3.5 -59.5v-69h93v-64h-93v-366h-77v366h-106v64h106v83q0 101 43 149.5t111 48.5h46v-69z" />
    <glyph glyph-name="g" unicode="g" horiz-adv-x="519" 
d="M241 58q-42 0 -78 15t-63 41.5t-42 61.5t-15 75t15 75t42 61.5t63 41.5t78 15q39 0 75 -14h218l-55 -55h-86q22 -26 34 -57.5t12 -66.5q0 -57 -29 -102.5t-77 -69.5q70 -17 103.5 -59.5t33.5 -90.5q0 -38 -16.5 -69.5t-44.5 -54t-66 -35t-80 -12.5q-50 0 -92 17t-72 48.5
t-47.5 76t-18.5 100.5h79q1 -50 15 -84t35.5 -54.5t48 -29t51.5 -8.5q32 0 57 9t42.5 24.5t26.5 35.5t9 43q0 22 -9.5 44t-28 39.5t-45.5 28t-61 10.5h1h-13zM241 122q57 0 89.5 37t32.5 92t-32.5 92t-89.5 37t-89.5 -37t-32.5 -92t32.5 -92t89.5 -37z" />
    <glyph glyph-name="h" unicode="h" horiz-adv-x="504" 
d="M148 338q23 54 59.5 78.5t87.5 24.5q27 0 52.5 -8.5t46 -28t33 -50.5t12.5 -77v-277h-77v267q0 54 -24 81t-68 27q-54 0 -88.5 -42t-34.5 -129v-204h-77v711h77v-373h1v0z" />
    <glyph glyph-name="i" unicode="i" horiz-adv-x="217" 
d="M147 0h-77v430h77v-430zM147 578h-77v110h77v-110z" />
    <glyph glyph-name="j" unicode="j" horiz-adv-x="217" 
d="M70 -242v672h77v-595l-76 -77h-1zM147 579h-77v110h77v-110z" />
    <glyph glyph-name="k" unicode="k" horiz-adv-x="459" 
d="M147 0h-77v711h77v-711zM348 430h96l-190 -203l201 -227h-97l-200 226v1z" />
    <glyph glyph-name="l" unicode="l" horiz-adv-x="217" 
d="M147 0h-77v711h77v-711z" />
    <glyph glyph-name="m" unicode="m" horiz-adv-x="786" 
d="M70 430h77v-92h1q23 54 59 78.5t85 24.5q22 0 43.5 -6t39.5 -19t32 -33.5t21 -50.5h1q21 46 57.5 77.5t92.5 31.5q26 0 51.5 -8.5t45.5 -28t32.5 -51t12.5 -76.5v-277h-77v267q0 53 -23.5 80.5t-65.5 27.5q-54 0 -87.5 -42.5t-33.5 -128.5v-204h-77v267q0 53 -23.5 80.5
t-65.5 27.5q-54 0 -87.5 -42.5t-33.5 -128.5v-204h-77v430z" />
    <glyph glyph-name="n" unicode="n" horiz-adv-x="504" 
d="M148 338q23 54 59.5 78.5t87.5 24.5q27 0 52.5 -8.5t46 -28t33 -50.5t12.5 -77v-277h-77v267q0 54 -24 81t-68 27q-54 0 -88.5 -42t-34.5 -129v-204h-77v430h77v-92h1v0z" />
    <glyph glyph-name="o" unicode="o" 
d="M265 54q34 0 61.5 13t47 35.5t30 52t10.5 61.5t-10.5 61.5t-30 52t-47 35.5t-61.5 13t-61.5 -13t-47 -35.5t-30 -52t-10.5 -61.5t10.5 -61.5t30 -52t47 -35.5t61.5 -13zM265 -12q-50 0 -91.5 18t-71.5 49t-47 72.5t-17 88.5t17 88.5t47 72.5t71.5 49t91.5 18q49 0 91 -18
t72 -49t47 -72.5t17 -88.5t-17 -88.5t-47 -72.5t-72 -49t-91 -18z" />
    <glyph glyph-name="p" unicode="p" horiz-adv-x="526" 
d="M70 430h77v-79h1q6 12 18 28t29.5 30t41 23.5t53.5 9.5q34 0 69 -14.5t63.5 -43t46 -71t17.5 -98.5t-17.5 -98.5t-46 -71t-63.5 -43t-69 -14.5q-30 0 -53.5 9.5t-41 23.5t-29.5 30t-18 28h-1v-309h-77v660zM273 54q23 0 47 8.5t43.5 28t32 50t12.5 74.5t-12.5 74.5
t-32 50t-43.5 28t-47 8.5t-46.5 -8.5t-43 -28t-32 -50t-12.5 -74.5t12.5 -74.5t32 -50t43 -28t46.5 -8.5z" />
    <glyph glyph-name="q" unicode="q" horiz-adv-x="526" 
d="M379 79h-1q-6 -12 -18 -28t-29.5 -30t-41 -23.5t-53.5 -9.5q-35 0 -69.5 14.5t-63 43t-46 71t-17.5 98.5t17.5 98.5t46 71t63 43t69.5 14.5q30 0 53.5 -9.5t41 -23.5t29.5 -30t18 -28h1v79h77v-660h-77v309zM253 54q23 0 46.5 8.5t43 28t32 50t12.5 74.5t-12.5 74.5
t-32 50t-43 28t-46.5 8.5t-47 -8.5t-43.5 -28t-32 -50t-12.5 -74.5t12.5 -74.5t32 -50t43.5 -28t47 -8.5z" />
    <glyph glyph-name="r" unicode="r" horiz-adv-x="327" 
d="M148 329q23 60 63 84t96 24h6v-78h-33q-28 0 -52 -6.5t-42 -23.5t-28.5 -46t-10.5 -75v-208h-77v430h77v-101h1v0z" />
    <glyph glyph-name="s" unicode="s" horiz-adv-x="381" 
d="M197 -12q-30 0 -58.5 8.5t-50.5 26t-36.5 43.5t-16.5 61h74q3 -31 23.5 -54t65.5 -23q37 0 54.5 16.5t17.5 39.5t-17.5 39t-55.5 32l-49 20q-51 20 -75 53.5t-24 72.5q0 53 37.5 86.5t100.5 33.5q23 0 47 -7.5t44 -23.5t34.5 -40t17.5 -58h-73q-6 34 -25 50t-46 16
q-31 0 -47 -15t-16 -38q0 -29 18 -43t41 -23l50 -20q52 -21 82 -51t30 -83q0 -24 -10.5 -45.5t-29.5 -38t-46 -26t-61 -9.5z" />
    <glyph glyph-name="t" unicode="t" horiz-adv-x="332" 
d="M197 430h122v-64h-122v-366h-77v366h-105v64h105v116l76 76h1v-192z" />
    <glyph glyph-name="u" unicode="u" horiz-adv-x="495" 
d="M205 -12q-26 0 -51.5 8.5t-45 28t-31.5 51t-12 76.5v278h77v-268q0 -52 22.5 -80t64.5 -28q53 0 86 43t33 128v205h77v-430h-77v91h-1q-44 -103 -142 -103z" />
    <glyph glyph-name="v" unicode="v" horiz-adv-x="440" 
d="M13 430h78l129 -339l129 339h78l-168 -430h-78z" />
    <glyph glyph-name="w" unicode="w" horiz-adv-x="652" 
d="M22 430h77l96 -326l97 294h68l97 -294l96 326h77l-131 -430h-72l-101 313l-101 -313h-72z" />
    <glyph glyph-name="x" unicode="x" horiz-adv-x="459" 
d="M273 222l175 -222h-89l-131 166l-131 -166h-86l175 220l-165 210h88l121 -154l123 154h85z" />
    <glyph glyph-name="y" unicode="y" horiz-adv-x="470" 
d="M197 0l-188 430h79l147 -340l147 340h79l-188 -430v-230h-76v230z" />
    <glyph glyph-name="z" unicode="z" horiz-adv-x="427" 
d="M17 0l254 366h-226v64h355l-254 -366h246v-64h-375z" />
    <glyph glyph-name="braceleft" unicode="{" horiz-adv-x="331" 
d="M278 -230q-80 0 -122 42t-42 144v161q0 37 -19.5 67t-69.5 36v41q50 6 69.5 36t19.5 67v161q0 102 42 144t122 42h35v-63h-34q-28 0 -46.5 -6t-29.5 -21t-15.5 -40t-4.5 -63v-140q0 -62 -20.5 -93t-60.5 -43v-3q40 -12 60.5 -43t20.5 -93v-140q0 -38 4.5 -63t15.5 -40
t29.5 -21t46.5 -6h34v-63h-35v0z" />
    <glyph glyph-name="bar" unicode="|" horiz-adv-x="241" 
d="M86 -230v941h69v-941h-69z" />
    <glyph glyph-name="braceright" unicode="}" horiz-adv-x="331" 
d="M53 -230h-35v63h34q28 0 46.5 6t29.5 21t15.5 40t4.5 63v140q0 62 20.5 93t60.5 43v3q-40 12 -60.5 43t-20.5 93v140q0 38 -4.5 63t-15.5 40t-29.5 21t-46.5 6h-34v63h35q80 0 122 -42t42 -144v-161q0 -37 19.5 -67t69.5 -36v-41q-50 -6 -69.5 -36t-19.5 -67v-161
q0 -102 -42 -144t-122 -42z" />
    <glyph glyph-name="asciitilde" unicode="~" horiz-adv-x="573" 
d="M191 300q30 0 56 -12t48.5 -26t43 -26t40.5 -12q56 0 65 73h63q-2 -33 -13.5 -57.5t-29 -41t-39 -25t-43.5 -8.5q-30 0 -56 12t-48.5 26t-43.5 26t-40 12q-56 0 -65 -73h-63q2 33 13.5 57.5t29 41t39 25t43.5 8.5z" />
    <glyph glyph-name="uni00A0" unicode="&#xa0;" horiz-adv-x="236" 
 />
    <glyph glyph-name="exclamdown" unicode="&#xa1;" horiz-adv-x="226" 
d="M71 -230v164l23 278h38l22 -278v-164h-83zM58 430h110v-110h-110v110z" />
    <glyph glyph-name="cent" unicode="&#xa2;" horiz-adv-x="506" 
d="M226 -9q-41 6 -74.5 26t-57 50t-36.5 68t-13 81q0 42 13 80t36.5 68t57 50t74.5 27v76h72v-76q68 -10 112.5 -53.5t60.5 -106.5h-76q-14 42 -47 69.5t-86 27.5q-33 0 -58.5 -13t-43.5 -35.5t-27.5 -52t-9.5 -61.5t9.5 -61.5t27.5 -52t43.5 -35.5t58.5 -13q53 0 86 27.5
t47 69.5h76q-16 -63 -60.5 -107t-112.5 -53v-83h-72v83z" />
    <glyph glyph-name="sterling" unicode="&#xa3;" horiz-adv-x="547" 
d="M290 637q-21 0 -43.5 -8t-41 -23t-30.5 -38t-12 -53q0 -19 7 -37.5t17.5 -37.5t23.5 -38t25 -38h159v-60h-129q4 -11 6.5 -23t2.5 -24q0 -30 -13.5 -57.5t-32.5 -50.5t-40 -41.5t-37 -31.5l1 -2h337v-74h-455v3q23 21 51 49t53 58.5t41.5 63.5t16.5 65q0 17 -4.5 33
t-11.5 32h-125v60h89q-22 33 -41 70t-19 84q0 44 17.5 78.5t47 58t67 36t77.5 12.5q54 0 94 -17.5t66 -48t39 -71t12 -86.5h-78q-2 78 -40.5 117.5t-96.5 39.5z" />
    <glyph glyph-name="yen" unicode="&#xa5;" horiz-adv-x="617" 
d="M347 260v-62h156v-60h-156v-138h-77v138h-156v60h156v62h-156v60h122l-208 372h85l196 -356l195 356h85l-209 -372h123v-60h-156z" />
    <glyph glyph-name="brokenbar" unicode="&#xa6;" horiz-adv-x="241" 
d="M86 -230v394h69v-394h-69zM86 318v393h69v-393h-69z" />
    <glyph glyph-name="section" unicode="&#xa7;" horiz-adv-x="558" 
d="M282 -177q24 0 44.5 6.5t36 18.5t24.5 29t9 38q0 31 -22 61t-81 62l-132 71q-64 35 -94.5 71.5t-30.5 91.5q0 30 13.5 53.5t33.5 41.5t44.5 30.5t47.5 20.5q-52 29 -71.5 66t-19.5 77q0 35 15 61.5t40 44.5t57.5 27t66.5 9q87 0 138.5 -47t59.5 -130h-75q-8 50 -37.5 81
t-86.5 31q-45 0 -73.5 -20.5t-28.5 -52.5q0 -31 20.5 -55.5t65.5 -49.5l140 -78q32 -18 57.5 -35t43 -36.5t27 -42t9.5 -52.5q0 -27 -12 -50t-31.5 -42t-44 -33t-49.5 -24q51 -35 69 -68.5t18 -72.5q0 -40 -15 -71t-41.5 -52.5t-61.5 -32.5t-75 -11q-81 0 -134.5 49.5
t-63.5 135.5h77q8 -54 38 -87.5t85 -33.5zM209 397q-20 -8 -38 -18.5t-32.5 -24t-23 -31t-8.5 -38.5q0 -32 18.5 -57.5t66.5 -51.5l164 -88q40 20 66.5 47.5t26.5 65.5q0 37 -26 64t-81 58z" />
    <glyph glyph-name="dieresis" unicode="&#xa8;" horiz-adv-x="348" 
d="M313 688v-110h-77v110h77zM112 578h-77v110h77v-110z" />
    <glyph glyph-name="copyright" unicode="&#xa9;" horiz-adv-x="802" 
d="M401 -12q-75 0 -140 28t-113 77t-76 114t-28 139t28 139t76 113.5t113 76.5t140 28t140 -28t113 -76.5t76 -113.5t28 -139t-28 -139t-76 -114t-113 -77t-140 -28zM401 49q61 0 114 23t92 63t61.5 94.5t22.5 116.5t-22.5 116.5t-61.5 94.5t-92 63t-114 23t-114 -23
t-92 -63t-61.5 -94.5t-22.5 -116.5t22.5 -116.5t61.5 -94.5t92 -63t114 -23zM405 164q-38 0 -72 13.5t-60 38.5t-41 59t-15 75q0 40 15 74t41 59t60 38.5t72 13.5q64 0 110 -33t63 -90h-72q-13 31 -38 48t-63 17q-24 0 -46.5 -9.5t-39 -26t-26.5 -40t-10 -51.5t9.5 -51.5
t26 -40.5t39 -26.5t47.5 -9.5q39 0 64 17.5t37 47.5h72q-17 -56 -63.5 -89.5t-109.5 -33.5z" />
    <glyph glyph-name="ordfeminine" unicode="&#xaa;" horiz-adv-x="440" 
d="M194 350q-27 0 -54 11.5t-48.5 34t-35 55t-13.5 75.5t13 75.5t34.5 55t48.5 34t54 11.5q22 0 40 -7t31.5 -17.5t23 -23t15.5 -22.5h1v60h68v-332h-68v60h-1q-6 -10 -15 -22.5t-22.5 -23t-31.5 -17.5t-40 -7zM211 406q18 0 35.5 7t31.5 21.5t23 37t9 54.5q0 31 -9 54
t-23 37.5t-31.5 21.5t-35.5 7t-35.5 -7t-32 -21.5t-23.5 -37.5t-9 -54q0 -32 9 -54.5t23.5 -37t32 -21.5t35.5 -7z" />
    <glyph glyph-name="guillemotleft" unicode="&#xab;" horiz-adv-x="455" 
d="M297 218l112 -182h-82l-112 182l112 182h82zM124 218l112 -182h-82l-112 182l112 182h82z" />
    <glyph glyph-name="uni00AD" unicode="&#xad;" horiz-adv-x="365" 
d="M62 183v68h241v-68h-241z" />
    <glyph glyph-name="registered" unicode="&#xae;" horiz-adv-x="802" 
d="M401 -12q-75 0 -140 28t-113 77t-76 114t-28 139t28 139t76 113.5t113 76.5t140 28t140 -28t113 -76.5t76 -113.5t28 -139t-28 -139t-76 -114t-113 -77t-140 -28zM401 49q61 0 114 23t92 63t61.5 94.5t22.5 116.5t-22.5 116.5t-61.5 94.5t-92 63t-114 23t-114 -23
t-92 -63t-61.5 -94.5t-22.5 -116.5t22.5 -116.5t61.5 -94.5t92 -63t114 -23zM353 171h-64v356h120q56 0 90.5 -26.5t34.5 -77.5q0 -38 -20 -62t-55 -34l103 -156h-73l-97 149h-39v-149zM413 376q27 0 42 12t15 35t-15 35.5t-42 12.5h-60v-95h60z" />
    <glyph glyph-name="macron" unicode="&#xaf;" horiz-adv-x="300" 
d="M20 600v67h260v-67h-260z" />
    <glyph glyph-name="degree" unicode="&#xb0;" horiz-adv-x="408" 
d="M39 566q0 34 13 64t35.5 52t52.5 35t64 13t64 -13t52.5 -35t35.5 -52t13 -64t-13 -64t-35.5 -52t-52.5 -35t-64 -13t-64 13t-52.5 35t-35.5 52t-13 64zM99 566q0 -21 7.5 -40.5t21.5 -34t33.5 -23.5t42.5 -9q49 0 77 31t28 76q0 47 -30 77t-75 30q-20 0 -39 -7.5
t-33.5 -21.5t-23.5 -34t-9 -44z" />
    <glyph glyph-name="twosuperior" unicode="&#xb2;" horiz-adv-x="311" 
d="M33 452v10q0 25 6 46.5t19 41t34 37.5t52 36q29 17 48 34.5t19 44.5q0 20 -13.5 33t-36.5 13q-11 0 -21.5 -3.5t-18.5 -11.5t-12.5 -21t-4.5 -33h-65q-1 57 34 88.5t92 31.5q24 0 44.5 -7.5t35 -21t23 -31t8.5 -38.5q0 -38 -27.5 -66.5t-69.5 -54.5q-39 -24 -56.5 -40
t-17.5 -30h165v-58h-237z" />
    <glyph glyph-name="threesuperior" unicode="&#xb3;" horiz-adv-x="319" 
d="M185 632q46 -5 72 -27t26 -60q0 -25 -11 -43.5t-28.5 -31t-40 -19t-45.5 -6.5q-57 0 -91 30.5t-36 78.5h65q2 -29 18.5 -44t43.5 -15q26 0 43 14.5t17 39.5q0 26 -21.5 40t-63.5 14h-4v52h3q38 0 58 13.5t20 36.5q0 19 -13 31t-35 12q-25 0 -41 -14.5t-17 -46.5h-63
q1 22 9 42.5t23 36t38 24.5t53 9q21 0 40.5 -5.5t35 -16t25 -26.5t9.5 -36q0 -35 -25.5 -55t-63.5 -27v-1z" />
    <glyph glyph-name="acute" unicode="&#xb4;" horiz-adv-x="232" 
d="M88 554h-72l98 157h112z" />
    <glyph glyph-name="paragraph" unicode="&#xb6;" horiz-adv-x="549" 
d="M239 294q-45 0 -83.5 16t-66 43t-43.5 63t-16 77t16 77.5t44.5 63.5t69 42.5t88.5 15.5h200v-826h-69v762h-71v-762h-69v428z" />
    <glyph glyph-name="periodcentered" unicode="&#xb7;" horiz-adv-x="234" 
d="M62 283h110v-110h-110v110z" />
    <glyph glyph-name="cedilla" unicode="&#xb8;" horiz-adv-x="268" 
d="M108 -81q10 8 22.5 13.5t29.5 5.5q29 0 52 -20.5t23 -59.5q0 -24 -10 -41.5t-26.5 -29.5t-38.5 -17.5t-46 -5.5q-22 0 -41.5 2.5t-39.5 10.5l10 42q12 -5 25 -8t33 -3q27 0 49 11t22 33q0 18 -14.5 30t-36.5 12q-10 0 -21 -2.5t-22 -8.5l-29 18l61 99h47l-50 -81h1z" />
    <glyph glyph-name="onesuperior" unicode="&#xb9;" horiz-adv-x="198" 
d="M82 452v284h-59v56h122v-340h-63z" />
    <glyph glyph-name="ordmasculine" unicode="&#xba;" horiz-adv-x="437" 
d="M218 407q25 0 45 9.5t34 26t22 38.5t8 46t-8 46t-22 38t-34 25.5t-45 9.5t-45 -9.5t-34.5 -25.5t-22 -38t-7.5 -46t7.5 -46t22 -38.5t34.5 -26t45 -9.5zM218 350q-39 0 -71.5 13.5t-56 37.5t-36.5 56.5t-13 69.5t13 69t36.5 56t56 37.5t71.5 13.5t71.5 -13.5t56 -37.5
t37 -56t13.5 -69t-13.5 -69.5t-37 -56.5t-56 -37.5t-71.5 -13.5z" />
    <glyph glyph-name="guillemotright" unicode="&#xbb;" horiz-adv-x="455" 
d="M158.008 218l-111.993 -182h81.9951l111.993 182l-111.993 182h-81.9951zM331.008 218l-111.993 -182h81.9951l111.993 182l-111.993 182h-81.9951z" />
    <glyph glyph-name="onequarter" unicode="&#xbc;" horiz-adv-x="669" 
d="M588 692l-469 -692h-76l469 692h76zM101 352v284h-59v56h122v-340h-63zM520 75h-163v51l170 214h56v-211h52v-54h-52v-75h-63v75zM520 129v126l-99 -126h99z" />
    <glyph glyph-name="onehalf" unicode="&#xbd;" horiz-adv-x="691" 
d="M579 692l-469 -692h-76l469 692h76zM410 0v10q0 25 6 46.5t19 41t34 37.5t52 36q29 17 48 34.5t19 44.5q0 20 -13.5 33t-36.5 13q-11 0 -21.5 -3.5t-18.5 -11.5t-12.5 -21t-4.5 -33h-65q-1 57 34 88.5t92 31.5q24 0 44.5 -7.5t35 -21t23 -31t8.5 -38.5q0 -38 -27.5 -66.5
t-69.5 -54.5q-39 -24 -56.5 -40t-17.5 -30h165v-58h-237zM115 352v284h-59v56h122v-340h-63z" />
    <glyph glyph-name="threequarters" unicode="&#xbe;" horiz-adv-x="735" 
d="M665 692l-469 -692h-76l469 692h76zM583 75h-163v51l170 214h56v-211h52v-54h-52v-75h-63v75zM583 129v126l-99 -126h99zM189 532q46 -5 72 -27t26 -60q0 -25 -11 -43.5t-28.5 -31t-40 -19t-45.5 -6.5q-57 0 -91 30.5t-36 78.5h65q2 -29 18.5 -44t43.5 -15q26 0 43 14.5
t17 39.5q0 26 -21.5 40t-63.5 14h-4v52h3q38 0 58 13.5t20 36.5q0 19 -13 31t-35 12q-25 0 -41 -14.5t-17 -46.5h-63q1 22 9 42.5t23 36t38 24.5t53 9q21 0 40.5 -5.5t35 -16t25 -26.5t9.5 -36q0 -35 -25.5 -55t-63.5 -27v-1z" />
    <glyph glyph-name="questiondown" unicode="&#xbf;" horiz-adv-x="493" 
d="M238 -242q-50 0 -88.5 13.5t-64.5 37t-40 54t-14 65.5q0 36 11.5 62t30 46.5t43.5 37.5t52 35q19 13 29.5 24.5t16 25t6.5 29t1 35.5v20h77v-17q0 -23 -1.5 -45.5t-10 -44t-26.5 -42.5t-51 -40q-18 -11 -36 -22.5t-32 -26.5t-23 -33.5t-9 -42.5q0 -45 33 -75t96 -30
q42 0 70.5 14.5t46.5 36.5t26.5 48.5t8.5 50.5h76q-2 -48 -19 -88t-46.5 -68.5t-70.5 -44t-92 -15.5zM205 430h110v-110h-110v110z" />
    <glyph glyph-name="Agrave" unicode="&#xc0;" horiz-adv-x="642" 
d="M13 0l265 692h86l265 -692h-86l-77 208h-290l-77 -208h-86zM321 600l-119 -320h237zM143 864h112l93 -121h-72z" />
    <glyph glyph-name="Aacute" unicode="&#xc1;" horiz-adv-x="642" 
d="M13 0l265 692h86l265 -692h-86l-77 208h-290l-77 -208h-86zM321 600l-119 -320h237zM361 743h-72l98 121h112z" />
    <glyph glyph-name="Acircumflex" unicode="&#xc2;" horiz-adv-x="642" 
d="M13 0l265 692h86l265 -692h-86l-77 208h-290l-77 -208h-86zM321 600l-119 -320h237zM284 864h74l127 -121h-74l-90 59l-90 -59h-74z" />
    <glyph glyph-name="Atilde" unicode="&#xc3;" horiz-adv-x="642" 
d="M13 0l265 692h86l265 -692h-86l-77 208h-290l-77 -208h-86zM321 600l-119 -320h237zM374 816q35 0 43 41h65q-5 -30 -15.5 -50t-24.5 -31t-30 -15.5t-31 -4.5q-20 0 -35 6t-28 13.5t-25 14t-24 6.5q-35 0 -41 -40h-66q4 31 15 50.5t25.5 30.5t30.5 15.5t31 4.5
q19 0 33.5 -6.5t27.5 -14t24.5 -14t24.5 -6.5z" />
    <glyph glyph-name="Adieresis" unicode="&#xc4;" horiz-adv-x="642" 
d="M13 0l265 692h86l265 -692h-86l-77 208h-290l-77 -208h-86zM321 600l-119 -320h237zM181 853h77v-110h-77v110zM382 853h77v-110h-77v110z" />
    <glyph glyph-name="Aring" unicode="&#xc5;" horiz-adv-x="642" 
d="M13 0l265 692h86l265 -692h-86l-77 208h-290l-77 -208h-86zM321 600l-119 -320h237zM321 782q29 0 48.5 19.5t19.5 48.5q0 28 -19.5 47.5t-48.5 19.5q-28 0 -47.5 -19.5t-19.5 -47.5q0 -29 19.5 -48.5t47.5 -19.5zM321 739q-23 0 -43 9t-35 24t-23.5 35t-8.5 43
q0 22 8.5 42t23.5 35t35 24t43 9t43 -9t35 -24t24 -35t9 -42q0 -23 -9 -43t-24 -35t-35 -24t-43 -9z" />
    <glyph glyph-name="AE" unicode="&#xc6;" horiz-adv-x="882" 
d="M420 208h-243l-79 -208h-86l265 692h86l-158 -412h215v412h412v-72h-331v-228h290v-72h-290v-248h331v-72h-412v208z" />
    <glyph glyph-name="Ccedilla" unicode="&#xc7;" horiz-adv-x="746" 
d="M396 -12q-73 0 -137 27.5t-111.5 75.5t-75 113.5t-27.5 141.5t27.5 141.5t75 113.5t111.5 75t137 27q54 0 104.5 -15t93 -43.5t73.5 -70t46 -94.5h-89q-11 37 -34.5 65.5t-54.5 47.5t-67 28.5t-72 9.5q-54 0 -103 -21t-85.5 -59t-58 -90t-21.5 -115t21.5 -115.5t58 -90.5
t85.5 -59t103 -21q36 0 72 9.5t67 28.5t54.5 47.5t34.5 65.5h89q-15 -53 -46 -94.5t-73.5 -70t-93 -43.5t-104.5 -15zM371 -81q10 8 22.5 13.5t29.5 5.5q29 0 52 -20.5t23 -59.5q0 -24 -10 -41.5t-26.5 -29.5t-38.5 -17.5t-46 -5.5q-22 0 -43 3t-41 11l13 44q12 -5 25 -8
t33 -3q27 0 47.5 9.5t20.5 31.5q0 18 -13 28.5t-35 10.5q-10 0 -21 -2.5t-22 -8.5l-32 21l61 99h50l-50 -81h1z" />
    <glyph glyph-name="Egrave" unicode="&#xc8;" horiz-adv-x="554" 
d="M92 692h412v-72h-331v-228h290v-72h-290v-248h331v-72h-412v692zM186 864h112l93 -121h-72z" />
    <glyph glyph-name="Eacute" unicode="&#xc9;" horiz-adv-x="554" 
d="M92 692h412v-72h-331v-228h290v-72h-290v-248h331v-72h-412v692zM307 743h-72l98 121h112z" />
    <glyph glyph-name="Ecircumflex" unicode="&#xca;" horiz-adv-x="554" 
d="M92 692h412v-72h-331v-228h290v-72h-290v-248h331v-72h-412v692zM261 864h74l127 -121h-74l-90 59l-90 -59h-74z" />
    <glyph glyph-name="Edieresis" unicode="&#xcb;" horiz-adv-x="554" 
d="M92 692h412v-72h-331v-228h290v-72h-290v-248h331v-72h-412v692zM160 853h77v-110h-77v110zM361 853h77v-110h-77v110z" />
    <glyph glyph-name="Igrave" unicode="&#xcc;" horiz-adv-x="265" 
d="M173 0h-81v692h81v-692zM-40 864h112l93 -121h-72z" />
    <glyph glyph-name="Iacute" unicode="&#xcd;" horiz-adv-x="265" 
d="M173 0h-81v692h81v-692zM173 743h-72l98 121h112z" />
    <glyph glyph-name="Icircumflex" unicode="&#xce;" horiz-adv-x="265" 
d="M173 0h-81v692h81v-692zM97 864h74l127 -121h-74l-90 59l-90 -59h-74z" />
    <glyph glyph-name="Idieresis" unicode="&#xcf;" horiz-adv-x="265" 
d="M173 0h-81v692h81v-692zM-5 853h77v-110h-77v110zM196 853h77v-110h-77v110z" />
    <glyph glyph-name="Eth" unicode="&#xd0;" horiz-adv-x="701" 
d="M101 0v320h-80v72h80v300h197q75 0 140 -25.5t113.5 -71.5t76 -109.5t27.5 -139.5t-27.5 -139.5t-76 -109.5t-113.5 -71.5t-140 -25.5h-197zM572 346q0 63 -21.5 114t-58.5 86.5t-87 54.5t-107 19h-116v-228h162v-72h-162v-248h116q57 0 107 19t87 54.5t58.5 86.5
t21.5 114z" />
    <glyph glyph-name="Ntilde" unicode="&#xd1;" horiz-adv-x="706" 
d="M92 0v692h83l358 -562v562h81v-692h-83l-358 563v-563h-81zM406 816q35 0 43 41h65q-5 -30 -15.5 -50t-24.5 -31t-30 -15.5t-31 -4.5q-20 0 -35 6t-28 13.5t-25 14t-24 6.5q-35 0 -41 -40h-66q4 31 15 50.5t25.5 30.5t30.5 15.5t31 4.5q19 0 33.5 -6.5t27.5 -14t24.5 -14
t24.5 -6.5z" />
    <glyph glyph-name="Ograve" unicode="&#xd2;" horiz-adv-x="804" 
d="M759 346q0 -76 -27.5 -141.5t-76 -113.5t-113.5 -75.5t-140 -27.5t-140 27.5t-113.5 75.5t-76 113.5t-27.5 141.5t27.5 141.5t76 113.5t113.5 75t140 27t140 -27t113.5 -75t76 -113.5t27.5 -141.5zM676 346q0 63 -21.5 115t-59 90t-87.5 59t-106 21t-106 -21t-87.5 -59
t-59 -90t-21.5 -115t21.5 -115.5t59 -90.5t87.5 -59t106 -21t106 21t87.5 59t59 90.5t21.5 115.5zM265 864h112l93 -121h-72z" />
    <glyph glyph-name="Oacute" unicode="&#xd3;" horiz-adv-x="804" 
d="M759 346q0 -76 -27.5 -141.5t-76 -113.5t-113.5 -75.5t-140 -27.5t-140 27.5t-113.5 75.5t-76 113.5t-27.5 141.5t27.5 141.5t76 113.5t113.5 75t140 27t140 -27t113.5 -75t76 -113.5t27.5 -141.5zM676 346q0 63 -21.5 115t-59 90t-87.5 59t-106 21t-106 -21t-87.5 -59
t-59 -90t-21.5 -115t21.5 -115.5t59 -90.5t87.5 -59t106 -21t106 21t87.5 59t59 90.5t21.5 115.5zM423 743h-72l98 121h112z" />
    <glyph glyph-name="Ocircumflex" unicode="&#xd4;" horiz-adv-x="804" 
d="M759 346q0 -76 -27.5 -141.5t-76 -113.5t-113.5 -75.5t-140 -27.5t-140 27.5t-113.5 75.5t-76 113.5t-27.5 141.5t27.5 141.5t76 113.5t113.5 75t140 27t140 -27t113.5 -75t76 -113.5t27.5 -141.5zM676 346q0 63 -21.5 115t-59 90t-87.5 59t-106 21t-106 -21t-87.5 -59
t-59 -90t-21.5 -115t21.5 -115.5t59 -90.5t87.5 -59t106 -21t106 21t87.5 59t59 90.5t21.5 115.5zM365 864h74l127 -121h-74l-90 59l-90 -59h-74z" />
    <glyph glyph-name="Otilde" unicode="&#xd5;" horiz-adv-x="804" 
d="M759 346q0 -76 -27.5 -141.5t-76 -113.5t-113.5 -75.5t-140 -27.5t-140 27.5t-113.5 75.5t-76 113.5t-27.5 141.5t27.5 141.5t76 113.5t113.5 75t140 27t140 -27t113.5 -75t76 -113.5t27.5 -141.5zM676 346q0 63 -21.5 115t-59 90t-87.5 59t-106 21t-106 -21t-87.5 -59
t-59 -90t-21.5 -115t21.5 -115.5t59 -90.5t87.5 -59t106 -21t106 21t87.5 59t59 90.5t21.5 115.5zM455 816q35 0 43 41h65q-5 -30 -15.5 -50t-24.5 -31t-30 -15.5t-31 -4.5q-20 0 -35 6t-28 13.5t-25 14t-24 6.5q-35 0 -41 -40h-66q4 31 15 50.5t25.5 30.5t30.5 15.5t31 4.5
q19 0 33.5 -6.5t27.5 -14t24.5 -14t24.5 -6.5z" />
    <glyph glyph-name="Odieresis" unicode="&#xd6;" horiz-adv-x="804" 
d="M759 346q0 -76 -27.5 -141.5t-76 -113.5t-113.5 -75.5t-140 -27.5t-140 27.5t-113.5 75.5t-76 113.5t-27.5 141.5t27.5 141.5t76 113.5t113.5 75t140 27t140 -27t113.5 -75t76 -113.5t27.5 -141.5zM676 346q0 63 -21.5 115t-59 90t-87.5 59t-106 21t-106 -21t-87.5 -59
t-59 -90t-21.5 -115t21.5 -115.5t59 -90.5t87.5 -59t106 -21t106 21t87.5 59t59 90.5t21.5 115.5zM263 853h77v-110h-77v110zM464 853h77v-110h-77v110z" />
    <glyph glyph-name="multiply" unicode="&#xd7;" 
d="M76 71l144 144l-144 144l45 45l144 -144l144 144l44 -44l-144 -144l144 -144l-45 -45l-144 144l-144 -144z" />
    <glyph glyph-name="Oslash" unicode="&#xd8;" horiz-adv-x="814" 
d="M49 24l86 86q-40 47 -62.5 107t-22.5 129q0 76 27.5 141.5t76 113.5t113.5 75t140 27q69 0 128.5 -22.5t106.5 -63.5l86 86l36 -36l-86 -86q41 -47 63.5 -106.5t22.5 -128.5q0 -76 -27.5 -141.5t-76 -113.5t-113.5 -75.5t-140 -27.5q-69 0 -128.5 22.5t-107.5 63.5
l-86 -86zM681 346q0 53 -15.5 98t-43.5 81l-396 -396q36 -33 82.5 -51t98.5 -18q56 0 106 21t87.5 59t59 90.5t21.5 115.5zM133 346q0 -53 15 -98.5t43 -81.5l397 397q-37 32 -83 50t-98 18q-56 0 -106 -21t-87.5 -59t-59 -90t-21.5 -115z" />
    <glyph glyph-name="Ugrave" unicode="&#xd9;" horiz-adv-x="706" 
d="M353 60q94 0 141 56.5t47 160.5v415h81v-427q0 -64 -18 -115.5t-52.5 -87.5t-84.5 -55t-114 -19t-114 19t-84.5 55t-52.5 87.5t-18 115.5v427h81v-415q0 -104 47 -160.5t141 -56.5zM220 864h112l93 -121h-72z" />
    <glyph glyph-name="Uacute" unicode="&#xda;" horiz-adv-x="706" 
d="M353 60q94 0 141 56.5t47 160.5v415h81v-427q0 -64 -18 -115.5t-52.5 -87.5t-84.5 -55t-114 -19t-114 19t-84.5 55t-52.5 87.5t-18 115.5v427h81v-415q0 -104 47 -160.5t141 -56.5zM354 743h-72l98 121h112z" />
    <glyph glyph-name="Ucircumflex" unicode="&#xdb;" horiz-adv-x="706" 
d="M353 60q94 0 141 56.5t47 160.5v415h81v-427q0 -64 -18 -115.5t-52.5 -87.5t-84.5 -55t-114 -19t-114 19t-84.5 55t-52.5 87.5t-18 115.5v427h81v-415q0 -104 47 -160.5t141 -56.5zM316 864h74l127 -121h-74l-90 59l-90 -59h-74z" />
    <glyph glyph-name="Udieresis" unicode="&#xdc;" horiz-adv-x="706" 
d="M353 60q94 0 141 56.5t47 160.5v415h81v-427q0 -64 -18 -115.5t-52.5 -87.5t-84.5 -55t-114 -19t-114 19t-84.5 55t-52.5 87.5t-18 115.5v427h81v-415q0 -104 47 -160.5t141 -56.5zM214 853h77v-110h-77v110zM415 853h77v-110h-77v110z" />
    <glyph glyph-name="Yacute" unicode="&#xdd;" horiz-adv-x="597" 
d="M492 692h89l-242 -432v-260h-81v260l-242 432h89l194 -348zM299 743h-72l98 121h112z" />
    <glyph glyph-name="Thorn" unicode="&#xde;" horiz-adv-x="589" 
d="M311 202q73 0 115 40t42 104t-42 104t-115 40h-138v-288h138zM173 130v-130h-81v692h81v-130h135q52 0 96.5 -14.5t76.5 -42t50.5 -68t18.5 -91.5t-18.5 -91.5t-50.5 -68t-76.5 -42t-96.5 -14.5h-135z" />
    <glyph glyph-name="germandbls" unicode="&#xdf;" horiz-adv-x="550" 
d="M512 196q0 -41 -15.5 -78.5t-43 -66.5t-67 -46t-87.5 -17q-18 0 -37 2t-33 5v66q20 -5 40 -6t32 -1q29 0 53.5 11t42 31.5t27.5 48.5t10 61q0 34 -12.5 63t-36 50.5t-57 34t-74.5 12.5h-25v64h6q39 0 66.5 10.5t44.5 28t25 38.5t8 42t-6 40.5t-18.5 34.5t-31.5 24t-45 9
q-51 0 -75.5 -32.5t-24.5 -80.5v-544h-77v366h-74v64h74v114q0 39 10.5 71.5t32 56.5t55 37.5t79.5 13.5q44 0 77.5 -13t56 -34.5t34 -49t11.5 -56.5t-11 -57.5t-32.5 -52t-54.5 -40t-77 -19.5v-2q41 1 82 -11.5t74 -38t53.5 -64t20.5 -89.5z" />
    <glyph glyph-name="agrave" unicode="&#xe0;" horiz-adv-x="526" 
d="M236 -12q-35 0 -69.5 14.5t-63 43t-46 71t-17.5 98.5t17.5 98.5t46 71t63 43t69.5 14.5q30 0 53.5 -9.5t41 -23.5t29.5 -30t18 -28h1v79h77v-430h-77v79h-1q-6 -12 -18 -28t-29.5 -30t-41 -23.5t-53.5 -9.5zM253 54q23 0 46.5 8.5t43 28t32 50t12.5 74.5t-12.5 74.5
t-32 50t-43 28t-46.5 8.5t-47 -8.5t-43.5 -28t-32 -50t-12.5 -74.5t12.5 -74.5t32 -50t43.5 -28t47 -8.5zM124 711h112l108 -157h-72z" />
    <glyph glyph-name="aacute" unicode="&#xe1;" horiz-adv-x="526" 
d="M236 -12q-35 0 -69.5 14.5t-63 43t-46 71t-17.5 98.5t17.5 98.5t46 71t63 43t69.5 14.5q30 0 53.5 -9.5t41 -23.5t29.5 -30t18 -28h1v79h77v-430h-77v79h-1q-6 -12 -18 -28t-29.5 -30t-41 -23.5t-53.5 -9.5zM253 54q23 0 46.5 8.5t43 28t32 50t12.5 74.5t-12.5 74.5
t-32 50t-43 28t-46.5 8.5t-47 -8.5t-43.5 -28t-32 -50t-12.5 -74.5t12.5 -74.5t32 -50t43.5 -28t47 -8.5zM262 554h-72l98 157h112z" />
    <glyph glyph-name="acircumflex" unicode="&#xe2;" horiz-adv-x="526" 
d="M236 -12q-35 0 -69.5 14.5t-63 43t-46 71t-17.5 98.5t17.5 98.5t46 71t63 43t69.5 14.5q30 0 53.5 -9.5t41 -23.5t29.5 -30t18 -28h1v79h77v-430h-77v79h-1q-6 -12 -18 -28t-29.5 -30t-41 -23.5t-53.5 -9.5zM253 54q23 0 46.5 8.5t43 28t32 50t12.5 74.5t-12.5 74.5
t-32 50t-43 28t-46.5 8.5t-47 -8.5t-43.5 -28t-32 -50t-12.5 -74.5t12.5 -74.5t32 -50t43.5 -28t47 -8.5zM235 711h74l127 -157h-74l-90 95l-90 -95h-74z" />
    <glyph glyph-name="atilde" unicode="&#xe3;" horiz-adv-x="526" 
d="M236 -12q-35 0 -69.5 14.5t-63 43t-46 71t-17.5 98.5t17.5 98.5t46 71t63 43t69.5 14.5q30 0 53.5 -9.5t41 -23.5t29.5 -30t18 -28h1v79h77v-430h-77v79h-1q-6 -12 -18 -28t-29.5 -30t-41 -23.5t-53.5 -9.5zM253 54q23 0 46.5 8.5t43 28t32 50t12.5 74.5t-12.5 74.5
t-32 50t-43 28t-46.5 8.5t-47 -8.5t-43.5 -28t-32 -50t-12.5 -74.5t12.5 -74.5t32 -50t43.5 -28t47 -8.5zM325 643q35 0 43 41h65q-5 -30 -15.5 -50t-24.5 -31t-30 -15.5t-31 -4.5q-20 0 -35 6t-28 13.5t-25 14t-24 6.5q-35 0 -41 -40h-66q4 31 15 50.5t25.5 30.5t30.5 15.5
t31 4.5q19 0 33.5 -6.5t27.5 -14t24.5 -14t24.5 -6.5z" />
    <glyph glyph-name="adieresis" unicode="&#xe4;" horiz-adv-x="526" 
d="M236 -12q-35 0 -69.5 14.5t-63 43t-46 71t-17.5 98.5t17.5 98.5t46 71t63 43t69.5 14.5q30 0 53.5 -9.5t41 -23.5t29.5 -30t18 -28h1v79h77v-430h-77v79h-1q-6 -12 -18 -28t-29.5 -30t-41 -23.5t-53.5 -9.5zM253 54q23 0 46.5 8.5t43 28t32 50t12.5 74.5t-12.5 74.5
t-32 50t-43 28t-46.5 8.5t-47 -8.5t-43.5 -28t-32 -50t-12.5 -74.5t12.5 -74.5t32 -50t43.5 -28t47 -8.5zM411 688v-110h-77v110h77zM210 578h-77v110h77v-110z" />
    <glyph glyph-name="aring" unicode="&#xe5;" horiz-adv-x="526" 
d="M236 -12q-35 0 -69.5 14.5t-63 43t-46 71t-17.5 98.5t17.5 98.5t46 71t63 43t69.5 14.5q30 0 53.5 -9.5t41 -23.5t29.5 -30t18 -28h1v79h77v-430h-77v79h-1q-6 -12 -18 -28t-29.5 -30t-41 -23.5t-53.5 -9.5zM253 54q23 0 46.5 8.5t43 28t32 50t12.5 74.5t-12.5 74.5
t-32 50t-43 28t-46.5 8.5t-47 -8.5t-43.5 -28t-32 -50t-12.5 -74.5t12.5 -74.5t32 -50t43.5 -28t47 -8.5zM266 523q-23 0 -43 9t-35 24t-23.5 35t-8.5 43q0 22 8.5 42t23.5 35t35 24t43 9t43 -9t35 -24t24 -35t9 -42q0 -23 -9 -43t-24 -35t-35 -24t-43 -9zM266 566
q29 0 48.5 19.5t19.5 48.5q0 28 -19.5 47.5t-48.5 19.5q-28 0 -47.5 -19.5t-19.5 -47.5q0 -29 19.5 -48.5t47.5 -19.5z" />
    <glyph glyph-name="ae" unicode="&#xe6;" horiz-adv-x="840" 
d="M236 -12q-35 0 -69.5 14.5t-63 43t-46 71t-17.5 98.5t17.5 98.5t46 71t63 43t69.5 14.5q30 0 53.5 -9.5t41 -23.5t29.5 -30t18 -28h1v79h71v-51q23 30 58.5 47.5t84.5 17.5q39 0 76.5 -14.5t66.5 -44.5t47.5 -76t19.5 -110h-352q1 -30 11.5 -56t28.5 -46t42.5 -31.5
t54.5 -11.5q47 0 78 18t46 50h81q-21 -60 -74 -97t-128 -37q-48 0 -83 17.5t-58 46.5v-52h-71v79h-1q-6 -12 -18 -28t-29.5 -30t-41 -23.5t-53.5 -9.5zM589 380q-55 0 -90.5 -33.5t-44.5 -87.5h266q-6 54 -42 87.5t-89 33.5zM253 54q23 0 46.5 8.5t43 28t32 50t12.5 74.5
t-12.5 74.5t-32 50t-43 28t-46.5 8.5t-47 -8.5t-43.5 -28t-32 -50t-12.5 -74.5t12.5 -74.5t32 -50t43.5 -28t47 -8.5z" />
    <glyph glyph-name="ccedilla" unicode="&#xe7;" horiz-adv-x="497" 
d="M256 -12q-48 0 -88 18t-68.5 49t-44.5 72.5t-16 88.5t16 88.5t44.5 72.5t68.5 49t88 18q41 0 75.5 -12t61.5 -34t45 -51.5t27 -65.5h-76q-14 42 -47 69.5t-86 27.5q-33 0 -58.5 -13t-43.5 -35.5t-27.5 -52t-9.5 -61.5t9.5 -61.5t27.5 -52t43.5 -35.5t58.5 -13
q53 0 86 27.5t47 69.5h76q-9 -36 -27 -65.5t-45 -51.5t-61.5 -34t-75.5 -12zM227 -81q10 8 22.5 13.5t29.5 5.5q29 0 52 -20.5t23 -59.5q0 -24 -10 -41.5t-26.5 -29.5t-38.5 -17.5t-46 -5.5q-22 0 -41.5 2.5t-39.5 10.5l10 42q12 -5 25 -8t33 -3q27 0 49 11t22 33
q0 18 -14.5 30t-36.5 12q-10 0 -21 -2.5t-22 -8.5l-29 18l61 99h47l-50 -81h1z" />
    <glyph glyph-name="egrave" unicode="&#xe8;" horiz-adv-x="506" 
d="M257 -12q-49 0 -89 18t-68.5 49t-44.5 72.5t-16 88.5t16 88.5t44.5 72.5t69 49t90.5 18q39 0 76.5 -14.5t66.5 -44.5t47.5 -76t19.5 -110h-352q1 -30 11.5 -56t28 -46t42.5 -31.5t55 -11.5q47 0 78 18t46 50h81q-21 -60 -74 -97t-128 -37zM255 380q-55 0 -90.5 -33.5
t-44.5 -87.5h266q-6 54 -42 87.5t-89 33.5zM116 711h112l108 -157h-72z" />
    <glyph glyph-name="eacute" unicode="&#xe9;" horiz-adv-x="506" 
d="M257 -12q-49 0 -89 18t-68.5 49t-44.5 72.5t-16 88.5t16 88.5t44.5 72.5t69 49t90.5 18q39 0 76.5 -14.5t66.5 -44.5t47.5 -76t19.5 -110h-352q1 -30 11.5 -56t28 -46t42.5 -31.5t55 -11.5q47 0 78 18t46 50h81q-21 -60 -74 -97t-128 -37zM255 380q-55 0 -90.5 -33.5
t-44.5 -87.5h266q-6 54 -42 87.5t-89 33.5zM262 554h-72l98 157h112z" />
    <glyph glyph-name="ecircumflex" unicode="&#xea;" horiz-adv-x="506" 
d="M257 -12q-49 0 -89 18t-68.5 49t-44.5 72.5t-16 88.5t16 88.5t44.5 72.5t69 49t90.5 18q39 0 76.5 -14.5t66.5 -44.5t47.5 -76t19.5 -110h-352q1 -30 11.5 -56t28 -46t42.5 -31.5t55 -11.5q47 0 78 18t46 50h81q-21 -60 -74 -97t-128 -37zM255 380q-55 0 -90.5 -33.5
t-44.5 -87.5h266q-6 54 -42 87.5t-89 33.5zM217 711h74l127 -157h-74l-90 95l-90 -95h-74z" />
    <glyph glyph-name="edieresis" unicode="&#xeb;" horiz-adv-x="506" 
d="M257 -12q-49 0 -89 18t-68.5 49t-44.5 72.5t-16 88.5t16 88.5t44.5 72.5t69 49t90.5 18q39 0 76.5 -14.5t66.5 -44.5t47.5 -76t19.5 -110h-352q1 -30 11.5 -56t28 -46t42.5 -31.5t55 -11.5q47 0 78 18t46 50h81q-21 -60 -74 -97t-128 -37zM255 380q-55 0 -90.5 -33.5
t-44.5 -87.5h266q-6 54 -42 87.5t-89 33.5zM406 688v-110h-77v110h77zM205 578h-77v110h77v-110z" />
    <glyph glyph-name="igrave" unicode="&#xec;" horiz-adv-x="217" 
d="M-74 711h112l108 -157h-72zM147 0h-77v430h77v-430z" />
    <glyph glyph-name="iacute" unicode="&#xed;" horiz-adv-x="217" 
d="M145 554h-72l98 157h112zM147 0h-77v430h77v-430z" />
    <glyph glyph-name="icircumflex" unicode="&#xee;" horiz-adv-x="217" 
d="M72 711h74l127 -157h-74l-90 95l-90 -95h-74zM147 0h-77v430h77v-430z" />
    <glyph glyph-name="idieresis" unicode="&#xef;" horiz-adv-x="217" 
d="M147 0h-77v430h77v-430zM249 688v-110h-77v110h77zM48 578h-77v110h77v-110z" />
    <glyph glyph-name="eth" unicode="&#xf0;" horiz-adv-x="542" 
d="M413 331q-8 56 -27.5 108.5t-54.5 93.5q-9 10 -18.5 19.5t-20.5 18.5l-104 -74l-27 37l93 66q-50 32 -114 52l19 68q47 -14 85.5 -34t70.5 -43l86 61l27 -37l-77 -54l31 -32q35 -41 56 -85.5t32.5 -88t15.5 -82.5t4 -69q0 -55 -13.5 -104t-41.5 -85.5t-71 -57.5t-101 -21
q-47 0 -87.5 17t-71 47t-48 72t-17.5 92q0 47 17 88.5t45.5 72t67 48.5t81.5 18q33 0 59.5 -9.5t46.5 -25t34 -36t22 -41.5h1zM266 54q34 0 61.5 13t47 35.5t30 52t10.5 61.5t-10.5 61.5t-30 51.5t-47 35t-61.5 13t-61.5 -13t-47 -35t-30 -51.5t-10.5 -61.5t10.5 -61.5
t30 -52t47 -35.5t61.5 -13z" />
    <glyph glyph-name="ntilde" unicode="&#xf1;" horiz-adv-x="504" 
d="M148 338q23 54 59.5 78.5t87.5 24.5q27 0 52.5 -8.5t46 -28t33 -50.5t12.5 -77v-277h-77v267q0 54 -24 81t-68 27q-54 0 -88.5 -42t-34.5 -129v-204h-77v430h77v-92h1v0zM306 643q35 0 43 41h65q-5 -30 -15.5 -50t-24.5 -31t-30 -15.5t-31 -4.5q-20 0 -35 6t-28 13.5
t-25 14t-24 6.5q-35 0 -41 -40h-66q4 31 15 50.5t25.5 30.5t30.5 15.5t31 4.5q19 0 33.5 -6.5t27.5 -14t24.5 -14t24.5 -6.5z" />
    <glyph glyph-name="ograve" unicode="&#xf2;" 
d="M265 54q34 0 61.5 13t47 35.5t30 52t10.5 61.5t-10.5 61.5t-30 52t-47 35.5t-61.5 13t-61.5 -13t-47 -35.5t-30 -52t-10.5 -61.5t10.5 -61.5t30 -52t47 -35.5t61.5 -13zM265 -12q-50 0 -91.5 18t-71.5 49t-47 72.5t-17 88.5t17 88.5t47 72.5t71.5 49t91.5 18q49 0 91 -18
t72 -49t47 -72.5t17 -88.5t-17 -88.5t-47 -72.5t-72 -49t-91 -18zM118 711h112l108 -157h-72z" />
    <glyph glyph-name="oacute" unicode="&#xf3;" 
d="M265 54q34 0 61.5 13t47 35.5t30 52t10.5 61.5t-10.5 61.5t-30 52t-47 35.5t-61.5 13t-61.5 -13t-47 -35.5t-30 -52t-10.5 -61.5t10.5 -61.5t30 -52t47 -35.5t61.5 -13zM265 -12q-50 0 -91.5 18t-71.5 49t-47 72.5t-17 88.5t17 88.5t47 72.5t71.5 49t91.5 18q49 0 91 -18
t72 -49t47 -72.5t17 -88.5t-17 -88.5t-47 -72.5t-72 -49t-91 -18zM265 554h-72l98 157h112z" />
    <glyph glyph-name="ocircumflex" unicode="&#xf4;" 
d="M265 54q34 0 61.5 13t47 35.5t30 52t10.5 61.5t-10.5 61.5t-30 52t-47 35.5t-61.5 13t-61.5 -13t-47 -35.5t-30 -52t-10.5 -61.5t10.5 -61.5t30 -52t47 -35.5t61.5 -13zM265 -12q-50 0 -91.5 18t-71.5 49t-47 72.5t-17 88.5t17 88.5t47 72.5t71.5 49t91.5 18q49 0 91 -18
t72 -49t47 -72.5t17 -88.5t-17 -88.5t-47 -72.5t-72 -49t-91 -18zM229 711h74l127 -157h-74l-90 95l-90 -95h-74z" />
    <glyph glyph-name="otilde" unicode="&#xf5;" 
d="M265 54q34 0 61.5 13t47 35.5t30 52t10.5 61.5t-10.5 61.5t-30 52t-47 35.5t-61.5 13t-61.5 -13t-47 -35.5t-30 -52t-10.5 -61.5t10.5 -61.5t30 -52t47 -35.5t61.5 -13zM265 -12q-50 0 -91.5 18t-71.5 49t-47 72.5t-17 88.5t17 88.5t47 72.5t71.5 49t91.5 18q49 0 91 -18
t72 -49t47 -72.5t17 -88.5t-17 -88.5t-47 -72.5t-72 -49t-91 -18zM317 643q35 0 43 41h65q-5 -30 -15.5 -50t-24.5 -31t-30 -15.5t-31 -4.5q-20 0 -35 6t-28 13.5t-25 14t-24 6.5q-35 0 -41 -40h-66q4 31 15 50.5t25.5 30.5t30.5 15.5t31 4.5q19 0 33.5 -6.5t27.5 -14
t24.5 -14t24.5 -6.5z" />
    <glyph glyph-name="odieresis" unicode="&#xf6;" 
d="M265 54q34 0 61.5 13t47 35.5t30 52t10.5 61.5t-10.5 61.5t-30 52t-47 35.5t-61.5 13t-61.5 -13t-47 -35.5t-30 -52t-10.5 -61.5t10.5 -61.5t30 -52t47 -35.5t61.5 -13zM265 -12q-50 0 -91.5 18t-71.5 49t-47 72.5t-17 88.5t17 88.5t47 72.5t71.5 49t91.5 18q49 0 91 -18
t72 -49t47 -72.5t17 -88.5t-17 -88.5t-47 -72.5t-72 -49t-91 -18zM404 688v-110h-77v110h77zM203 578h-77v110h77v-110z" />
    <glyph glyph-name="divide" unicode="&#xf7;" 
d="M50 248h430v-62h-430v62zM320 320h-110v110h110v-110zM320 0h-110v110h110v-110z" />
    <glyph glyph-name="oslash" unicode="&#xf8;" horiz-adv-x="540" 
d="M270 -12q-43 0 -80 13.5t-66 37.5l-51 -51l-31 30l51 51q-50 62 -50 147q0 47 17 88.5t47 72.5t71.5 49t91.5 18q43 0 80 -14t66 -38l51 51l31 -30l-52 -52q24 -29 37.5 -66t13.5 -79q0 -47 -17 -88.5t-47 -72.5t-72 -49t-91 -18zM121 216q0 -52 25 -94l220 220
q-19 17 -43 26.5t-53 9.5q-34 0 -61.5 -13t-47 -35.5t-30 -52t-10.5 -61.5zM270 54q34 0 61.5 13t47 35.5t30 52t10.5 61.5q0 52 -26 92l-219 -219q19 -17 43 -26t53 -9z" />
    <glyph glyph-name="ugrave" unicode="&#xf9;" horiz-adv-x="495" 
d="M205 -12q-26 0 -51.5 8.5t-45 28t-31.5 51t-12 76.5v278h77v-268q0 -52 22.5 -80t64.5 -28q53 0 86 43t33 128v205h77v-430h-77v91h-1q-44 -103 -142 -103zM97 711h112l108 -157h-72z" />
    <glyph glyph-name="uacute" unicode="&#xfa;" horiz-adv-x="495" 
d="M205 -12q-26 0 -51.5 8.5t-45 28t-31.5 51t-12 76.5v278h77v-268q0 -52 22.5 -80t64.5 -28q53 0 86 43t33 128v205h77v-430h-77v91h-1q-44 -103 -142 -103zM245 554h-72l98 157h112z" />
    <glyph glyph-name="ucircumflex" unicode="&#xfb;" horiz-adv-x="495" 
d="M205 -12q-26 0 -51.5 8.5t-45 28t-31.5 51t-12 76.5v278h77v-268q0 -52 22.5 -80t64.5 -28q53 0 86 43t33 128v205h77v-430h-77v91h-1q-44 -103 -142 -103zM208 711h74l127 -157h-74l-90 95l-90 -95h-74z" />
    <glyph glyph-name="udieresis" unicode="&#xfc;" horiz-adv-x="495" 
d="M205 -12q-26 0 -51.5 8.5t-45 28t-31.5 51t-12 76.5v278h77v-268q0 -52 22.5 -80t64.5 -28q53 0 86 43t33 128v205h77v-430h-77v91h-1q-44 -103 -142 -103zM384 688v-110h-77v110h77zM183 578h-77v110h77v-110z" />
    <glyph glyph-name="yacute" unicode="&#xfd;" horiz-adv-x="470" 
d="M197 0l-188 430h79l147 -340l147 340h79l-188 -430v-230h-76v230zM236 554h-72l98 157h112z" />
    <glyph glyph-name="thorn" unicode="&#xfe;" horiz-adv-x="526" 
d="M70 711h77v-360h1q6 12 18 28t29.5 30t41 23.5t53.5 9.5q34 0 69 -14.5t63.5 -43t46 -71t17.5 -98.5t-17.5 -98.5t-46 -71t-63.5 -43t-69 -14.5q-30 0 -53.5 9.5t-41 23.5t-29.5 30t-18 28h-1v-309h-77v941zM408 215q0 44 -12.5 74.5t-32 50t-43.5 28t-47 8.5t-46.5 -8.5
t-43 -28t-32 -50t-12.5 -74.5t12.5 -74.5t32 -50t43 -28t46.5 -8.5t47 8.5t43.5 28t32 50t12.5 74.5z" />
    <glyph glyph-name="ydieresis" unicode="&#xff;" horiz-adv-x="470" 
d="M197 0l-188 430h79l147 -340l147 340h79l-188 -430v-230h-76v230zM376 688v-110h-77v110h77zM175 578h-77v110h77v-110z" />
    <glyph glyph-name="Amacron" unicode="&#x100;" horiz-adv-x="642" 
d="M13 0l265 692h86l265 -692h-86l-77 208h-290l-77 -208h-86zM321 600l-119 -320h237zM190 753v67h260v-67h-260z" />
    <glyph glyph-name="amacron" unicode="&#x101;" horiz-adv-x="526" 
d="M236 -12q-35 0 -69.5 14.5t-63 43t-46 71t-17.5 98.5t17.5 98.5t46 71t63 43t69.5 14.5q30 0 53.5 -9.5t41 -23.5t29.5 -30t18 -28h1v79h77v-430h-77v79h-1q-6 -12 -18 -28t-29.5 -30t-41 -23.5t-53.5 -9.5zM253 54q23 0 46.5 8.5t43 28t32 50t12.5 74.5t-12.5 74.5
t-32 50t-43 28t-46.5 8.5t-47 -8.5t-43.5 -28t-32 -50t-12.5 -74.5t12.5 -74.5t32 -50t43.5 -28t47 -8.5zM142 600v67h260v-67h-260z" />
    <glyph glyph-name="Abreve" unicode="&#x102;" horiz-adv-x="642" 
d="M13 0l265 692h86l265 -692h-86l-77 208h-290l-77 -208h-86zM321 600l-119 -320h237zM321 739q-63 0 -100.5 33.5t-42.5 81.5h61q15 -64 82 -64t82 64h61q-5 -48 -42.5 -81.5t-100.5 -33.5z" />
    <glyph glyph-name="abreve" unicode="&#x103;" horiz-adv-x="526" 
d="M236 -12q-35 0 -69.5 14.5t-63 43t-46 71t-17.5 98.5t17.5 98.5t46 71t63 43t69.5 14.5q30 0 53.5 -9.5t41 -23.5t29.5 -30t18 -28h1v79h77v-430h-77v79h-1q-6 -12 -18 -28t-29.5 -30t-41 -23.5t-53.5 -9.5zM253 54q23 0 46.5 8.5t43 28t32 50t12.5 74.5t-12.5 74.5
t-32 50t-43 28t-46.5 8.5t-47 -8.5t-43.5 -28t-32 -50t-12.5 -74.5t12.5 -74.5t32 -50t43.5 -28t47 -8.5zM269 576q-63 0 -100.5 33.5t-42.5 81.5h61q15 -64 82 -64t82 64h61q-5 -48 -42.5 -81.5t-100.5 -33.5z" />
    <glyph glyph-name="Aogonek" unicode="&#x104;" horiz-adv-x="642" 
d="M629 0h-86l-77 208h-290l-77 -208h-86l265 692h86zM321 600l-119 -320h237zM629 0q-52 -25 -77.5 -56.5t-25.5 -62.5q0 -21 11.5 -37t39.5 -16q15 0 29.5 5.5t22.5 11.5v-63q-27 -18 -71 -18q-28 0 -48.5 9t-34 23.5t-20 33t-6.5 38.5q0 43 24.5 76t69.5 56h86z" />
    <glyph glyph-name="aogonek" unicode="&#x105;" horiz-adv-x="526" 
d="M236 -12q-35 0 -69.5 14.5t-63 43t-46 71t-17.5 98.5t17.5 98.5t46 71t63 43t69.5 14.5q30 0 53.5 -9.5t41 -23.5t29.5 -30t18 -28h1v79h77v-430h-77v79h-1q-6 -12 -18 -28t-29.5 -30t-41 -23.5t-53.5 -9.5zM253 54q23 0 46.5 8.5t43 28t32 50t12.5 74.5t-12.5 74.5
t-32 50t-43 28t-46.5 8.5t-47 -8.5t-43.5 -28t-32 -50t-12.5 -74.5t12.5 -74.5t32 -50t43.5 -28t47 -8.5zM456 0q-45 -25 -74 -50t-29 -56q0 -21 11.5 -35t39.5 -14q15 0 29.5 5.5t22.5 11.5v-60q-27 -18 -69 -18q-27 0 -47.5 8.5t-34 22.5t-20 32t-6.5 36q0 21 8 38
t21.5 31t31.5 25.5t39 22.5h77v0z" />
    <glyph glyph-name="Cacute" unicode="&#x106;" horiz-adv-x="746" 
d="M396 -12q-73 0 -137 27.5t-111.5 75.5t-75 113.5t-27.5 141.5t27.5 141.5t75 113.5t111.5 75t137 27q54 0 104.5 -15t93 -43.5t73.5 -70t46 -94.5h-89q-11 37 -34.5 65.5t-54.5 47.5t-67 28.5t-72 9.5q-54 0 -103 -21t-85.5 -59t-58 -90t-21.5 -115t21.5 -115.5t58 -90.5
t85.5 -59t103 -21q36 0 72 9.5t67 28.5t54.5 47.5t34.5 65.5h89q-15 -53 -46 -94.5t-73.5 -70t-93 -43.5t-104.5 -15zM408 743h-72l98 121h112z" />
    <glyph glyph-name="cacute" unicode="&#x107;" horiz-adv-x="497" 
d="M267 554h-72l98 157h112zM256 -12q-48 0 -88 18t-68.5 49t-44.5 72.5t-16 88.5t16 88.5t44.5 72.5t68.5 49t88 18q41 0 75.5 -12t61.5 -34t45 -51.5t27 -65.5h-76q-14 42 -47 69.5t-86 27.5q-33 0 -58.5 -13t-43.5 -35.5t-27.5 -52t-9.5 -61.5t9.5 -61.5t27.5 -52
t43.5 -35.5t58.5 -13q53 0 86 27.5t47 69.5h76q-9 -36 -27 -65.5t-45 -51.5t-61.5 -34t-75.5 -12z" />
    <glyph glyph-name="Ccircumflex" unicode="&#x108;" horiz-adv-x="746" 
d="M396 -12q-73 0 -137 27.5t-111.5 75.5t-75 113.5t-27.5 141.5t27.5 141.5t75 113.5t111.5 75t137 27q54 0 104.5 -15t93 -43.5t73.5 -70t46 -94.5h-89q-11 37 -34.5 65.5t-54.5 47.5t-67 28.5t-72 9.5q-54 0 -103 -21t-85.5 -59t-58 -90t-21.5 -115t21.5 -115.5t58 -90.5
t85.5 -59t103 -21q36 0 72 9.5t67 28.5t54.5 47.5t34.5 65.5h89q-15 -53 -46 -94.5t-73.5 -70t-93 -43.5t-104.5 -15zM365 864h74l127 -121h-74l-90 59l-90 -59h-74z" />
    <glyph glyph-name="ccircumflex" unicode="&#x109;" horiz-adv-x="497" 
d="M256 -12q-48 0 -88 18t-68.5 49t-44.5 72.5t-16 88.5t16 88.5t44.5 72.5t68.5 49t88 18q41 0 75.5 -12t61.5 -34t45 -51.5t27 -65.5h-76q-14 42 -47 69.5t-86 27.5q-33 0 -58.5 -13t-43.5 -35.5t-27.5 -52t-9.5 -61.5t9.5 -61.5t27.5 -52t43.5 -35.5t58.5 -13
q53 0 86 27.5t47 69.5h76q-9 -36 -27 -65.5t-45 -51.5t-61.5 -34t-75.5 -12zM224 711h74l127 -157h-74l-90 95l-90 -95h-74z" />
    <glyph glyph-name="Cdotaccent" unicode="&#x10a;" horiz-adv-x="746" 
d="M396 -12q-73 0 -137 27.5t-111.5 75.5t-75 113.5t-27.5 141.5t27.5 141.5t75 113.5t111.5 75t137 27q54 0 104.5 -15t93 -43.5t73.5 -70t46 -94.5h-89q-11 37 -34.5 65.5t-54.5 47.5t-67 28.5t-72 9.5q-54 0 -103 -21t-85.5 -59t-58 -90t-21.5 -115t21.5 -115.5t58 -90.5
t85.5 -59t103 -21q36 0 72 9.5t67 28.5t54.5 47.5t34.5 65.5h89q-15 -53 -46 -94.5t-73.5 -70t-93 -43.5t-104.5 -15zM443 743h-77v110h77v-110z" />
    <glyph glyph-name="cdotaccent" unicode="&#x10b;" horiz-adv-x="497" 
d="M256 -12q-48 0 -88 18t-68.5 49t-44.5 72.5t-16 88.5t16 88.5t44.5 72.5t68.5 49t88 18q41 0 75.5 -12t61.5 -34t45 -51.5t27 -65.5h-76q-14 42 -47 69.5t-86 27.5q-33 0 -58.5 -13t-43.5 -35.5t-27.5 -52t-9.5 -61.5t9.5 -61.5t27.5 -52t43.5 -35.5t58.5 -13
q53 0 86 27.5t47 69.5h76q-9 -36 -27 -65.5t-45 -51.5t-61.5 -34t-75.5 -12zM293 578h-77v110h77v-110z" />
    <glyph glyph-name="Ccaron" unicode="&#x10c;" horiz-adv-x="746" 
d="M396 -12q-73 0 -137 27.5t-111.5 75.5t-75 113.5t-27.5 141.5t27.5 141.5t75 113.5t111.5 75t137 27q54 0 104.5 -15t93 -43.5t73.5 -70t46 -94.5h-89q-11 37 -34.5 65.5t-54.5 47.5t-67 28.5t-72 9.5q-54 0 -103 -21t-85.5 -59t-58 -90t-21.5 -115t21.5 -115.5t58 -90.5
t85.5 -59t103 -21q36 0 72 9.5t67 28.5t54.5 47.5t34.5 65.5h89q-15 -53 -46 -94.5t-73.5 -70t-93 -43.5t-104.5 -15zM239 864h74l90 -59l90 59h74l-127 -121h-74z" />
    <glyph glyph-name="ccaron" unicode="&#x10d;" horiz-adv-x="497" 
d="M256 -12q-48 0 -88 18t-68.5 49t-44.5 72.5t-16 88.5t16 88.5t44.5 72.5t68.5 49t88 18q41 0 75.5 -12t61.5 -34t45 -51.5t27 -65.5h-76q-14 42 -47 69.5t-86 27.5q-33 0 -58.5 -13t-43.5 -35.5t-27.5 -52t-9.5 -61.5t9.5 -61.5t27.5 -52t43.5 -35.5t58.5 -13
q53 0 86 27.5t47 69.5h76q-9 -36 -27 -65.5t-45 -51.5t-61.5 -34t-75.5 -12zM97 711h74l90 -95l90 95h74l-127 -157h-74z" />
    <glyph glyph-name="Dcaron" unicode="&#x10e;" horiz-adv-x="692" 
d="M92 0v692h197q75 0 140 -25.5t113.5 -71.5t76 -109.5t27.5 -139.5t-27.5 -139.5t-76 -109.5t-113.5 -71.5t-140 -25.5h-197zM563 346q0 63 -21.5 114t-58.5 86.5t-87 54.5t-107 19h-116v-548h116q57 0 107 19t87 54.5t58.5 86.5t21.5 114zM170 864h74l90 -59l90 59h74
l-127 -121h-74z" />
    <glyph glyph-name="dcaron" unicode="&#x10f;" horiz-adv-x="550" 
d="M236 -12q-35 0 -69.5 14.5t-63 43t-46 71t-17.5 98.5t17.5 98.5t46 71t63 43t69.5 14.5q30 0 53.5 -9.5t41 -23.5t29.5 -30t18 -28h1v360h77v-711h-77v79h-1q-6 -12 -18 -28t-29.5 -30t-41 -23.5t-53.5 -9.5zM253 54q23 0 46.5 8.5t43 28t32 50t12.5 74.5t-12.5 74.5
t-32 50t-43 28t-46.5 8.5t-47 -8.5t-43.5 -28t-32 -50t-12.5 -74.5t12.5 -74.5t32 -50t43.5 -28t47 -8.5zM551 511h-50l30 200h90z" />
    <glyph glyph-name="Dcroat" unicode="&#x110;" horiz-adv-x="701" 
d="M101 0v320h-80v72h80v300h197q75 0 140 -25.5t113.5 -71.5t76 -109.5t27.5 -139.5t-27.5 -139.5t-76 -109.5t-113.5 -71.5t-140 -25.5h-197zM572 346q0 63 -21.5 114t-58.5 86.5t-87 54.5t-107 19h-116v-228h162v-72h-162v-248h116q57 0 107 19t87 54.5t58.5 86.5
t21.5 114z" />
    <glyph glyph-name="dcroat" unicode="&#x111;" horiz-adv-x="526" 
d="M236 -12q-35 0 -69.5 14.5t-63 43t-46 71t-17.5 98.5t17.5 98.5t46 71t63 43t69.5 14.5q30 0 53.5 -9.5t41 -23.5t29.5 -30t18 -28h1v168h-140v63h140v129h77v-129h80v-63h-80v-519h-77v79h-1q-6 -12 -18 -28t-29.5 -30t-41 -23.5t-53.5 -9.5zM253 54q23 0 46.5 8.5
t43 28t32 50t12.5 74.5t-12.5 74.5t-32 50t-43 28t-46.5 8.5t-47 -8.5t-43.5 -28t-32 -50t-12.5 -74.5t12.5 -74.5t32 -50t43.5 -28t47 -8.5z" />
    <glyph glyph-name="Emacron" unicode="&#x112;" horiz-adv-x="554" 
d="M92 692h412v-72h-331v-228h290v-72h-290v-248h331v-72h-412v692zM168 753v67h260v-67h-260z" />
    <glyph glyph-name="emacron" unicode="&#x113;" horiz-adv-x="506" 
d="M257 -12q-49 0 -89 18t-68.5 49t-44.5 72.5t-16 88.5t16 88.5t44.5 72.5t69 49t90.5 18q39 0 76.5 -14.5t66.5 -44.5t47.5 -76t19.5 -110h-352q1 -30 11.5 -56t28 -46t42.5 -31.5t55 -11.5q47 0 78 18t46 50h81q-21 -60 -74 -97t-128 -37zM255 380q-55 0 -90.5 -33.5
t-44.5 -87.5h266q-6 54 -42 87.5t-89 33.5zM137 600v67h260v-67h-260z" />
    <glyph glyph-name="Ebreve" unicode="&#x114;" horiz-adv-x="554" 
d="M92 692h412v-72h-331v-228h290v-72h-290v-248h331v-72h-412v692zM303 739q-63 0 -100.5 33.5t-42.5 81.5h61q15 -64 82 -64t82 64h61q-5 -48 -42.5 -81.5t-100.5 -33.5z" />
    <glyph glyph-name="ebreve" unicode="&#x115;" horiz-adv-x="506" 
d="M257 -12q-49 0 -89 18t-68.5 49t-44.5 72.5t-16 88.5t16 88.5t44.5 72.5t69 49t90.5 18q39 0 76.5 -14.5t66.5 -44.5t47.5 -76t19.5 -110h-352q1 -30 11.5 -56t28 -46t42.5 -31.5t55 -11.5q47 0 78 18t46 50h81q-21 -60 -74 -97t-128 -37zM255 380q-55 0 -90.5 -33.5
t-44.5 -87.5h266q-6 54 -42 87.5t-89 33.5zM267 576q-63 0 -100.5 33.5t-42.5 81.5h61q15 -64 82 -64t82 64h61q-5 -48 -42.5 -81.5t-100.5 -33.5z" />
    <glyph glyph-name="Edotaccent" unicode="&#x116;" horiz-adv-x="554" 
d="M92 692h412v-72h-331v-228h290v-72h-290v-248h331v-72h-412v692zM342 743h-77v110h77v-110z" />
    <glyph glyph-name="edotaccent" unicode="&#x117;" horiz-adv-x="506" 
d="M257 -12q-49 0 -89 18t-68.5 49t-44.5 72.5t-16 88.5t16 88.5t44.5 72.5t69 49t90.5 18q39 0 76.5 -14.5t66.5 -44.5t47.5 -76t19.5 -110h-352q1 -30 11.5 -56t28 -46t42.5 -31.5t55 -11.5q47 0 78 18t46 50h81q-21 -60 -74 -97t-128 -37zM255 380q-55 0 -90.5 -33.5
t-44.5 -87.5h266q-6 54 -42 87.5t-89 33.5zM296 578h-77v110h77v-110z" />
    <glyph glyph-name="Eogonek" unicode="&#x118;" horiz-adv-x="554" 
d="M92 692h412v-72h-331v-228h290v-72h-290v-248h331v-72h-412v692zM504 0q-52 -25 -77.5 -56.5t-25.5 -62.5q0 -21 11.5 -37t39.5 -16q15 0 29.5 5.5t22.5 11.5v-63q-27 -18 -71 -18q-28 0 -48 9t-33 23.5t-19.5 33t-6.5 38.5q0 43 26 76t71 56h81v0z" />
    <glyph glyph-name="eogonek" unicode="&#x119;" horiz-adv-x="506" 
d="M257 -12q-49 0 -89 18t-68.5 49t-44.5 72.5t-16 88.5t16 88.5t44.5 72.5t69 49t90.5 18q39 0 76.5 -14.5t66.5 -44.5t47.5 -76t19.5 -110h-352q1 -30 11.5 -56t28 -46t42.5 -31.5t55 -11.5q47 0 78 18t46 50h81q-21 -60 -74 -97t-128 -37zM255 380q-55 0 -90.5 -33.5
t-44.5 -87.5h266q-6 54 -42 87.5t-89 33.5zM333 0q-45 -25 -74 -50t-29 -56q0 -21 11.5 -35t39.5 -14q15 0 29.5 5.5t22.5 11.5v-60q-27 -18 -69 -18q-27 0 -47.5 8.5t-34 22.5t-20 32t-6.5 36q0 21 8 38t21.5 31t31.5 25.5t39 22.5h77v0z" />
    <glyph glyph-name="Ecaron" unicode="&#x11a;" horiz-adv-x="554" 
d="M92 692h412v-72h-331v-228h290v-72h-290v-248h331v-72h-412v692zM139 864h74l90 -59l90 59h74l-127 -121h-74z" />
    <glyph glyph-name="ecaron" unicode="&#x11b;" horiz-adv-x="506" 
d="M257 -12q-49 0 -89 18t-68.5 49t-44.5 72.5t-16 88.5t16 88.5t44.5 72.5t69 49t90.5 18q39 0 76.5 -14.5t66.5 -44.5t47.5 -76t19.5 -110h-352q1 -30 11.5 -56t28 -46t42.5 -31.5t55 -11.5q47 0 78 18t46 50h81q-21 -60 -74 -97t-128 -37zM255 380q-55 0 -90.5 -33.5
t-44.5 -87.5h266q-6 54 -42 87.5t-89 33.5zM103 711h74l90 -95l90 95h74l-127 -157h-74z" />
    <glyph glyph-name="Gcircumflex" unicode="&#x11c;" horiz-adv-x="768" 
d="M386 -12q-75 0 -137.5 27.5t-107.5 75.5t-70.5 113.5t-25.5 141.5t27.5 141.5t75.5 113.5t112 75t137 27q54 0 102 -15t88 -43t69.5 -67t46.5 -88h-89q-13 33 -35 59t-50.5 44.5t-62 28t-69.5 9.5q-54 0 -103 -21t-86 -59t-58.5 -90t-21.5 -115t19 -115.5t54.5 -90.5
t85 -59t110.5 -21q55 0 98 13.5t72.5 36.5t45 53.5t15.5 65.5v55h-182v72h263v-356h-78v128h-1q-9 -25 -28.5 -50t-50 -45t-72 -32.5t-93.5 -12.5zM366 864h74l127 -121h-74l-90 59l-90 -59h-74z" />
    <glyph glyph-name="gcircumflex" unicode="&#x11d;" horiz-adv-x="519" 
d="M241 58q-42 0 -78 15t-63 41.5t-42 61.5t-15 75t15 75t42 61.5t63 41.5t78 15q39 0 75 -14h218l-55 -55h-86q22 -26 34 -57.5t12 -66.5q0 -57 -29 -102.5t-77 -69.5q70 -17 103.5 -59.5t33.5 -90.5q0 -38 -16.5 -69.5t-44.5 -54t-66 -35t-80 -12.5q-50 0 -92 17t-72 48.5
t-47.5 76t-18.5 100.5h79q1 -50 15 -84t35.5 -54.5t48 -29t51.5 -8.5q32 0 57 9t42.5 24.5t26.5 35.5t9 43q0 22 -9.5 44t-28 39.5t-45.5 28t-61 10.5h1h-13zM241 122q57 0 89.5 37t32.5 92t-32.5 92t-89.5 37t-89.5 -37t-32.5 -92t32.5 -92t89.5 -37zM226 711h74l127 -157
h-74l-90 95l-90 -95h-74z" />
    <glyph glyph-name="Gbreve" unicode="&#x11e;" horiz-adv-x="768" 
d="M386 -12q-75 0 -137.5 27.5t-107.5 75.5t-70.5 113.5t-25.5 141.5t27.5 141.5t75.5 113.5t112 75t137 27q54 0 102 -15t88 -43t69.5 -67t46.5 -88h-89q-13 33 -35 59t-50.5 44.5t-62 28t-69.5 9.5q-54 0 -103 -21t-86 -59t-58.5 -90t-21.5 -115t19 -115.5t54.5 -90.5
t85 -59t110.5 -21q55 0 98 13.5t72.5 36.5t45 53.5t15.5 65.5v55h-182v72h263v-356h-78v128h-1q-9 -25 -28.5 -50t-50 -45t-72 -32.5t-93.5 -12.5zM402 739q-63 0 -100.5 33.5t-42.5 81.5h61q15 -64 82 -64t82 64h61q-5 -48 -42.5 -81.5t-100.5 -33.5z" />
    <glyph glyph-name="gbreve" unicode="&#x11f;" horiz-adv-x="519" 
d="M241 58q-42 0 -78 15t-63 41.5t-42 61.5t-15 75t15 75t42 61.5t63 41.5t78 15q39 0 75 -14h218l-55 -55h-86q22 -26 34 -57.5t12 -66.5q0 -57 -29 -102.5t-77 -69.5q70 -17 103.5 -59.5t33.5 -90.5q0 -38 -16.5 -69.5t-44.5 -54t-66 -35t-80 -12.5q-50 0 -92 17t-72 48.5
t-47.5 76t-18.5 100.5h79q1 -50 15 -84t35.5 -54.5t48 -29t51.5 -8.5q32 0 57 9t42.5 24.5t26.5 35.5t9 43q0 22 -9.5 44t-28 39.5t-45.5 28t-61 10.5h1h-13zM241 122q57 0 89.5 37t32.5 92t-32.5 92t-89.5 37t-89.5 -37t-32.5 -92t32.5 -92t89.5 -37zM262 576
q-63 0 -100.5 33.5t-42.5 81.5h61q15 -64 82 -64t82 64h61q-5 -48 -42.5 -81.5t-100.5 -33.5z" />
    <glyph glyph-name="Gdotaccent" unicode="&#x120;" horiz-adv-x="768" 
d="M386 -12q-75 0 -137.5 27.5t-107.5 75.5t-70.5 113.5t-25.5 141.5t27.5 141.5t75.5 113.5t112 75t137 27q54 0 102 -15t88 -43t69.5 -67t46.5 -88h-89q-13 33 -35 59t-50.5 44.5t-62 28t-69.5 9.5q-54 0 -103 -21t-86 -59t-58.5 -90t-21.5 -115t19 -115.5t54.5 -90.5
t85 -59t110.5 -21q55 0 98 13.5t72.5 36.5t45 53.5t15.5 65.5v55h-182v72h263v-356h-78v128h-1q-9 -25 -28.5 -50t-50 -45t-72 -32.5t-93.5 -12.5zM441 743h-77v110h77v-110z" />
    <glyph glyph-name="gdotaccent" unicode="&#x121;" horiz-adv-x="519" 
d="M241 58q-42 0 -78 15t-63 41.5t-42 61.5t-15 75t15 75t42 61.5t63 41.5t78 15q39 0 75 -14h218l-55 -55h-86q22 -26 34 -57.5t12 -66.5q0 -57 -29 -102.5t-77 -69.5q70 -17 103.5 -59.5t33.5 -90.5q0 -38 -16.5 -69.5t-44.5 -54t-66 -35t-80 -12.5q-50 0 -92 17t-72 48.5
t-47.5 76t-18.5 100.5h79q1 -50 15 -84t35.5 -54.5t48 -29t51.5 -8.5q32 0 57 9t42.5 24.5t26.5 35.5t9 43q0 22 -9.5 44t-28 39.5t-45.5 28t-61 10.5h1h-13zM241 122q57 0 89.5 37t32.5 92t-32.5 92t-89.5 37t-89.5 -37t-32.5 -92t32.5 -92t89.5 -37zM302 578h-77v110h77
v-110z" />
    <glyph glyph-name="Gcommaaccent" unicode="&#x122;" horiz-adv-x="768" 
d="M386 -12q-75 0 -137.5 27.5t-107.5 75.5t-70.5 113.5t-25.5 141.5t27.5 141.5t75.5 113.5t112 75t137 27q54 0 102 -15t88 -43t69.5 -67t46.5 -88h-89q-13 33 -35 59t-50.5 44.5t-62 28t-69.5 9.5q-54 0 -103 -21t-86 -59t-58.5 -90t-21.5 -115t19 -115.5t54.5 -90.5
t85 -59t110.5 -21q55 0 98 13.5t72.5 36.5t45 53.5t15.5 65.5v55h-182v72h263v-356h-78v128h-1q-9 -25 -28.5 -50t-50 -45t-72 -32.5t-93.5 -12.5zM384 -165h-39v95h92v-95l-49 -97h-53z" />
    <glyph glyph-name="gcommaaccent" unicode="&#x123;" horiz-adv-x="519" 
d="M241 58q-42 0 -78 15t-63 41.5t-42 61.5t-15 75t15 75t42 61.5t63 41.5t78 15q39 0 75 -14h218l-55 -55h-86q22 -26 34 -57.5t12 -66.5q0 -57 -29 -102.5t-77 -69.5q70 -17 103.5 -59.5t33.5 -90.5q0 -38 -16.5 -69.5t-44.5 -54t-66 -35t-80 -12.5q-50 0 -92 17t-72 48.5
t-47.5 76t-18.5 100.5h79q1 -50 15 -84t35.5 -54.5t48 -29t51.5 -8.5q32 0 57 9t42.5 24.5t26.5 35.5t9 43q0 22 -9.5 44t-28 39.5t-45.5 28t-61 10.5h1h-13zM241 122q57 0 89.5 37t32.5 92t-32.5 92t-89.5 37t-89.5 -37t-32.5 -92t32.5 -92t89.5 -37zM217 649l49 97h53
l-49 -97h39v-95h-92v95z" />
    <glyph glyph-name="Hcircumflex" unicode="&#x124;" horiz-adv-x="727" 
d="M554 320h-381v-320h-81v692h81v-300h381v300h81v-692h-81v320zM327 864h74l127 -121h-74l-90 59l-90 -59h-74z" />
    <glyph glyph-name="hcircumflex" unicode="&#x125;" horiz-adv-x="504" 
d="M148 338q23 54 59.5 78.5t87.5 24.5q27 0 52.5 -8.5t46 -28t33 -50.5t12.5 -77v-277h-77v267q0 54 -24 81t-68 27q-54 0 -88.5 -42t-34.5 -129v-204h-77v711h77v-373h1v0zM74 864h74l127 -121h-74l-90 59l-90 -59h-74z" />
    <glyph glyph-name="Hbar" unicode="&#x126;" horiz-adv-x="747" 
d="M564 320h-381v-320h-81v497h-80v70h80v125h81v-125h381v125h81v-125h80v-70h-80v-497h-81v320zM564 392v105h-381v-105h381z" />
    <glyph glyph-name="hbar" unicode="&#x127;" horiz-adv-x="504" 
d="M148 338q23 54 59.5 78.5t87.5 24.5q27 0 52.5 -8.5t46 -28t33 -50.5t12.5 -77v-277h-77v267q0 54 -24 81t-68 27q-54 0 -88.5 -42t-34.5 -129v-204h-77v519h-80v63h80v129h77v-129h143v-63h-143v-181h1v0z" />
    <glyph glyph-name="Itilde" unicode="&#x128;" horiz-adv-x="265" 
d="M173 0h-81v692h81v-692zM186 816q35 0 43 41h65q-5 -30 -15.5 -50t-24.5 -31t-30 -15.5t-31 -4.5q-20 0 -35 6t-28 13.5t-25 14t-24 6.5q-35 0 -41 -40h-66q4 31 15 50.5t25.5 30.5t30.5 15.5t31 4.5q19 0 33.5 -6.5t27.5 -14t24.5 -14t24.5 -6.5z" />
    <glyph glyph-name="itilde" unicode="&#x129;" horiz-adv-x="217" 
d="M147 0h-77v430h77v-430zM162 643q35 0 43 41h65q-5 -30 -15.5 -50t-24.5 -31t-30 -15.5t-31 -4.5q-20 0 -35 6t-28 13.5t-25 14t-24 6.5q-35 0 -41 -40h-66q4 31 15 50.5t25.5 30.5t30.5 15.5t31 4.5q19 0 33.5 -6.5t27.5 -14t24.5 -14t24.5 -6.5z" />
    <glyph glyph-name="Imacron" unicode="&#x12a;" horiz-adv-x="265" 
d="M173 0h-81v692h81v-692zM4 753v67h260v-67h-260z" />
    <glyph glyph-name="imacron" unicode="&#x12b;" horiz-adv-x="217" 
d="M-21 600v67h260v-67h-260zM147 0h-77v430h77v-430z" />
    <glyph glyph-name="Ibreve" unicode="&#x12c;" horiz-adv-x="265" 
d="M173 0h-81v692h81v-692zM134 739q-63 0 -100.5 33.5t-42.5 81.5h61q15 -64 82 -64t82 64h61q-5 -48 -42.5 -81.5t-100.5 -33.5z" />
    <glyph glyph-name="ibreve" unicode="&#x12d;" horiz-adv-x="217" 
d="M109 576q-63 0 -100.5 33.5t-42.5 81.5h61q15 -64 82 -64t82 64h61q-5 -48 -42.5 -81.5t-100.5 -33.5zM147 0h-77v430h77v-430z" />
    <glyph glyph-name="Iogonek" unicode="&#x12e;" horiz-adv-x="265" 
d="M173 0h-81v692h81v-692zM174 0q-52 -25 -77.5 -56.5t-25.5 -62.5q0 -21 11.5 -37t39.5 -16q15 0 29.5 5.5t22.5 11.5v-63q-27 -18 -71 -18q-28 0 -48 9t-33 23.5t-19.5 33t-6.5 38.5q0 43 26 76t71 56h81v0z" />
    <glyph glyph-name="iogonek" unicode="&#x12f;" horiz-adv-x="217" 
d="M147 0h-77v430h77v-430zM148 0q-45 -25 -74 -50t-29 -56q0 -21 11.5 -35t39.5 -14q15 0 29.5 5.5t22.5 11.5v-60q-27 -18 -69 -18q-27 0 -47.5 8.5t-34 22.5t-20 32t-6.5 36q0 21 8 38t21.5 31t31.5 25.5t39 22.5h77v0zM147 579h-77v110h77v-110z" />
    <glyph glyph-name="Idotaccent" unicode="&#x130;" horiz-adv-x="265" 
d="M172 743h-77v110h77v-110zM173 0h-81v692h81v-692z" />
    <glyph glyph-name="dotlessi" unicode="&#x131;" horiz-adv-x="217" 
d="M147 0h-77v430h77v-430z" />
    <glyph glyph-name="Jcircumflex" unicode="&#x134;" horiz-adv-x="509" 
d="M222 -12q-45 0 -82.5 14.5t-64.5 41t-42 64t-15 83.5h80q0 -35 9.5 -60t26 -41t39 -23t48.5 -7q52 0 87 29.5t35 89.5v513h81v-499q0 -46 -14.5 -83.5t-41 -64.5t-64 -42t-82.5 -15zM346 864h74l127 -121h-74l-90 59l-90 -59h-74z" />
    <glyph glyph-name="jcircumflex" unicode="&#x135;" horiz-adv-x="217" 
d="M72 711h74l127 -157h-74l-90 95l-90 -95h-74zM70 -242v672h77v-595l-76 -77h-1z" />
    <glyph glyph-name="Kcommaaccent" unicode="&#x136;" horiz-adv-x="582" 
d="M173 0h-81v692h81v-692zM184 347v2l292 343h97l-291 -341l298 -351h-102zM302 -165h-39v95h92v-95l-49 -97h-53z" />
    <glyph glyph-name="kcommaaccent" unicode="&#x137;" horiz-adv-x="459" 
d="M147 0h-77v711h77v-711zM348 430h96l-190 -203l201 -227h-97l-200 226v1zM229 -165h-39v95h92v-95l-49 -97h-53z" />
    <glyph glyph-name="Lacute" unicode="&#x139;" horiz-adv-x="502" 
d="M92 692h81v-620h317v-72h-398v692zM165 743h-72l98 121h112z" />
    <glyph glyph-name="lacute" unicode="&#x13a;" horiz-adv-x="217" 
d="M147 0h-77v711h77v-711zM145 743h-72l98 121h112z" />
    <glyph glyph-name="Lcommaaccent" unicode="&#x13b;" horiz-adv-x="502" 
d="M92 692h81v-620h317v-72h-398v692zM284 -165h-39v95h92v-95l-49 -97h-53z" />
    <glyph glyph-name="lcommaaccent" unicode="&#x13c;" horiz-adv-x="217" 
d="M147 0h-77v711h77v-711zM101 -165h-39v95h92v-95l-49 -97h-53z" />
    <glyph glyph-name="Lcaron" unicode="&#x13d;" horiz-adv-x="506" 
d="M92 692h81v-620h317v-72h-398v692zM357 493h-50l30 200h90z" />
    <glyph glyph-name="lcaron" unicode="&#x13e;" horiz-adv-x="241" 
d="M147 0h-77v711h77v-711zM243 511h-50l30 200h90z" />
    <glyph glyph-name="Ldot" unicode="&#x13f;" horiz-adv-x="508" 
d="M428 331h-77v110h77v-110zM92 692h81v-620h317v-72h-398v692z" />
    <glyph glyph-name="ldot" unicode="&#x140;" horiz-adv-x="296" 
d="M296 307h-77v110h77v-110zM147 0h-77v711h77v-711z" />
    <glyph glyph-name="Lslash" unicode="&#x141;" horiz-adv-x="518" 
d="M27 286l80 56v350h81v-294l187 131v-81l-187 -131v-245h317v-72h-398v261l-80 -56v81z" />
    <glyph glyph-name="lslash" unicode="&#x142;" horiz-adv-x="289" 
d="M191 440l80 58v-75l-80 -58v-365h-77v309l-80 -58v75l80 58v327h77v-271z" />
    <glyph glyph-name="Nacute" unicode="&#x143;" horiz-adv-x="706" 
d="M92 0v692h83l358 -562v562h81v-692h-83l-358 563v-563h-81zM381 743h-72l98 121h112z" />
    <glyph glyph-name="nacute" unicode="&#x144;" horiz-adv-x="504" 
d="M148 338q23 54 59.5 78.5t87.5 24.5q27 0 52.5 -8.5t46 -28t33 -50.5t12.5 -77v-277h-77v267q0 54 -24 81t-68 27q-54 0 -88.5 -42t-34.5 -129v-204h-77v430h77v-92h1v0zM276 554h-72l98 157h112z" />
    <glyph glyph-name="Ncommaaccent" unicode="&#x145;" horiz-adv-x="706" 
d="M92 0v692h83l358 -562v562h81v-692h-83l-358 563v-563h-81zM346 -165h-39v95h92v-95l-49 -97h-53z" />
    <glyph glyph-name="ncommaaccent" unicode="&#x146;" horiz-adv-x="504" 
d="M148 338q23 54 59.5 78.5t87.5 24.5q27 0 52.5 -8.5t46 -28t33 -50.5t12.5 -77v-277h-77v267q0 54 -24 81t-68 27q-54 0 -88.5 -42t-34.5 -129v-204h-77v430h77v-92h1v0zM248 -165h-39v95h92v-95l-49 -97h-53z" />
    <glyph glyph-name="Ncaron" unicode="&#x147;" horiz-adv-x="706" 
d="M92 0v692h83l358 -562v562h81v-692h-83l-358 563v-563h-81zM189 864h74l90 -59l90 59h74l-127 -121h-74z" />
    <glyph glyph-name="ncaron" unicode="&#x148;" horiz-adv-x="504" 
d="M148 338q23 54 59.5 78.5t87.5 24.5q27 0 52.5 -8.5t46 -28t33 -50.5t12.5 -77v-277h-77v267q0 54 -24 81t-68 27q-54 0 -88.5 -42t-34.5 -129v-204h-77v430h77v-92h1v0zM100 711h74l90 -95l90 95h74l-127 -157h-74z" />
    <glyph glyph-name="Eng" unicode="&#x14a;" horiz-adv-x="706" 
d="M614 692v-857l-76 -77h-5v239l-360 560v-557h-81v692h83l358 -556v556h81z" />
    <glyph glyph-name="eng" unicode="&#x14b;" horiz-adv-x="504" 
d="M295 441q27 0 52.5 -8.5t46 -28t33 -50.5t12.5 -77v-442l-76 -77h-1v509q0 54 -24 81t-68 27q-54 0 -88.5 -42t-34.5 -129v-204h-77v430h77v-92h1q23 54 59.5 78.5t87.5 24.5z" />
    <glyph glyph-name="Omacron" unicode="&#x14c;" horiz-adv-x="804" 
d="M759 346q0 -76 -27.5 -141.5t-76 -113.5t-113.5 -75.5t-140 -27.5t-140 27.5t-113.5 75.5t-76 113.5t-27.5 141.5t27.5 141.5t76 113.5t113.5 75t140 27t140 -27t113.5 -75t76 -113.5t27.5 -141.5zM676 346q0 63 -21.5 115t-59 90t-87.5 59t-106 21t-106 -21t-87.5 -59
t-59 -90t-21.5 -115t21.5 -115.5t59 -90.5t87.5 -59t106 -21t106 21t87.5 59t59 90.5t21.5 115.5zM272 753v67h260v-67h-260z" />
    <glyph glyph-name="omacron" unicode="&#x14d;" 
d="M265 54q34 0 61.5 13t47 35.5t30 52t10.5 61.5t-10.5 61.5t-30 52t-47 35.5t-61.5 13t-61.5 -13t-47 -35.5t-30 -52t-10.5 -61.5t10.5 -61.5t30 -52t47 -35.5t61.5 -13zM265 -12q-50 0 -91.5 18t-71.5 49t-47 72.5t-17 88.5t17 88.5t47 72.5t71.5 49t91.5 18q49 0 91 -18
t72 -49t47 -72.5t17 -88.5t-17 -88.5t-47 -72.5t-72 -49t-91 -18zM135 600v67h260v-67h-260z" />
    <glyph glyph-name="Obreve" unicode="&#x14e;" horiz-adv-x="804" 
d="M759 346q0 -76 -27.5 -141.5t-76 -113.5t-113.5 -75.5t-140 -27.5t-140 27.5t-113.5 75.5t-76 113.5t-27.5 141.5t27.5 141.5t76 113.5t113.5 75t140 27t140 -27t113.5 -75t76 -113.5t27.5 -141.5zM676 346q0 63 -21.5 115t-59 90t-87.5 59t-106 21t-106 -21t-87.5 -59
t-59 -90t-21.5 -115t21.5 -115.5t59 -90.5t87.5 -59t106 -21t106 21t87.5 59t59 90.5t21.5 115.5zM403 739q-63 0 -100.5 33.5t-42.5 81.5h61q15 -64 82 -64t82 64h61q-5 -48 -42.5 -81.5t-100.5 -33.5z" />
    <glyph glyph-name="obreve" unicode="&#x14f;" 
d="M265 54q34 0 61.5 13t47 35.5t30 52t10.5 61.5t-10.5 61.5t-30 52t-47 35.5t-61.5 13t-61.5 -13t-47 -35.5t-30 -52t-10.5 -61.5t10.5 -61.5t30 -52t47 -35.5t61.5 -13zM265 -12q-50 0 -91.5 18t-71.5 49t-47 72.5t-17 88.5t17 88.5t47 72.5t71.5 49t91.5 18q49 0 91 -18
t72 -49t47 -72.5t17 -88.5t-17 -88.5t-47 -72.5t-72 -49t-91 -18zM265 576q-63 0 -100.5 33.5t-42.5 81.5h61q15 -64 82 -64t82 64h61q-5 -48 -42.5 -81.5t-100.5 -33.5z" />
    <glyph glyph-name="Ohungarumlaut" unicode="&#x150;" horiz-adv-x="804" 
d="M759 346q0 -76 -27.5 -141.5t-76 -113.5t-113.5 -75.5t-140 -27.5t-140 27.5t-113.5 75.5t-76 113.5t-27.5 141.5t27.5 141.5t76 113.5t113.5 75t140 27t140 -27t113.5 -75t76 -113.5t27.5 -141.5zM676 346q0 63 -21.5 115t-59 90t-87.5 59t-106 21t-106 -21t-87.5 -59
t-59 -90t-21.5 -115t21.5 -115.5t59 -90.5t87.5 -59t106 -21t106 21t87.5 59t59 90.5t21.5 115.5zM546 864h102l-138 -121h-62zM384 864h102l-138 -121h-62z" />
    <glyph glyph-name="ohungarumlaut" unicode="&#x151;" 
d="M265 54q34 0 61.5 13t47 35.5t30 52t10.5 61.5t-10.5 61.5t-30 52t-47 35.5t-61.5 13t-61.5 -13t-47 -35.5t-30 -52t-10.5 -61.5t10.5 -61.5t30 -52t47 -35.5t61.5 -13zM265 -12q-50 0 -91.5 18t-71.5 49t-47 72.5t-17 88.5t17 88.5t47 72.5t71.5 49t91.5 18q49 0 91 -18
t72 -49t47 -72.5t17 -88.5t-17 -88.5t-47 -72.5t-72 -49t-91 -18zM352 554h-62l98 157h102zM200 554h-62l98 157h102z" />
    <glyph glyph-name="OE" unicode="&#x152;" horiz-adv-x="1131" 
d="M676 121q-47 -62 -117.5 -97.5t-156.5 -35.5q-75 0 -140 27.5t-113.5 75.5t-76 113.5t-27.5 141.5t27.5 141.5t76 113.5t113.5 75t140 27q86 0 156.5 -35.5t117.5 -97.5v122h405v-72h-331v-228h290v-72h-290v-248h331v-72h-405v121zM676 346q0 63 -21.5 115t-59 90
t-87.5 59t-106 21t-106 -21t-87.5 -59t-59 -90t-21.5 -115t21.5 -115.5t59 -90.5t87.5 -59t106 -21t106 21t87.5 59t59 90.5t21.5 115.5z" />
    <glyph glyph-name="oe" unicode="&#x153;" horiz-adv-x="875" 
d="M265 -12q-50 0 -91.5 18t-71.5 49t-47 72.5t-17 88.5t17 88.5t47 72.5t71.5 49t91.5 18q63 0 109.5 -28t74.5 -74q26 46 71 74t108 28q39 0 76.5 -14.5t66.5 -44.5t47.5 -76t19.5 -110h-352q1 -30 11.5 -56t28 -46t42.5 -31.5t55 -11.5q47 0 78 18t46 50h81
q-21 -60 -74 -97t-128 -37q-62 0 -106.5 27.5t-70.5 74.5q-28 -47 -74.5 -74.5t-109.5 -27.5zM265 54q34 0 61.5 13t47 35.5t30 52t10.5 61.5t-10.5 61.5t-30 52t-47 35.5t-61.5 13t-61.5 -13t-47 -35.5t-30 -52t-10.5 -61.5t10.5 -61.5t30 -52t47 -35.5t61.5 -13zM624 380
q-55 0 -90.5 -33.5t-44.5 -87.5h266q-6 54 -42 87.5t-89 33.5z" />
    <glyph glyph-name="Racute" unicode="&#x154;" horiz-adv-x="609" 
d="M285 318h-112v-318h-81v692h216q51 0 93 -12t71.5 -35.5t46 -58.5t16.5 -81q0 -77 -43.5 -122.5t-118.5 -59.5l213 -323h-92zM311 390q75 0 109 29t34 86t-34 86t-109 29h-138v-230h138zM318 743h-72l98 121h112z" />
    <glyph glyph-name="racute" unicode="&#x155;" horiz-adv-x="327" 
d="M148 329q23 60 63 84t96 24h6v-78h-33q-28 0 -52 -6.5t-42 -23.5t-28.5 -46t-10.5 -75v-208h-77v430h77v-101h1v0zM174 554h-72l98 157h112z" />
    <glyph glyph-name="Rcommaaccent" unicode="&#x156;" horiz-adv-x="609" 
d="M285 318h-112v-318h-81v692h216q51 0 93 -12t71.5 -35.5t46 -58.5t16.5 -81q0 -77 -43.5 -122.5t-118.5 -59.5l213 -323h-92zM311 390q75 0 109 29t34 86t-34 86t-109 29h-138v-230h138zM308 -165h-39v95h92v-95l-49 -97h-53z" />
    <glyph glyph-name="rcommaaccent" unicode="&#x157;" horiz-adv-x="327" 
d="M148 329q23 60 63 84t96 24h6v-78h-33q-28 0 -52 -6.5t-42 -23.5t-28.5 -46t-10.5 -75v-208h-77v430h77v-101h1v0zM102 -165h-39v95h92v-95l-49 -97h-53z" />
    <glyph glyph-name="Rcaron" unicode="&#x158;" horiz-adv-x="609" 
d="M285 318h-112v-318h-81v692h216q51 0 93 -12t71.5 -35.5t46 -58.5t16.5 -81q0 -77 -43.5 -122.5t-118.5 -59.5l213 -323h-92zM311 390q75 0 109 29t34 86t-34 86t-109 29h-138v-230h138zM145 864h74l90 -59l90 59h74l-127 -121h-74z" />
    <glyph glyph-name="rcaron" unicode="&#x159;" horiz-adv-x="327" 
d="M148 329q23 60 63 84t96 24h6v-78h-33q-28 0 -52 -6.5t-42 -23.5t-28.5 -46t-10.5 -75v-208h-77v430h77v-101h1v0zM37 711h74l90 -95l90 95h74l-127 -157h-74z" />
    <glyph glyph-name="Sacute" unicode="&#x15a;" horiz-adv-x="517" 
d="M261 -12q-56 0 -97.5 20t-68.5 50t-40.5 64.5t-14.5 64.5h86q1 -23 10.5 -45.5t26.5 -41.5t42 -30.5t58 -11.5t57.5 8.5t40.5 23.5t24 34.5t8 41.5q0 44 -30.5 79t-88.5 58l-57 23q-157 64 -157 200q0 39 14.5 71.5t40 56t61.5 36.5t80 13q37 0 70.5 -10.5t60.5 -32.5
t45 -56.5t26 -82.5h-84q-10 58 -43.5 85t-78.5 27q-20 0 -40 -7t-36 -20.5t-25.5 -33.5t-9.5 -45q0 -41 26 -72t74 -51l66 -27q36 -15 67 -35t53 -45.5t34.5 -57t12.5 -70.5q0 -36 -13.5 -69t-40.5 -57.5t-67 -39.5t-92 -15zM271 743h-72l98 121h112z" />
    <glyph glyph-name="sacute" unicode="&#x15b;" horiz-adv-x="381" 
d="M197 -12q-30 0 -58.5 8.5t-50.5 26t-36.5 43.5t-16.5 61h74q3 -31 23.5 -54t65.5 -23q37 0 54.5 16.5t17.5 39.5t-17.5 39t-55.5 32l-49 20q-51 20 -75 53.5t-24 72.5q0 53 37.5 86.5t100.5 33.5q23 0 47 -7.5t44 -23.5t34.5 -40t17.5 -58h-73q-6 34 -25 50t-46 16
q-31 0 -47 -15t-16 -38q0 -29 18 -43t41 -23l50 -20q52 -21 82 -51t30 -83q0 -24 -10.5 -45.5t-29.5 -38t-46 -26t-61 -9.5zM219 554h-72l98 157h112z" />
    <glyph glyph-name="Scircumflex" unicode="&#x15c;" horiz-adv-x="517" 
d="M261 -12q-56 0 -97.5 20t-68.5 50t-40.5 64.5t-14.5 64.5h86q1 -23 10.5 -45.5t26.5 -41.5t42 -30.5t58 -11.5t57.5 8.5t40.5 23.5t24 34.5t8 41.5q0 44 -30.5 79t-88.5 58l-57 23q-157 64 -157 200q0 39 14.5 71.5t40 56t61.5 36.5t80 13q37 0 70.5 -10.5t60.5 -32.5
t45 -56.5t26 -82.5h-84q-10 58 -43.5 85t-78.5 27q-20 0 -40 -7t-36 -20.5t-25.5 -33.5t-9.5 -45q0 -41 26 -72t74 -51l66 -27q36 -15 67 -35t53 -45.5t34.5 -57t12.5 -70.5q0 -36 -13.5 -69t-40.5 -57.5t-67 -39.5t-92 -15zM228 864h74l127 -121h-74l-90 59l-90 -59h-74z
" />
    <glyph glyph-name="scircumflex" unicode="&#x15d;" horiz-adv-x="381" 
d="M197 -12q-30 0 -58.5 8.5t-50.5 26t-36.5 43.5t-16.5 61h74q3 -31 23.5 -54t65.5 -23q37 0 54.5 16.5t17.5 39.5t-17.5 39t-55.5 32l-49 20q-51 20 -75 53.5t-24 72.5q0 53 37.5 86.5t100.5 33.5q23 0 47 -7.5t44 -23.5t34.5 -40t17.5 -58h-73q-6 34 -25 50t-46 16
q-31 0 -47 -15t-16 -38q0 -29 18 -43t41 -23l50 -20q52 -21 82 -51t30 -83q0 -24 -10.5 -45.5t-29.5 -38t-46 -26t-61 -9.5zM160 711h74l127 -157h-74l-90 95l-90 -95h-74z" />
    <glyph glyph-name="Scedilla" unicode="&#x15e;" horiz-adv-x="517" 
d="M261 -12q-56 0 -97.5 20t-68.5 50t-40.5 64.5t-14.5 64.5h86q1 -23 10.5 -45.5t26.5 -41.5t42 -30.5t58 -11.5t57.5 8.5t40.5 23.5t24 34.5t8 41.5q0 44 -30.5 79t-88.5 58l-57 23q-157 64 -157 200q0 39 14.5 71.5t40 56t61.5 36.5t80 13q37 0 70.5 -10.5t60.5 -32.5
t45 -56.5t26 -82.5h-84q-10 58 -43.5 85t-78.5 27q-20 0 -40 -7t-36 -20.5t-25.5 -33.5t-9.5 -45q0 -41 26 -72t74 -51l66 -27q36 -15 67 -35t53 -45.5t34.5 -57t12.5 -70.5q0 -36 -13.5 -69t-40.5 -57.5t-67 -39.5t-92 -15zM244 -81q10 8 22.5 13.5t29.5 5.5q29 0 52 -20.5
t23 -59.5q0 -24 -10 -41.5t-26.5 -29.5t-38.5 -17.5t-46 -5.5q-22 0 -43 3t-41 11l13 44q12 -5 25 -8t33 -3q27 0 47.5 9.5t20.5 31.5q0 18 -13 28.5t-35 10.5q-10 0 -21 -2.5t-22 -8.5l-32 21l61 99h50l-50 -81h1z" />
    <glyph glyph-name="scedilla" unicode="&#x15f;" horiz-adv-x="381" 
d="M197 -12q-30 0 -58.5 8.5t-50.5 26t-36.5 43.5t-16.5 61h74q3 -31 23.5 -54t65.5 -23q37 0 54.5 16.5t17.5 39.5t-17.5 39t-55.5 32l-49 20q-51 20 -75 53.5t-24 72.5q0 53 37.5 86.5t100.5 33.5q23 0 47 -7.5t44 -23.5t34.5 -40t17.5 -58h-73q-6 34 -25 50t-46 16
q-31 0 -47 -15t-16 -38q0 -29 18 -43t41 -23l50 -20q52 -21 82 -51t30 -83q0 -24 -10.5 -45.5t-29.5 -38t-46 -26t-61 -9.5zM168 -81q10 8 22.5 13.5t29.5 5.5q29 0 52 -20.5t23 -59.5q0 -24 -10 -41.5t-26.5 -29.5t-38.5 -17.5t-46 -5.5q-22 0 -41.5 2.5t-39.5 10.5l10 42
q12 -5 25 -8t33 -3q27 0 49 11t22 33q0 18 -14.5 30t-36.5 12q-10 0 -21 -2.5t-22 -8.5l-29 18l61 99h47l-50 -81h1z" />
    <glyph glyph-name="Scaron" unicode="&#x160;" horiz-adv-x="517" 
d="M261 -12q-56 0 -97.5 20t-68.5 50t-40.5 64.5t-14.5 64.5h86q1 -23 10.5 -45.5t26.5 -41.5t42 -30.5t58 -11.5t57.5 8.5t40.5 23.5t24 34.5t8 41.5q0 44 -30.5 79t-88.5 58l-57 23q-157 64 -157 200q0 39 14.5 71.5t40 56t61.5 36.5t80 13q37 0 70.5 -10.5t60.5 -32.5
t45 -56.5t26 -82.5h-84q-10 58 -43.5 85t-78.5 27q-20 0 -40 -7t-36 -20.5t-25.5 -33.5t-9.5 -45q0 -41 26 -72t74 -51l66 -27q36 -15 67 -35t53 -45.5t34.5 -57t12.5 -70.5q0 -36 -13.5 -69t-40.5 -57.5t-67 -39.5t-92 -15zM102 864h74l90 -59l90 59h74l-127 -121h-74z" />
    <glyph glyph-name="scaron" unicode="&#x161;" horiz-adv-x="381" 
d="M197 -12q-30 0 -58.5 8.5t-50.5 26t-36.5 43.5t-16.5 61h74q3 -31 23.5 -54t65.5 -23q37 0 54.5 16.5t17.5 39.5t-17.5 39t-55.5 32l-49 20q-51 20 -75 53.5t-24 72.5q0 53 37.5 86.5t100.5 33.5q23 0 47 -7.5t44 -23.5t34.5 -40t17.5 -58h-73q-6 34 -25 50t-46 16
q-31 0 -47 -15t-16 -38q0 -29 18 -43t41 -23l50 -20q52 -21 82 -51t30 -83q0 -24 -10.5 -45.5t-29.5 -38t-46 -26t-61 -9.5zM33 711h74l90 -95l90 95h74l-127 -157h-74z" />
    <glyph glyph-name="uni0162" unicode="&#x162;" horiz-adv-x="547" 
d="M267 -165h-39v95h92v-95l-49 -97h-53zM535 620h-221v-620h-81v620h-221v72h523v-72z" />
    <glyph glyph-name="uni0163" unicode="&#x163;" horiz-adv-x="332" 
d="M197 430h122v-64h-122v-366h-77v366h-105v64h105v116l76 76h1v-192zM152 -165h-39v95h92v-95l-49 -97h-53z" />
    <glyph glyph-name="Tcaron" unicode="&#x164;" horiz-adv-x="547" 
d="M535 620h-221v-620h-81v620h-221v72h523v-72zM110 864h74l90 -59l90 59h74l-127 -121h-74z" />
    <glyph glyph-name="tcaron" unicode="&#x165;" horiz-adv-x="332" 
d="M197 430h122v-64h-122v-366h-77v366h-105v64h105v116l76 76h1v-192zM313 511h-50l30 200h90z" />
    <glyph glyph-name="Tbar" unicode="&#x166;" horiz-adv-x="567" 
d="M545 620h-221v-228h141v-72h-141v-320h-81v320h-140v72h140v228h-221v72h523v-72z" />
    <glyph glyph-name="tbar" unicode="&#x167;" horiz-adv-x="349" 
d="M205 430h122v-64h-122v-65h122v-64h-122v-237h-77v237h-105v64h105v65h-105v64h105v116l76 76h1v-192z" />
    <glyph glyph-name="Utilde" unicode="&#x168;" horiz-adv-x="706" 
d="M353 60q94 0 141 56.5t47 160.5v415h81v-427q0 -64 -18 -115.5t-52.5 -87.5t-84.5 -55t-114 -19t-114 19t-84.5 55t-52.5 87.5t-18 115.5v427h81v-415q0 -104 47 -160.5t141 -56.5zM404 816q35 0 43 41h65q-5 -30 -15.5 -50t-24.5 -31t-30 -15.5t-31 -4.5q-20 0 -35 6
t-28 13.5t-25 14t-24 6.5q-35 0 -41 -40h-66q4 31 15 50.5t25.5 30.5t30.5 15.5t31 4.5q19 0 33.5 -6.5t27.5 -14t24.5 -14t24.5 -6.5z" />
    <glyph glyph-name="utilde" unicode="&#x169;" horiz-adv-x="495" 
d="M205 -12q-26 0 -51.5 8.5t-45 28t-31.5 51t-12 76.5v278h77v-268q0 -52 22.5 -80t64.5 -28q53 0 86 43t33 128v205h77v-430h-77v91h-1q-44 -103 -142 -103zM298 643q35 0 43 41h65q-5 -30 -15.5 -50t-24.5 -31t-30 -15.5t-31 -4.5q-20 0 -35 6t-28 13.5t-25 14t-24 6.5
q-35 0 -41 -40h-66q4 31 15 50.5t25.5 30.5t30.5 15.5t31 4.5q19 0 33.5 -6.5t27.5 -14t24.5 -14t24.5 -6.5z" />
    <glyph glyph-name="Umacron" unicode="&#x16a;" horiz-adv-x="706" 
d="M223 753v67h260v-67h-260zM353 60q94 0 141 56.5t47 160.5v415h81v-427q0 -64 -18 -115.5t-52.5 -87.5t-84.5 -55t-114 -19t-114 19t-84.5 55t-52.5 87.5t-18 115.5v427h81v-415q0 -104 47 -160.5t141 -56.5z" />
    <glyph glyph-name="umacron" unicode="&#x16b;" horiz-adv-x="495" 
d="M205 -12q-26 0 -51.5 8.5t-45 28t-31.5 51t-12 76.5v278h77v-268q0 -52 22.5 -80t64.5 -28q53 0 86 43t33 128v205h77v-430h-77v91h-1q-44 -103 -142 -103zM115 600v67h260v-67h-260z" />
    <glyph glyph-name="Ubreve" unicode="&#x16c;" horiz-adv-x="706" 
d="M353 60q94 0 141 56.5t47 160.5v415h81v-427q0 -64 -18 -115.5t-52.5 -87.5t-84.5 -55t-114 -19t-114 19t-84.5 55t-52.5 87.5t-18 115.5v427h81v-415q0 -104 47 -160.5t141 -56.5zM353 739q-63 0 -100.5 33.5t-42.5 81.5h61q15 -64 82 -64t82 64h61q-5 -48 -42.5 -81.5
t-100.5 -33.5z" />
    <glyph glyph-name="ubreve" unicode="&#x16d;" horiz-adv-x="495" 
d="M205 -12q-26 0 -51.5 8.5t-45 28t-31.5 51t-12 76.5v278h77v-268q0 -52 22.5 -80t64.5 -28q53 0 86 43t33 128v205h77v-430h-77v91h-1q-44 -103 -142 -103zM245 576q-63 0 -100.5 33.5t-42.5 81.5h61q15 -64 82 -64t82 64h61q-5 -48 -42.5 -81.5t-100.5 -33.5z" />
    <glyph glyph-name="Uring" unicode="&#x16e;" horiz-adv-x="706" 
d="M353 60q94 0 141 56.5t47 160.5v415h81v-427q0 -64 -18 -115.5t-52.5 -87.5t-84.5 -55t-114 -19t-114 19t-84.5 55t-52.5 87.5t-18 115.5v427h81v-415q0 -104 47 -160.5t141 -56.5zM353 782q29 0 48.5 19.5t19.5 48.5q0 28 -19.5 47.5t-48.5 19.5q-28 0 -47.5 -19.5
t-19.5 -47.5q0 -29 19.5 -48.5t47.5 -19.5zM353 739q-23 0 -43 9t-35 24t-23.5 35t-8.5 43q0 22 8.5 42t23.5 35t35 24t43 9t43 -9t35 -24t24 -35t9 -42q0 -23 -9 -43t-24 -35t-35 -24t-43 -9z" />
    <glyph glyph-name="uring" unicode="&#x16f;" horiz-adv-x="495" 
d="M205 -12q-26 0 -51.5 8.5t-45 28t-31.5 51t-12 76.5v278h77v-268q0 -52 22.5 -80t64.5 -28q53 0 86 43t33 128v205h77v-430h-77v91h-1q-44 -103 -142 -103zM245 523q-23 0 -43 9t-35 24t-23.5 35t-8.5 43q0 22 8.5 42t23.5 35t35 24t43 9t43 -9t35 -24t24 -35t9 -42
q0 -23 -9 -43t-24 -35t-35 -24t-43 -9zM245 566q29 0 48.5 19.5t19.5 48.5q0 28 -19.5 47.5t-48.5 19.5q-28 0 -47.5 -19.5t-19.5 -47.5q0 -29 19.5 -48.5t47.5 -19.5z" />
    <glyph glyph-name="Uhungarumlaut" unicode="&#x170;" horiz-adv-x="706" 
d="M353 60q94 0 141 56.5t47 160.5v415h81v-427q0 -64 -18 -115.5t-52.5 -87.5t-84.5 -55t-114 -19t-114 19t-84.5 55t-52.5 87.5t-18 115.5v427h81v-415q0 -104 47 -160.5t141 -56.5zM488 864h102l-138 -121h-62zM326 864h102l-138 -121h-62z" />
    <glyph glyph-name="uhungarumlaut" unicode="&#x171;" horiz-adv-x="495" 
d="M205 -12q-26 0 -51.5 8.5t-45 28t-31.5 51t-12 76.5v278h77v-268q0 -52 22.5 -80t64.5 -28q53 0 86 43t33 128v205h77v-430h-77v91h-1q-44 -103 -142 -103zM346 554h-62l98 157h102zM194 554h-62l98 157h102z" />
    <glyph glyph-name="Uogonek" unicode="&#x172;" horiz-adv-x="706" 
d="M353 60q94 0 141 56.5t47 160.5v415h81v-427q0 -64 -18 -115.5t-52.5 -87.5t-84.5 -55t-114 -19t-114 19t-84.5 55t-52.5 87.5t-18 115.5v427h81v-415q0 -104 47 -160.5t141 -56.5zM445 0q-52 -25 -77.5 -56.5t-25.5 -62.5q0 -21 11.5 -37t39.5 -16q15 0 29.5 5.5
t22.5 11.5v-63q-27 -18 -71 -18q-28 0 -48 9t-33 23.5t-19.5 33t-6.5 38.5q0 43 26 76t71 56h81v0z" />
    <glyph glyph-name="uogonek" unicode="&#x173;" horiz-adv-x="495" 
d="M205 -12q-26 0 -51.5 8.5t-45 28t-31.5 51t-12 76.5v278h77v-268q0 -52 22.5 -80t64.5 -28q53 0 86 43t33 128v205h77v-430h-77v91h-1q-44 -103 -142 -103zM425 0q-45 -25 -74 -50t-29 -56q0 -21 11.5 -35t39.5 -14q15 0 29.5 5.5t22.5 11.5v-60q-27 -18 -69 -18
q-27 0 -47.5 8.5t-34 22.5t-20 32t-6.5 36q0 21 8 38t21.5 31t31.5 25.5t39 22.5h77v0z" />
    <glyph glyph-name="Wcircumflex" unicode="&#x174;" horiz-adv-x="858" 
d="M27 692h80l125 -558l157 515h80l157 -515l125 558h80l-160 -692h-77l-165 536l-165 -536h-77zM392 864h74l127 -121h-74l-90 59l-90 -59h-74z" />
    <glyph glyph-name="wcircumflex" unicode="&#x175;" horiz-adv-x="652" 
d="M22 430h77l96 -326l97 294h68l97 -294l96 326h77l-131 -430h-72l-101 313l-101 -313h-72zM288 711h74l127 -157h-74l-90 95l-90 -95h-74z" />
    <glyph glyph-name="Ycircumflex" unicode="&#x176;" horiz-adv-x="597" 
d="M492 692h89l-242 -432v-260h-81v260l-242 432h89l194 -348zM262 864h74l127 -121h-74l-90 59l-90 -59h-74z" />
    <glyph glyph-name="ycircumflex" unicode="&#x177;" horiz-adv-x="470" 
d="M197 0l-188 430h79l147 -340l147 340h79l-188 -430v-230h-76v230zM199 711h74l127 -157h-74l-90 95l-90 -95h-74z" />
    <glyph glyph-name="Ydieresis" unicode="&#x178;" horiz-adv-x="597" 
d="M492 692h89l-242 -432v-260h-81v260l-242 432h89l194 -348zM160 853h77v-110h-77v110zM361 853h77v-110h-77v110z" />
    <glyph glyph-name="Zacute" unicode="&#x179;" horiz-adv-x="560" 
d="M404 620h-353v72h491l-396 -620h380v-72h-518zM304 743h-72l98 121h112z" />
    <glyph glyph-name="zacute" unicode="&#x17a;" horiz-adv-x="427" 
d="M17 0l254 366h-226v64h355l-254 -366h246v-64h-375zM239 554h-72l98 157h112z" />
    <glyph glyph-name="Zdotaccent" unicode="&#x17b;" horiz-adv-x="560" 
d="M404 620h-353v72h491l-396 -620h380v-72h-518zM338 743h-77v110h77v-110z" />
    <glyph glyph-name="zdotaccent" unicode="&#x17c;" horiz-adv-x="427" 
d="M17 0l254 366h-226v64h355l-254 -366h246v-64h-375zM270 578h-77v110h77v-110z" />
    <glyph glyph-name="Zcaron" unicode="&#x17d;" horiz-adv-x="560" 
d="M404 620h-353v72h491l-396 -620h380v-72h-518zM137 864h74l90 -59l90 59h74l-127 -121h-74z" />
    <glyph glyph-name="zcaron" unicode="&#x17e;" horiz-adv-x="427" 
d="M17 0l254 366h-226v64h355l-254 -366h246v-64h-375zM68 711h74l90 -95l90 95h74l-127 -157h-74z" />
    <glyph glyph-name="uni018F" unicode="&#x18f;" horiz-adv-x="803" 
d="M401 -12q-88 0 -158.5 35t-117.5 92t-68 129.5t-10 147.5h625q-8 53 -32 97t-60 75t-82 48t-97 17q-76 0 -139.5 -37t-98.5 -102h-90q20 48 53 87.5t75.5 67t93 43t106.5 15.5q75 0 140 -27t113.5 -75t76 -113.5t27.5 -141.5t-27.5 -141.5t-76 -113.5t-113.5 -75.5
t-140 -27.5zM401 62q53 0 100.5 19t84.5 53t60 81.5t28 104.5h-546q4 -57 27.5 -104.5t60 -81.5t84.5 -53t101 -19z" />
    <glyph glyph-name="Scommaaccent" unicode="&#x218;" horiz-adv-x="517" 
d="M261 -12q-56 0 -97.5 20t-68.5 50t-40.5 64.5t-14.5 64.5h86q1 -23 10.5 -45.5t26.5 -41.5t42 -30.5t58 -11.5t57.5 8.5t40.5 23.5t24 34.5t8 41.5q0 44 -30.5 79t-88.5 58l-57 23q-157 64 -157 200q0 39 14.5 71.5t40 56t61.5 36.5t80 13q37 0 70.5 -10.5t60.5 -32.5
t45 -56.5t26 -82.5h-84q-10 58 -43.5 85t-78.5 27q-20 0 -40 -7t-36 -20.5t-25.5 -33.5t-9.5 -45q0 -41 26 -72t74 -51l66 -27q36 -15 67 -35t53 -45.5t34.5 -57t12.5 -70.5q0 -36 -13.5 -69t-40.5 -57.5t-67 -39.5t-92 -15zM257 -165h-39v95h92v-95l-49 -97h-53z" />
    <glyph glyph-name="scommaaccent" unicode="&#x219;" horiz-adv-x="381" 
d="M197 -12q-30 0 -58.5 8.5t-50.5 26t-36.5 43.5t-16.5 61h74q3 -31 23.5 -54t65.5 -23q37 0 54.5 16.5t17.5 39.5t-17.5 39t-55.5 32l-49 20q-51 20 -75 53.5t-24 72.5q0 53 37.5 86.5t100.5 33.5q23 0 47 -7.5t44 -23.5t34.5 -40t17.5 -58h-73q-6 34 -25 50t-46 16
q-31 0 -47 -15t-16 -38q0 -29 18 -43t41 -23l50 -20q52 -21 82 -51t30 -83q0 -24 -10.5 -45.5t-29.5 -38t-46 -26t-61 -9.5zM190 -167h-39v95h92v-95l-49 -97h-53z" />
    <glyph glyph-name="Tcommaaccent" unicode="&#x21a;" horiz-adv-x="547" 
d="M267 -165h-39v95h92v-95l-49 -97h-53zM535 620h-221v-620h-81v620h-221v72h523v-72z" />
    <glyph glyph-name="tcommaaccent" unicode="&#x21b;" horiz-adv-x="332" 
d="M197 430h122v-64h-122v-366h-77v366h-105v64h105v116l76 76h1v-192zM152 -165h-39v95h92v-95l-49 -97h-53z" />
    <glyph glyph-name="uni0232" unicode="&#x232;" horiz-adv-x="597" 
d="M492 692h89l-242 -432v-260h-81v260l-242 432h89l194 -348zM169 753v67h260v-67h-260z" />
    <glyph glyph-name="uni0233" unicode="&#x233;" horiz-adv-x="470" 
d="M197 0l-188 430h79l147 -340l147 340h79l-188 -430v-230h-76v230zM106 600v67h260v-67h-260z" />
    <glyph glyph-name="dotlessj" unicode="&#x237;" horiz-adv-x="217" 
d="M70 -242v672h77v-595l-76 -77h-1z" />
    <glyph glyph-name="uni0259" unicode="&#x259;" horiz-adv-x="506" 
d="M249.016 443.999q48.9971 0 88.9941 -17.999q39.998 -17.998 68.4961 -48.9971q28.498 -30.998 44.4971 -72.4951t15.999 -88.4941q0 -46.998 -15.999 -88.4951t-44.4971 -72.4951t-68.9951 -48.9971q-40.498 -17.999 -90.4951 -17.999q-38.9971 0 -76.4951 14.499
t-66.4961 44.4971t-47.4971 75.9951t-19.499 109.993h351.979q-1 29.999 -11.499 55.9971t-27.998 45.9971t-42.498 31.498q-24.998 11.499 -54.9961 11.499q-46.9971 0 -77.9951 -17.999q-30.998 -17.998 -45.9971 -49.9961h-80.9951q20.998 59.9961 73.9951 96.9941
q52.9971 36.9971 127.992 36.9971zM251.016 52.0234q54.9961 0 90.4941 33.498t44.498 87.4941h-265.984q6 -53.9961 41.998 -87.4941q35.9971 -33.498 88.9941 -33.498z" />
    <glyph glyph-name="circumflex" unicode="&#x2c6;" horiz-adv-x="338" 
d="M132 711h74l127 -157h-74l-90 95l-90 -95h-74z" />
    <glyph glyph-name="caron" unicode="&#x2c7;" horiz-adv-x="338" 
d="M5 711h74l90 -95l90 95h74l-127 -157h-74z" />
    <glyph glyph-name="breve" unicode="&#x2d8;" horiz-adv-x="316" 
d="M158 576q-63 0 -100.5 33.5t-42.5 81.5h61q15 -64 82 -64t82 64h61q-5 -48 -42.5 -81.5t-100.5 -33.5z" />
    <glyph glyph-name="dotaccent" unicode="&#x2d9;" horiz-adv-x="147" 
d="M112 578h-77v110h77v-110z" />
    <glyph glyph-name="ring" unicode="&#x2da;" horiz-adv-x="301" 
d="M150 523q-23 0 -43 9t-35 24t-23.5 35t-8.5 43q0 22 8.5 42t23.5 35t35 24t43 9t43 -9t35 -24t24 -35t9 -42q0 -23 -9 -43t-24 -35t-35 -24t-43 -9zM150 566q29 0 48.5 19.5t19.5 48.5q0 28 -19.5 47.5t-48.5 19.5q-28 0 -47.5 -19.5t-19.5 -47.5q0 -29 19.5 -48.5
t47.5 -19.5z" />
    <glyph glyph-name="ogonek" unicode="&#x2db;" horiz-adv-x="264" 
d="M220 0q-45 -25 -74 -50t-29 -56q0 -21 11.5 -35t39.5 -14q15 0 29.5 5.5t22.5 11.5v-60q-27 -18 -69 -18q-27 0 -47.5 8.5t-34 22.5t-20 32t-6.5 36q0 21 8 38t21.5 31t31.5 25.5t39 22.5h77v0z" />
    <glyph glyph-name="tilde" unicode="&#x2dc;" horiz-adv-x="330" 
d="M217 643q35 0 43 41h65q-5 -30 -15.5 -50t-24.5 -31t-30 -15.5t-31 -4.5q-20 0 -35 6t-28 13.5t-25 14t-24 6.5q-35 0 -41 -40h-66q4 31 15 50.5t25.5 30.5t30.5 15.5t31 4.5q19 0 33.5 -6.5t27.5 -14t24.5 -14t24.5 -6.5z" />
    <glyph glyph-name="hungarumlaut" unicode="&#x2dd;" horiz-adv-x="374" 
d="M230 554h-62l98 157h102zM78 554h-62l98 157h102z" />
    <glyph glyph-name="Wgrave" unicode="&#x1e80;" horiz-adv-x="858" 
d="M27 692h80l125 -558l157 515h80l157 -515l125 558h80l-160 -692h-77l-165 536l-165 -536h-77zM279 864h112l93 -121h-72z" />
    <glyph glyph-name="wgrave" unicode="&#x1e81;" horiz-adv-x="652" 
d="M22 430h77l96 -326l97 294h68l97 -294l96 326h77l-131 -430h-72l-101 313l-101 -313h-72zM183 711h112l108 -157h-72z" />
    <glyph glyph-name="Wacute" unicode="&#x1e82;" horiz-adv-x="858" 
d="M27 692h80l125 -558l157 515h80l157 -515l125 558h80l-160 -692h-77l-165 536l-165 -536h-77zM438 743h-72l98 121h112z" />
    <glyph glyph-name="wacute" unicode="&#x1e83;" horiz-adv-x="652" 
d="M22 430h77l96 -326l97 294h68l97 -294l96 326h77l-131 -430h-72l-101 313l-101 -313h-72zM339 554h-72l98 157h112z" />
    <glyph glyph-name="Wdieresis" unicode="&#x1e84;" horiz-adv-x="858" 
d="M27 692h80l125 -558l157 515h80l157 -515l125 558h80l-160 -692h-77l-165 536l-165 -536h-77zM290 853h77v-110h-77v110zM491 853h77v-110h-77v110z" />
    <glyph glyph-name="wdieresis" unicode="&#x1e85;" horiz-adv-x="652" 
d="M22 430h77l96 -326l97 294h68l97 -294l96 326h77l-131 -430h-72l-101 313l-101 -313h-72zM464 688v-110h-77v110h77zM263 578h-77v110h77v-110z" />
    <glyph glyph-name="uni1ECA" unicode="&#x1eca;" horiz-adv-x="265" 
d="M171 -180h-77v110h77v-110zM173 0h-81v692h81v-692z" />
    <glyph glyph-name="uni1ECB" unicode="&#x1ecb;" horiz-adv-x="217" 
d="M147 -180h-77v110h77v-110zM147 0h-77v430h77v-430zM147 578h-77v110h77v-110z" />
    <glyph glyph-name="uni1ECC" unicode="&#x1ecc;" horiz-adv-x="804" 
d="M759 346q0 -76 -27.5 -141.5t-76 -113.5t-113.5 -75.5t-140 -27.5t-140 27.5t-113.5 75.5t-76 113.5t-27.5 141.5t27.5 141.5t76 113.5t113.5 75t140 27t140 -27t113.5 -75t76 -113.5t27.5 -141.5zM676 346q0 63 -21.5 115t-59 90t-87.5 59t-106 21t-106 -21t-87.5 -59
t-59 -90t-21.5 -115t21.5 -115.5t59 -90.5t87.5 -59t106 -21t106 21t87.5 59t59 90.5t21.5 115.5zM441 -180h-77v110h77v-110z" />
    <glyph glyph-name="uni1ECD" unicode="&#x1ecd;" 
d="M265 54q34 0 61.5 13t47 35.5t30 52t10.5 61.5t-10.5 61.5t-30 52t-47 35.5t-61.5 13t-61.5 -13t-47 -35.5t-30 -52t-10.5 -61.5t10.5 -61.5t30 -52t47 -35.5t61.5 -13zM265 -12q-50 0 -91.5 18t-71.5 49t-47 72.5t-17 88.5t17 88.5t47 72.5t71.5 49t91.5 18q49 0 91 -18
t72 -49t47 -72.5t17 -88.5t-17 -88.5t-47 -72.5t-72 -49t-91 -18zM303 -180h-77v110h77v-110z" />
    <glyph glyph-name="uni1EE4" unicode="&#x1ee4;" horiz-adv-x="706" 
d="M353 60q94 0 141 56.5t47 160.5v415h81v-427q0 -64 -18 -115.5t-52.5 -87.5t-84.5 -55t-114 -19t-114 19t-84.5 55t-52.5 87.5t-18 115.5v427h81v-415q0 -104 47 -160.5t141 -56.5zM390 -180h-77v110h77v-110z" />
    <glyph glyph-name="uni1EE5" unicode="&#x1ee5;" horiz-adv-x="495" 
d="M205 -12q-26 0 -51.5 8.5t-45 28t-31.5 51t-12 76.5v278h77v-268q0 -52 22.5 -80t64.5 -28q53 0 86 43t33 128v205h77v-430h-77v91h-1q-44 -103 -142 -103zM275 -180h-77v110h77v-110z" />
    <glyph glyph-name="Ygrave" unicode="&#x1ef2;" horiz-adv-x="597" 
d="M492 692h89l-242 -432v-260h-81v260l-242 432h89l194 -348zM161 864h112l93 -121h-72z" />
    <glyph glyph-name="ygrave" unicode="&#x1ef3;" horiz-adv-x="470" 
d="M197 0l-188 430h79l147 -340l147 340h79l-188 -430v-230h-76v230zM93 711h112l108 -157h-72z" />
    <glyph glyph-name="uni2007" unicode="&#x2007;" horiz-adv-x="236" 
 />
    <glyph glyph-name="uni2008" unicode="&#x2008;" horiz-adv-x="234" 
 />
    <glyph glyph-name="uni2009" unicode="&#x2009;" horiz-adv-x="125" 
 />
    <glyph glyph-name="uni200B" unicode="&#x200b;" horiz-adv-x="0" 
 />
    <glyph glyph-name="endash" unicode="&#x2013;" horiz-adv-x="493" 
d="M62 186v62h369v-62h-369z" />
    <glyph glyph-name="emdash" unicode="&#x2014;" horiz-adv-x="775" 
d="M62 186v62h651v-62h-651z" />
    <glyph glyph-name="quoteleft" unicode="&#x2018;" horiz-adv-x="229" 
d="M111 553h53v-110h-110v110l73 139h57z" />
    <glyph glyph-name="quoteright" unicode="&#x2019;" horiz-adv-x="224" 
d="M124 582h-53v110h110v-110l-73 -139h-57z" />
    <glyph glyph-name="quotesinglbase" unicode="&#x201a;" horiz-adv-x="245" 
d="M122 0h-53v110h110v-110l-73 -139h-57z" />
    <glyph glyph-name="quotedblleft" unicode="&#x201c;" horiz-adv-x="410" 
d="M111 553h53v-110h-110v110l73 139h57zM292 553h53v-110h-110v110l73 139h57z" />
    <glyph glyph-name="quotedblright" unicode="&#x201d;" horiz-adv-x="405" 
d="M305 582h-53v110h110v-110l-73 -139h-57zM124 582h-53v110h110v-110l-73 -139h-57z" />
    <glyph glyph-name="quotedblbase" unicode="&#x201e;" horiz-adv-x="426" 
d="M303 0h-53v110h110v-110l-73 -139h-57zM122 0h-53v110h110v-110l-73 -139h-57z" />
    <glyph glyph-name="dagger" unicode="&#x2020;" horiz-adv-x="563" 
d="M316 419v-539h-69v539h-205v63h205v229h69v-229h205v-63h-205z" />
    <glyph glyph-name="daggerdbl" unicode="&#x2021;" horiz-adv-x="563" 
d="M316 -120h-69v219h-205v63h205v267h-205v63h205v219h69v-219h205v-63h-205v-267h205v-63h-205v-219z" />
    <glyph glyph-name="bullet" unicode="&#x2022;" horiz-adv-x="466" 
d="M397 224q0 -34 -13 -63.5t-35.5 -52t-52 -35.5t-63.5 -13t-63.5 13t-52 35.5t-35.5 52t-13 63.5t13 63.5t35.5 52t52 35.5t63.5 13t63.5 -13t52 -35.5t35.5 -52t13 -63.5z" />
    <glyph glyph-name="ellipsis" unicode="&#x2026;" horiz-adv-x="734" 
d="M562 110h110v-110h-110v110zM312 110h110v-110h-110v110zM62 110h110v-110h-110v110z" />
    <glyph glyph-name="perthousand" unicode="&#x2030;" horiz-adv-x="1277" 
d="M1073 -12q-36 0 -67.5 14t-55 40t-36.5 62.5t-13 80.5t13 80.5t36.5 62.5t55 40t67.5 14t67.5 -14t55 -40t36.5 -62.5t13 -80.5t-13 -80.5t-36.5 -62.5t-55 -40t-67.5 -14zM1073 51q48 0 73.5 35t25.5 99t-25.5 99t-73.5 35t-73.5 -35t-25.5 -99t25.5 -99t73.5 -35z
M636 692h76l-469 -692h-76zM205 309q-36 0 -67.5 14t-55 40t-36.5 62.5t-13 80.5t13 80.5t36.5 62.5t55 40t67.5 14t67.5 -14t55 -40t36.5 -62.5t13 -80.5t-13 -80.5t-36.5 -62.5t-55 -40t-67.5 -14zM205 372q48 0 73.5 35t25.5 99t-25.5 99t-73.5 35t-73.5 -35t-25.5 -99
t25.5 -99t73.5 -35zM673 -12q-36 0 -67.5 14t-55 40t-36.5 62.5t-13 80.5t13 80.5t36.5 62.5t55 40t67.5 14t67.5 -14t55 -40t36.5 -62.5t13 -80.5t-13 -80.5t-36.5 -62.5t-55 -40t-67.5 -14zM673 51q48 0 73.5 35t25.5 99t-25.5 99t-73.5 35t-73.5 -35t-25.5 -99t25.5 -99
t73.5 -35z" />
    <glyph glyph-name="guilsinglleft" unicode="&#x2039;" horiz-adv-x="282" 
d="M124 218l112 -182h-82l-112 182l112 182h82z" />
    <glyph glyph-name="guilsinglright" unicode="&#x203a;" horiz-adv-x="282" 
d="M158.008 218l-111.993 -182h81.9951l111.993 182l-111.993 182h-81.9951z" />
    <glyph glyph-name="fraction" unicode="&#x2044;" horiz-adv-x="160" 
d="M354 692l-469 -692h-76l469 692h76z" />
    <glyph glyph-name="zero.superior" unicode="&#x2070;" horiz-adv-x="340" 
d="M303 622q0 -46 -10.5 -79.5t-28.5 -55t-42.5 -32t-51.5 -10.5t-51 10.5t-42.5 32t-29 55t-10.5 79.5t10.5 79t29 55t42.5 32.5t51 10.5t51 -10.5t42.5 -32.5t29 -55t10.5 -79zM101 622q0 -69 20 -97t49 -28q30 0 49.5 28t19.5 97q0 68 -19.5 96t-49.5 28q-29 0 -49 -28
t-20 -96z" />
    <glyph glyph-name="four.superior" unicode="&#x2074;" horiz-adv-x="329" 
d="M187 527h-163v51l170 214h56v-211h52v-54h-52v-75h-63v75zM187 581v126l-99 -126h99z" />
    <glyph glyph-name="five.superior" unicode="&#x2075;" horiz-adv-x="315" 
d="M156 445q-51 0 -85 28.5t-39 78.5h65q4 -30 19.5 -43.5t40.5 -13.5q26 0 44 19.5t18 55.5q0 33 -19 52t-45 19q-18 0 -33.5 -10t-20.5 -27h-60l22 188h201v-58h-151l-12 -91h1q10 18 29 30.5t48 12.5q18 0 36.5 -7.5t33.5 -22t24.5 -36t9.5 -50.5t-10 -52t-27.5 -39
t-40.5 -25t-49 -9z" />
    <glyph glyph-name="six.superior" unicode="&#x2076;" horiz-adv-x="325" 
d="M99 609q8 26 30 44.5t57 18.5q48 0 76 -31.5t28 -76.5q0 -28 -10 -50t-26.5 -37.5t-39 -23.5t-46.5 -8q-60 0 -95.5 42.5t-35.5 125.5q0 39 8.5 72.5t25.5 59t43 40t62 14.5q27 0 47 -9t33.5 -22.5t21 -31t9.5 -33.5h-63q-5 25 -18.5 35t-32.5 10q-13 0 -26.5 -6.5
t-24 -22.5t-17.5 -43t-7 -67h1zM167 495q28 0 43 18.5t15 44.5q0 30 -14.5 48.5t-42.5 18.5t-42.5 -18.5t-14.5 -48.5q0 -27 15.5 -45t40.5 -18z" />
    <glyph glyph-name="seven.superior" unicode="&#x2077;" horiz-adv-x="285" 
d="M74 452q0 184 149 281v1h-200v58h241v-53q-32 -26 -55 -54.5t-38 -63t-22.5 -76t-7.5 -93.5h-67v0z" />
    <glyph glyph-name="eight.superior" unicode="&#x2078;" horiz-adv-x="317" 
d="M159 445q-54 0 -89 26.5t-35 69.5q0 34 22 56t55 30v1q-28 8 -46.5 27.5t-18.5 51.5q0 17 7 33.5t21 29.5t35 21t49 8t48.5 -8t34.5 -21t21 -29.5t7 -33.5q0 -32 -18 -51.5t-47 -27.5v-1q34 -8 55.5 -30t21.5 -56q0 -43 -35 -69.5t-88 -26.5zM159 494q25 0 41.5 13
t16.5 39t-16.5 39t-41.5 13t-42 -13t-17 -39t17 -39t42 -13zM159 750q-23 0 -36 -13t-13 -35q0 -21 13 -34t36 -13t35.5 13t12.5 34q0 22 -12.5 35t-35.5 13z" />
    <glyph glyph-name="nine.superior" unicode="&#x2079;" horiz-adv-x="325" 
d="M226 635q-8 -26 -30 -44.5t-57 -18.5q-48 0 -76 31.5t-28 76.5q0 28 10 50t26.5 37.5t39 23.5t46.5 8q60 0 95.5 -42.5t35.5 -125.5q0 -39 -8.5 -72.5t-25.5 -59t-43 -40t-62 -14.5q-27 0 -47 9t-33.5 22.5t-21 30.5t-9.5 34h63q5 -25 18.5 -35t32.5 -10q13 0 26.5 6.5
t24 22.5t17.5 42.5t7 67.5h-1zM158 749q-28 0 -43 -18.5t-15 -44.5q0 -30 14.5 -48.5t42.5 -18.5t42.5 18.5t14.5 48.5q0 27 -15.5 45t-40.5 18z" />
    <glyph glyph-name="zero.inferior" unicode="&#x2080;" horiz-adv-x="340" 
d="M303 71q0 -46 -10.5 -79.5t-28.5 -55t-42.5 -32t-51.5 -10.5t-51 10.5t-42.5 32t-29 55t-10.5 79.5t10.5 79t29 55t42.5 32.5t51 10.5t51 -10.5t42.5 -32.5t29 -55t10.5 -79zM101 71q0 -69 20 -97t49 -28q30 0 49.5 28t19.5 97q0 68 -19.5 96t-49.5 28q-29 0 -49 -28
t-20 -96z" />
    <glyph glyph-name="one.inferior" unicode="&#x2081;" horiz-adv-x="198" 
d="M82 -99v284h-59v56h122v-340h-63z" />
    <glyph glyph-name="two.inferior" unicode="&#x2082;" horiz-adv-x="311" 
d="M33 -99v10q0 25 6 46.5t19 41t34 37.5t52 36q29 17 48 34.5t19 44.5q0 20 -13.5 33t-36.5 13q-11 0 -21.5 -3.5t-18.5 -11.5t-12.5 -21t-4.5 -33h-65q-1 57 34 88.5t92 31.5q24 0 44.5 -7.5t35 -21t23 -31t8.5 -38.5q0 -38 -27.5 -66.5t-69.5 -54.5q-39 -24 -56.5 -40
t-17.5 -30h165v-58h-237z" />
    <glyph glyph-name="three.inferior" unicode="&#x2083;" horiz-adv-x="319" 
d="M185 81q46 -5 72 -27t26 -60q0 -25 -11 -43.5t-28.5 -31t-40 -19t-45.5 -6.5q-57 0 -91 30.5t-36 78.5h65q2 -29 18.5 -44t43.5 -15q26 0 43 14.5t17 39.5q0 26 -21.5 40t-63.5 14h-4v52h3q38 0 58 13.5t20 36.5q0 19 -13 31t-35 12q-25 0 -41 -14.5t-17 -46.5h-63
q1 22 9 42.5t23 36t38 24.5t53 9q21 0 40.5 -5.5t35 -16t25 -26.5t9.5 -36q0 -35 -25.5 -55t-63.5 -27v-1z" />
    <glyph glyph-name="four.inferior" unicode="&#x2084;" horiz-adv-x="329" 
d="M187 -24h-163v51l170 214h56v-211h52v-54h-52v-75h-63v75zM187 30v126l-99 -126h99z" />
    <glyph glyph-name="five.inferior" unicode="&#x2085;" horiz-adv-x="315" 
d="M156 -106q-51 0 -85 28.5t-39 78.5h65q4 -30 19.5 -43.5t40.5 -13.5q26 0 44 19.5t18 55.5q0 33 -19 52t-45 19q-18 0 -33.5 -10t-20.5 -27h-60l22 188h201v-58h-151l-12 -91h1q10 18 29 30.5t48 12.5q18 0 36.5 -7.5t33.5 -22t24.5 -36t9.5 -50.5t-10 -52t-27.5 -39
t-40.5 -25t-49 -9z" />
    <glyph glyph-name="six.inferior" unicode="&#x2086;" horiz-adv-x="325" 
d="M99 58q8 26 30 44.5t57 18.5q48 0 76 -31.5t28 -76.5q0 -28 -10 -50t-26.5 -37.5t-39 -23.5t-46.5 -8q-60 0 -95.5 42.5t-35.5 125.5q0 39 8.5 72.5t25.5 59t43 40t62 14.5q27 0 47 -9t33.5 -22.5t21 -31t9.5 -33.5h-63q-5 25 -18.5 35t-32.5 10q-13 0 -26.5 -6.5
t-24 -22.5t-17.5 -43t-7 -67h1zM167 -56q28 0 43 18.5t15 44.5q0 30 -14.5 48.5t-42.5 18.5t-42.5 -18.5t-14.5 -48.5q0 -27 15.5 -45t40.5 -18z" />
    <glyph glyph-name="seven.inferior" unicode="&#x2087;" horiz-adv-x="285" 
d="M74 -99q0 184 149 281v1h-200v58h241v-53q-32 -26 -55 -54.5t-38 -63t-22.5 -76t-7.5 -93.5h-67v0z" />
    <glyph glyph-name="eight.inferior" unicode="&#x2088;" horiz-adv-x="317" 
d="M159 -106q-54 0 -89 26.5t-35 69.5q0 34 22 56t55 30v1q-28 8 -46.5 27.5t-18.5 51.5q0 17 7 33.5t21 29.5t35 21t49 8t48.5 -8t34.5 -21t21 -29.5t7 -33.5q0 -32 -18 -51.5t-47 -27.5v-1q34 -8 55.5 -30t21.5 -56q0 -43 -35 -69.5t-88 -26.5zM159 -57q25 0 41.5 13
t16.5 39t-16.5 39t-41.5 13t-42 -13t-17 -39t17 -39t42 -13zM159 199q-23 0 -36 -13t-13 -35q0 -21 13 -34t36 -13t35.5 13t12.5 34q0 22 -12.5 35t-35.5 13z" />
    <glyph glyph-name="nine.inferior" unicode="&#x2089;" horiz-adv-x="325" 
d="M226 84q-8 -26 -30 -44.5t-57 -18.5q-48 0 -76 31.5t-28 76.5q0 28 10 50t26.5 37.5t39 23.5t46.5 8q60 0 95.5 -42.5t35.5 -125.5q0 -39 -8.5 -72.5t-25.5 -59t-43 -40t-62 -14.5q-27 0 -47 9t-33.5 22.5t-21 30.5t-9.5 34h63q5 -25 18.5 -35t32.5 -10q13 0 26.5 6.5
t24 22.5t17.5 42.5t7 67.5h-1zM158 198q-28 0 -43 -18.5t-15 -44.5q0 -30 14.5 -48.5t42.5 -18.5t42.5 18.5t14.5 48.5q0 27 -15.5 45t-40.5 18z" />
    <glyph glyph-name="Euro" unicode="&#x20ac;" horiz-adv-x="706" 
d="M484 -12q-60 0 -114 18.5t-98 51.5t-77 79.5t-49 102.5h-112l27 60h72q-2 11 -2 22.5v23.5v23t2 23h-99l27 60h85q16 55 49 101.5t77 79.5t98 51.5t114 18.5q52 0 100.5 -13.5t83.5 -36.5l-28 -65q-29 20 -66.5 32.5t-89.5 12.5q-44 0 -83 -13t-72 -36.5t-58 -57
t-40 -74.5h349l-26 -60h-338q-3 -23 -3 -46q0 -24 3 -46h297l-27 -60h-255q15 -41 40 -74.5t58 -57.5t72 -37t83 -13q46 0 90 13.5t79 37.5v-81q-35 -20 -78.5 -30t-90.5 -10z" />
    <glyph glyph-name="afii61352" unicode="&#x2116;" horiz-adv-x="1072" 
d="M92 0v692h83l358 -562v562h81v-692h-83l-358 563v-563h-81zM853 350q-39 0 -71.5 13.5t-56 37.5t-36.5 56.5t-13 69.5t13 69t36.5 56t56 37.5t71.5 13.5t71.5 -13.5t56 -37.5t37 -56t13.5 -69t-13.5 -69.5t-37 -56.5t-56 -37.5t-71.5 -13.5zM853 407q25 0 45 9.5t34 26
t22 38.5t8 46t-8 46t-22 38t-34 25.5t-45 9.5t-45 -9.5t-34.5 -25.5t-22 -38t-7.5 -46t7.5 -46t22 -38.5t34.5 -26t45 -9.5zM686 245v64h334v-64h-334z" />
    <glyph glyph-name="uni2117" unicode="&#x2117;" horiz-adv-x="802" 
d="M401 -12q-75 0 -140 28t-113 77t-76 114t-28 139t28 139t76 113.5t113 76.5t140 28t140 -28t113 -76.5t76 -113.5t28 -139t-28 -139t-76 -114t-113 -77t-140 -28zM401 49q61 0 114 23t92 63t61.5 94.5t22.5 116.5t-22.5 116.5t-61.5 94.5t-92 63t-114 23t-114 -23
t-92 -63t-61.5 -94.5t-22.5 -116.5t22.5 -116.5t61.5 -94.5t92 -63t114 -23zM429 355q29 0 45 16t16 42t-16 42t-45 16h-65v-116h65zM364 299v-128h-64v356h128q57 0 92 -30.5t35 -83.5t-35 -83.5t-92 -30.5h-64z" />
    <glyph glyph-name="trademark" unicode="&#x2122;" horiz-adv-x="917" 
d="M350 637h-128v-360h-63v360h-128v55h319v-55zM661 358h-55l-111 215v-296h-62v415h65l135 -272l136 272h65v-415h-63v296z" />
    <glyph glyph-name="minus" unicode="&#x2212;" 
d="M50 248h430v-62h-430v62z" />
    <glyph glyph-name="fi" unicode="&#xfb01;" horiz-adv-x="528" 
d="M321 642h-30q-29 0 -47 -10t-28.5 -28.5t-14 -45t-3.5 -59.5v-69h93v-64h-93v-366h-77v366h-106v64h106v83q0 101 43 149.5t111 48.5h46v-69zM458 0h-77v430h77v-430zM458 561h-77v110h77v-110z" />
    <glyph glyph-name="fl" unicode="&#xfb02;" horiz-adv-x="528" 
d="M321 642h-30q-29 0 -47 -10t-28.5 -28.5t-14 -45t-3.5 -59.5v-69h93v-64h-93v-366h-77v366h-106v64h106v83q0 101 43 149.5t111 48.5h46v-69zM458 0h-77v711h77v-711z" />
    <glyph glyph-name="uniFEFF" unicode="&#xfeff;" horiz-adv-x="0" 
 />
    <glyph glyph-name="dot" horiz-adv-x="217" 
d="M147 561h-77v110h77v-110z" />
    <glyph glyph-name="dotaccent.low" horiz-adv-x="147" 
d="M112 -180h-77v110h77v-110z" />
    <glyph glyph-name="commaaccent" horiz-adv-x="162" 
d="M74 -165h-39v95h92v-95l-49 -97h-53z" />
    <glyph glyph-name="caron.slovak" horiz-adv-x="160" 
d="M70 511h-50l30 200h90z" />
    <glyph glyph-name="one.numerator" horiz-adv-x="198" 
d="M85 352v284h-59v56h122v-340h-63z" />
    <glyph glyph-name="two.numerator" horiz-adv-x="311" 
d="M33 352v10q0 25 6 46.5t19 41t34 37.5t52 36q29 17 48 34.5t19 44.5q0 20 -13.5 33t-36.5 13q-11 0 -21.5 -3.5t-18.5 -11.5t-12.5 -21t-4.5 -33h-65q-1 57 34 88.5t92 31.5q24 0 44.5 -7.5t35 -21t23 -31t8.5 -38.5q0 -38 -27.5 -66.5t-69.5 -54.5q-39 -24 -56.5 -40
t-17.5 -30h165v-58h-237z" />
    <glyph glyph-name="three.numerator" horiz-adv-x="319" 
d="M185 532q46 -5 72 -27t26 -60q0 -25 -11 -43.5t-28.5 -31t-40 -19t-45.5 -6.5q-57 0 -91 30.5t-36 78.5h65q2 -29 18.5 -44t43.5 -15q26 0 43 14.5t17 39.5q0 26 -21.5 40t-63.5 14h-4v52h3q38 0 58 13.5t20 36.5q0 19 -13 31t-35 12q-25 0 -41 -14.5t-17 -46.5h-63
q1 22 9 42.5t23 36t38 24.5t53 9q21 0 40.5 -5.5t35 -16t25 -26.5t9.5 -36q0 -35 -25.5 -55t-63.5 -27v-1z" />
    <glyph glyph-name="four.numerator" horiz-adv-x="329" 
d="M188 427h-163v51l170 214h56v-211h52v-54h-52v-75h-63v75zM188 481v126l-99 -126h99z" />
    <glyph glyph-name="five.numerator" horiz-adv-x="315" 
d="M155 345q-51 0 -85 28.5t-39 78.5h65q4 -30 19.5 -43.5t40.5 -13.5q26 0 44 19.5t18 55.5q0 33 -19 52t-45 19q-18 0 -33.5 -10t-20.5 -27h-60l22 188h201v-58h-151l-12 -91h1q10 18 29 30.5t48 12.5q18 0 36.5 -7.5t33.5 -22t24.5 -36t9.5 -50.5t-10 -52t-27.5 -39
t-40.5 -25t-49 -9z" />
    <glyph glyph-name="six.numerator" horiz-adv-x="325" 
d="M100 509q8 26 30 44.5t57 18.5q48 0 76 -31.5t28 -76.5q0 -28 -10 -50t-26.5 -37.5t-39 -23.5t-46.5 -8q-60 0 -95.5 42.5t-35.5 125.5q0 39 8.5 72.5t25.5 59t43 40t62 14.5q27 0 47 -9t33.5 -22.5t21 -31t9.5 -33.5h-63q-5 25 -18.5 35t-32.5 10q-13 0 -26.5 -6.5
t-24 -22.5t-17.5 -43t-7 -67h1zM168 395q28 0 43 18.5t15 44.5q0 30 -14.5 48.5t-42.5 18.5t-42.5 -18.5t-14.5 -48.5q0 -27 15.5 -45t40.5 -18z" />
    <glyph glyph-name="seven.numerator" horiz-adv-x="285" 
d="M74 352q0 184 149 281v1h-200v58h241v-53q-32 -26 -55 -54.5t-38 -63t-22.5 -76t-7.5 -93.5h-67v0z" />
    <glyph glyph-name="eight.numerator" horiz-adv-x="317" 
d="M159 345q-54 0 -89 26.5t-35 69.5q0 34 22 56t55 30v1q-28 8 -46.5 27.5t-18.5 51.5q0 17 7 33.5t21 29.5t35 21t49 8t48.5 -8t34.5 -21t21 -29.5t7 -33.5q0 -32 -18 -51.5t-47 -27.5v-1q34 -8 55.5 -30t21.5 -56q0 -43 -35 -69.5t-88 -26.5zM159 394q25 0 41.5 13
t16.5 39t-16.5 39t-41.5 13t-42 -13t-17 -39t17 -39t42 -13zM159 650q-23 0 -36 -13t-13 -35q0 -21 13 -34t36 -13t35.5 13t12.5 34q0 22 -12.5 35t-35.5 13z" />
    <glyph glyph-name="nine.numerator" horiz-adv-x="325" 
d="M226 535q-8 -26 -30 -44.5t-57 -18.5q-48 0 -76 31.5t-28 76.5q0 28 10 50t26.5 37.5t39 23.5t46.5 8q60 0 95.5 -42.5t35.5 -125.5q0 -39 -8.5 -72.5t-25.5 -59t-43 -40t-62 -14.5q-27 0 -47 9t-33.5 22.5t-21 30.5t-9.5 34h63q5 -25 18.5 -35t32.5 -10q13 0 26.5 6.5
t24 22.5t17.5 42.5t7 67.5h-1zM158 649q-28 0 -43 -18.5t-15 -44.5q0 -30 14.5 -48.5t42.5 -18.5t42.5 18.5t14.5 48.5q0 27 -15.5 45t-40.5 18z" />
    <glyph glyph-name="zero.numerator" horiz-adv-x="340" 
d="M303 522q0 -46 -10.5 -79.5t-28.5 -55t-42.5 -32t-51.5 -10.5t-51 10.5t-42.5 32t-29 55t-10.5 79.5t10.5 79t29 55t42.5 32.5t51 10.5t51 -10.5t42.5 -32.5t29 -55t10.5 -79zM101 522q0 -69 20 -97t49 -28q30 0 49.5 28t19.5 97q0 68 -19.5 96t-49.5 28q-29 0 -49 -28
t-20 -96z" />
    <glyph glyph-name="one.denominator" horiz-adv-x="198" 
d="M82 0v284h-59v56h122v-340h-63z" />
    <glyph glyph-name="two.denominator" horiz-adv-x="311" 
d="M33 0v10q0 25 6 46.5t19 41t34 37.5t52 36q29 17 48 34.5t19 44.5q0 20 -13.5 33t-36.5 13q-11 0 -21.5 -3.5t-18.5 -11.5t-12.5 -21t-4.5 -33h-65q-1 57 34 88.5t92 31.5q24 0 44.5 -7.5t35 -21t23 -31t8.5 -38.5q0 -38 -27.5 -66.5t-69.5 -54.5q-39 -24 -56.5 -40
t-17.5 -30h165v-58h-237z" />
    <glyph glyph-name="three.denominator" horiz-adv-x="319" 
d="M185 180q46 -5 72 -27t26 -60q0 -25 -11 -43.5t-28.5 -31t-40 -19t-45.5 -6.5q-57 0 -91 30.5t-36 78.5h65q2 -29 18.5 -44t43.5 -15q26 0 43 14.5t17 39.5q0 26 -21.5 40t-63.5 14h-4v52h3q38 0 58 13.5t20 36.5q0 19 -13 31t-35 12q-25 0 -41 -14.5t-17 -46.5h-63
q1 22 9 42.5t23 36t38 24.5t53 9q21 0 40.5 -5.5t35 -16t25 -26.5t9.5 -36q0 -35 -25.5 -55t-63.5 -27v-1z" />
    <glyph glyph-name="four.denominator" horiz-adv-x="329" 
d="M187 75h-163v51l170 214h56v-211h52v-54h-52v-75h-63v75zM187 129v126l-99 -126h99z" />
    <glyph glyph-name="five.denominator" horiz-adv-x="315" 
d="M155 -7q-51 0 -85 28.5t-39 78.5h65q4 -30 19.5 -43.5t40.5 -13.5q26 0 44 19.5t18 55.5q0 33 -19 52t-45 19q-18 0 -33.5 -10t-20.5 -27h-60l22 188h201v-58h-151l-12 -91h1q10 18 29 30.5t48 12.5q18 0 36.5 -7.5t33.5 -22t24.5 -36t9.5 -50.5t-10 -52t-27.5 -39
t-40.5 -25t-49 -9z" />
    <glyph glyph-name="six.denominator" horiz-adv-x="325" 
d="M99 157q8 26 30 44.5t57 18.5q48 0 76 -31.5t28 -76.5q0 -28 -10 -50t-26.5 -37.5t-39 -23.5t-46.5 -8q-60 0 -95.5 42.5t-35.5 125.5q0 39 8.5 72.5t25.5 59t43 40t62 14.5q27 0 47 -9t33.5 -22.5t21 -31t9.5 -33.5h-63q-5 25 -18.5 35t-32.5 10q-13 0 -26.5 -6.5
t-24 -22.5t-17.5 -43t-7 -67h1zM167 43q28 0 43 18.5t15 44.5q0 30 -14.5 48.5t-42.5 18.5t-42.5 -18.5t-14.5 -48.5q0 -27 15.5 -45t40.5 -18z" />
    <glyph glyph-name="seven.denominator" horiz-adv-x="285" 
d="M74 0q0 184 149 281v1h-200v58h241v-53q-32 -26 -55 -54.5t-38 -63t-22.5 -76t-7.5 -93.5h-67v0z" />
    <glyph glyph-name="eight.denominator" horiz-adv-x="317" 
d="M159 -7q-54 0 -89 26.5t-35 69.5q0 34 22 56t55 30v1q-28 8 -46.5 27.5t-18.5 51.5q0 17 7 33.5t21 29.5t35 21t49 8t48.5 -8t34.5 -21t21 -29.5t7 -33.5q0 -32 -18 -51.5t-47 -27.5v-1q34 -8 55.5 -30t21.5 -56q0 -43 -35 -69.5t-88 -26.5zM159 42q25 0 41.5 13t16.5 39
t-16.5 39t-41.5 13t-42 -13t-17 -39t17 -39t42 -13zM159 298q-23 0 -36 -13t-13 -35q0 -21 13 -34t36 -13t35.5 13t12.5 34q0 22 -12.5 35t-35.5 13z" />
    <glyph glyph-name="nine.denominator" horiz-adv-x="325" 
d="M226 183q-8 -26 -30 -44.5t-57 -18.5q-48 0 -76 31.5t-28 76.5q0 28 10 50t26.5 37.5t39 23.5t46.5 8q60 0 95.5 -42.5t35.5 -125.5q0 -39 -8.5 -72.5t-25.5 -59t-43 -40t-62 -14.5q-27 0 -47 9t-33.5 22.5t-21 30.5t-9.5 34h63q5 -25 18.5 -35t32.5 -10q13 0 26.5 6.5
t24 22.5t17.5 42.5t7 67.5h-1zM158 297q-28 0 -43 -18.5t-15 -44.5q0 -30 14.5 -48.5t42.5 -18.5t42.5 18.5t14.5 48.5q0 27 -15.5 45t-40.5 18z" />
    <glyph glyph-name="zero.denominator" horiz-adv-x="340" 
d="M303 170q0 -46 -10.5 -79.5t-28.5 -55t-42.5 -32t-51.5 -10.5t-51 10.5t-42.5 32t-29 55t-10.5 79.5t10.5 79t29 55t42.5 32.5t51 10.5t51 -10.5t42.5 -32.5t29 -55t10.5 -79zM101 170q0 -69 20 -97t49 -28q30 0 49.5 28t19.5 97q0 68 -19.5 96t-49.5 28q-29 0 -49 -28
t-20 -96z" />
    <glyph glyph-name="hyphen.case" horiz-adv-x="371" 
d="M65 322v68h241v-68h-241z" />
    <glyph glyph-name="endash.case" horiz-adv-x="499" 
d="M65 325v62h369v-62h-369z" />
    <glyph glyph-name="emdash.case" horiz-adv-x="781" 
d="M65 325v62h651v-62h-651z" />
    <glyph glyph-name="question.case" horiz-adv-x="515" 
d="M265 703q49 0 88.5 -13.5t67 -37t42 -54.5t14.5 -65q0 -36 -12 -62t-32 -46.5t-45.5 -37.5l-52.5 -35q-19 -13 -29.5 -24.5t-15 -25t-5 -29t-0.5 -35.5v-20h-83v17q0 23 2 45.5t11 44.5t27.5 43t51.5 41q18 10 36 21t32 24.5t23 31t9 41.5q0 45 -33 73.5t-96 28.5
q-42 0 -70.5 -13t-46.5 -33.5t-26.5 -46t-8.5 -49.5h-81q2 48 20 88t48.5 68.5t72 44t92.5 15.5zM188 110h110v-110h-110v110z" />
    <glyph glyph-name="questiondown.case" horiz-adv-x="514" 
d="M249 -12q-50 0 -89 13.5t-66.5 37t-42 54t-14.5 65.5q0 36 12 62t32 46.5t45.5 37.5l52.5 35q19 13 29.5 24.5t15 25t5 29t0.5 35.5v20h83v-17q0 -23 -2 -45.5t-11 -44.5t-27.5 -43.5t-51.5 -40.5q-18 -11 -36 -21.5t-32 -24t-23 -31t-9 -41.5q0 -45 33 -73.5t96 -28.5
q42 0 70.5 13t46.5 33.5t26.5 46t8.5 49.5h81q-2 -48 -20 -88t-48.5 -68.5t-72 -44t-92.5 -15.5zM216 692h110v-110h-110v110z" />
    <glyph glyph-name="exclam.case" horiz-adv-x="264" 
d="M111 218l-22 278v196h87v-196l-23 -278h-42zM77 110h110v-110h-110v110z" />
    <glyph glyph-name="exclamdown.case" horiz-adv-x="263" 
d="M110 474h42l23 -278v-196h-87v196zM76 692h110v-110h-110v110z" />
    <glyph glyph-name="guilsinglleft.case" horiz-adv-x="316" 
d="M135 355l112 -182h-82l-112 182l112 182h82z" />
    <glyph glyph-name="guilsinglright.case" horiz-adv-x="316" 
d="M69 537h82l112 -182l-112 -182h-82l112 182z" />
    <glyph glyph-name="guillemotleft.case" horiz-adv-x="489" 
d="M135 355l112 -182h-82l-112 182l112 182h82zM308 355l112 -182h-82l-112 182l112 182h82z" />
    <glyph glyph-name="guillemotright.case" horiz-adv-x="489" 
d="M69 537h82l112 -182l-112 -182h-82l112 182zM242 537h82l112 -182l-112 -182h-82l112 182z" />
    <glyph glyph-name="parenleft.case" horiz-adv-x="265" 
d="M158 -63q-23 39 -42.5 88t-33.5 103t-22.5 111t-8.5 112t8.5 110.5t22.5 108t33.5 99.5t42.5 86h75q-48 -91 -75.5 -193t-27.5 -211t27.5 -216t75.5 -198h-75v0z" />
    <glyph glyph-name="parenright.case" horiz-adv-x="265" 
d="M107.01 -63q22.998 39 42.4971 88t33.498 103t22.499 111q8.49902 57 8.49902 112t-8.49902 110.5q-8.5 55.5 -22.499 108t-33.498 99.5t-42.4971 86h-74.9951q47.9971 -91 75.4951 -193t27.498 -211t-27.498 -216t-75.4951 -198h74.9951v0z" />
    <glyph glyph-name="bracketleft.case" horiz-adv-x="305" 
d="M271 755v-63h-110v-692h110v-63h-179v818h179z" />
    <glyph glyph-name="bracketright.case" horiz-adv-x="305" 
d="M34.0166 755v-63h109.993v-692h-109.993v-63h178.989v818h-178.989z" />
    <glyph glyph-name="braceleft.case" horiz-adv-x="316" 
d="M238 -63q-66 0 -99 29.5t-33 98.5v158q0 18 -2.5 35.5t-10.5 31.5t-23 23.5t-40 12.5v41q25 3 40 12.5t23 23.5t10.5 31.5t2.5 35.5v157q0 69 33 98.5t99 29.5h47v-63h-42q-38 0 -53 -14t-15 -53v-141q0 -62 -20 -93t-60 -43v-3q40 -12 60 -43t20 -93v-142q0 -39 15 -53
t53 -14h42v-63h-47v0z" />
    <glyph glyph-name="braceright.case" horiz-adv-x="316" 
d="M78.0146 -63q65.9961 0 98.9941 29.5t32.998 98.5v158q0 18 2.49902 35.5q2.5 17.5 10.5 31.5q7.99902 14 22.998 23.5t39.998 12.5v41q-24.999 3 -39.998 12.5t-22.998 23.5q-8 14 -10.5 31.5q-2.49902 17.5 -2.49902 35.5v157q0 69 -32.998 98.5t-98.9941 29.5
h-46.9971v-63h41.9971q37.998 0 52.9971 -14t14.999 -53v-141q0 -62 19.999 -93q19.998 -31 59.9961 -43v-3q-39.998 -12 -59.9961 -43q-19.999 -31 -19.999 -93v-142q0 -39 -14.999 -53t-52.9971 -14h-41.9971v-63h46.9971v0z" />
    <glyph glyph-name="periodcentered.case" horiz-adv-x="240" 
d="M65 411h110v-110h-110v110z" />
    <glyph glyph-name="plus.case" 
d="M233 325h-184v62h184v182h63v-182h185v-62h-185v-186h-63v186z" />
    <glyph glyph-name="minus.case" 
d="M50 387h430v-62h-430v62z" />
    <glyph glyph-name="divide.case" 
d="M50 387h430v-62h-430v62zM320 459h-110v110h110v-110zM320 139h-110v110h110v-110z" />
    <glyph glyph-name="multiply.case" 
d="M77 209l144 144l-144 144l45 45l144 -144l144 144l44 -44l-144 -144l144 -144l-45 -45l-144 144l-144 -144z" />
    <glyph glyph-name="equal.case" 
d="M65 297h400v-62h-400v62zM65 481h400v-62h-400v62z" />
    <glyph glyph-name="less.case" 
d="M37 325v62l416 182v-68l-335 -145l335 -145v-68z" />
    <glyph glyph-name="greater.case" 
d="M78 211l335 145l-335 145v68l416 -182v-62l-416 -182v68z" />
    <glyph glyph-name="acute.case" horiz-adv-x="252" 
d="M104 743h-72l98 121h112z" />
    <glyph glyph-name="breve.case" horiz-adv-x="316" 
d="M158 739q-63 0 -100.5 33.5t-42.5 81.5h61q15 -64 82 -64t82 64h61q-5 -48 -42.5 -81.5t-100.5 -33.5z" />
    <glyph glyph-name="caron.case" horiz-adv-x="338" 
d="M5 864h74l90 -59l90 59h74l-127 -121h-74z" />
    <glyph glyph-name="cedilla.case" horiz-adv-x="268" 
d="M109 -81q10 8 22.5 13.5t29.5 5.5q29 0 52 -20.5t23 -59.5q0 -24 -10 -41.5t-26.5 -29.5t-38.5 -17.5t-46 -5.5q-22 0 -43 3t-41 11l13 44q12 -5 25 -8t33 -3q27 0 47.5 9.5t20.5 31.5q0 18 -13 28.5t-35 10.5q-10 0 -21 -2.5t-22 -8.5l-32 21l61 99h50l-50 -81h1z" />
    <glyph glyph-name="circumflex.case" horiz-adv-x="338" 
d="M132 864h74l127 -121h-74l-90 59l-90 -59h-74z" />
    <glyph glyph-name="dieresis.case" horiz-adv-x="348" 
d="M35 853h77v-110h-77v110zM236 853h77v-110h-77v110z" />
    <glyph glyph-name="dotaccent.case" horiz-adv-x="147" 
d="M112 743h-77v110h77v-110z" />
    <glyph glyph-name="grave.case" horiz-adv-x="222" 
d="M3 864h112l93 -121h-72z" />
    <glyph glyph-name="hungarumlaut.case" horiz-adv-x="404" 
d="M292 864h102l-138 -121h-62zM130 864h102l-138 -121h-62z" />
    <glyph glyph-name="macron.case" horiz-adv-x="300" 
d="M20 753v67h260v-67h-260z" />
    <glyph glyph-name="ogonek.case" horiz-adv-x="267" 
d="M223 0q-52 -25 -77.5 -56.5t-25.5 -62.5q0 -21 11.5 -37t39.5 -16q15 0 29.5 5.5t22.5 11.5v-63q-27 -18 -71 -18q-28 0 -48 9t-33 23.5t-19.5 33t-6.5 38.5q0 43 26 76t71 56h81v0z" />
    <glyph glyph-name="ring.case" horiz-adv-x="301" 
d="M150 782q29 0 48.5 19.5t19.5 48.5q0 28 -19.5 47.5t-48.5 19.5q-28 0 -47.5 -19.5t-19.5 -47.5q0 -29 19.5 -48.5t47.5 -19.5zM150 739q-23 0 -43 9t-35 24t-23.5 35t-8.5 43q0 22 8.5 42t23.5 35t35 24t43 9t43 -9t35 -24t24 -35t9 -42q0 -23 -9 -43t-24 -35t-35 -24
t-43 -9z" />
    <glyph glyph-name="tilde.case" horiz-adv-x="328" 
d="M217 816q35 0 43 41h65q-5 -30 -15.5 -50t-24.5 -31t-30 -15.5t-31 -4.5q-20 0 -35 6t-28 13.5t-25 14t-24 6.5q-35 0 -41 -40h-66q4 31 15 50.5t25.5 30.5t30.5 15.5t31 4.5q19 0 33.5 -6.5t27.5 -14t24.5 -14t24.5 -6.5z" />
    <glyph glyph-name="A.ss01" horiz-adv-x="642" 
d="M278 692h86l265 -692h-86l-77 208h-350l-196 -450zM306 643l-158 -363h292z" />
    <glyph glyph-name="B.ss01" horiz-adv-x="661" 
d="M210 647l-280 -524l253 569h170q51 0 93 -12t71.5 -34t46 -54t16.5 -72q0 -33 -14.5 -60.5t-38 -48t-53.5 -34t-61 -19.5v-1q48 -2 86 -15t64.5 -36t40.5 -54t14 -67q0 -43 -16 -77.5t-46 -58.5t-72 -36.5t-94 -12.5h-253v390h214q72 0 110 36t38 93q0 25 -8 48t-26.5 41
t-48 28.5t-72.5 10.5h-134zM218 72h171q77 0 112 33t35 92q0 27 -10.5 49.5t-30 39t-46.5 26t-60 9.5h-171v-249z" />
    <glyph glyph-name="C.ss01" horiz-adv-x="733" 
d="M397 -12q-73 0 -137 27.5t-112 75.5t-75.5 113.5t-27.5 141.5t27.5 141.5t75.5 113.5t112 75.5t137 27.5q54 0 102 -15.5t88 -43.5t69.5 -67.5t46.5 -87.5h-95q-13 32 -32 59.5t-47 47t-65.5 30.5t-86.5 11q-47 0 -98 -19t-94 -57.5t-70.5 -97t-27.5 -136.5
q0 -75 27 -134.5t71 -101t100 -64t115 -22.5q37 0 78 8t81.5 29.5t77.5 59.5t66 98q-17 -48 -46.5 -87.5t-69.5 -67t-88 -43t-102 -15.5z" />
    <glyph glyph-name="D.ss01" horiz-adv-x="713" 
d="M113 346h81v-274h116q57 0 107.5 19t87.5 54.5t58.5 86.5t21.5 114t-18 118t-53.5 95.5t-87 64t-118.5 23.5h-98l-280 -524l253 569h127q75 0 140 -25.5t113.5 -71.5t76 -109.5t27.5 -139.5t-27.5 -139.5t-76 -109.5t-113.5 -71.5t-140 -25.5h-197v346z" />
    <glyph glyph-name="E.ss01" horiz-adv-x="690" 
d="M249 472q0 -25 6 -46q51 17 105 17q73 0 107.5 -30t34.5 -69q0 -42 -30.5 -65t-84.5 -23q-23 0 -47 6.5t-46.5 19t-42 31t-34.5 42.5q-30 -17 -57 -42t-47 -59t-32 -77.5t-12 -95.5q0 -73 27 -130t70.5 -96t98.5 -59t111 -20q36 0 76.5 8t81 29.5t78 59.5t66.5 98
q-17 -48 -47 -87.5t-69.5 -67t-88 -43t-100.5 -15.5q-71 0 -134 25.5t-110 70.5t-74.5 107.5t-27.5 137.5q0 52 12.5 97.5t35 83.5t53.5 68.5t69 51.5q-12 36 -12 80q0 55 20 97t51.5 70t71 42t79.5 14q39 0 79 -12t74 -37.5t58 -66t30 -97.5h-94q-6 46 -24 74t-41 43.5
t-47 20.5t-42 5q-27 0 -54 -10t-48.5 -30t-35 -50t-13.5 -71zM351 392q-39 0 -78 -13q20 -32 51 -51t68 -19q17 0 35 7.5t18 28.5q0 22 -28 34.5t-66 12.5z" />
    <glyph glyph-name="F.ss01" horiz-adv-x="593" 
d="M183 692h386v-72h-374l-265 -497zM138 392h379v-72h-298v-320h-81v392z" />
    <glyph glyph-name="G.ss01" horiz-adv-x="767" 
d="M627 80q-44 -44 -102.5 -68t-127.5 -24q-73 0 -137 27.5t-112 75.5t-75.5 113.5t-27.5 141.5t27.5 141.5t75.5 113.5t112 75.5t137 27.5q54 0 102 -15.5t88 -43.5t69.5 -67.5t46.5 -87.5h-95q-13 32 -32 59.5t-47 47t-65.5 30.5t-86.5 11q-47 0 -98 -19t-94 -57.5
t-70.5 -97t-27.5 -136.5q0 -75 27 -134.5t71 -101t100 -64t115 -22.5q27 0 55.5 3.5t58 13.5t58 27t55.5 43v191h-182v72h263v-356h-81v80z" />
    <glyph glyph-name="H.ss01" horiz-adv-x="755" 
d="M201 365l381 13v314h81v-692h-81v333l-381 13v-346h-81v349l-183 7l183 6v330h81v-327z" />
    <glyph glyph-name="I.ss01" horiz-adv-x="358" 
d="M183 692h83v-692h-83v597l-253 -474z" />
    <glyph glyph-name="J.ss01" horiz-adv-x="537" 
d="M250 -12q-45 0 -82.5 14.5t-64.5 41t-42 64t-15 83.5h80q0 -35 9.5 -60t26 -41t39 -23t48.5 -7q52 0 87 29.5t35 89.5v441h-161l-265 -497l253 569h254v-499q0 -46 -14.5 -83.5t-41 -64.5t-64 -42t-82.5 -15z" />
    <glyph glyph-name="K.ss01" horiz-adv-x="582" 
d="M173 0h-81v692h81v-692zM184 347v2l399 354l-315 -339l309 -364h-99z" />
    <glyph glyph-name="L.ss01" horiz-adv-x="439" 
d="M92 692h83v-830l251 477l-253 -569h-81v922z" />
    <glyph glyph-name="M.ss01" horiz-adv-x="840" 
d="M748 685v-685h-81v523l-205 -410h-84l-245 489l-41 -844v934h83l262 -532l424 752z" />
    <glyph glyph-name="N.ss01" horiz-adv-x="706" 
d="M92 -242v934h83l395 -614l44 834v-912h-83l-395 615z" />
    <glyph glyph-name="O.ss01" horiz-adv-x="804" 
d="M403 -12q-72 0 -136.5 25.5t-114 73t-78.5 114t-29 148.5q0 81 30 146t79.5 111.5t112.5 71.5t128 25v-74q-67 0 -121.5 -23t-92.5 -63.5t-59 -95t-21 -117.5q0 -64 24 -119.5t66 -97t99.5 -65t124.5 -23.5q68 0 127.5 25t103.5 70t69 106.5t25 134.5q0 72 -26 133
t-71 106.5t-106 72.5t-130 30q69 0 132.5 -26t112.5 -73.5t78 -113t29 -144.5q0 -77 -28 -142.5t-76 -113.5t-113 -75t-139 -27z" />
    <glyph glyph-name="P.ss01" horiz-adv-x="592" 
d="M106 0v332h219q77 0 117 42.5t40 115.5q0 32 -8.5 60.5t-28 50t-52 34t-80.5 12.5h-103l-280 -524l253 569h139q52 0 96.5 -14.5t76.5 -42t50.5 -68t18.5 -91.5t-18.5 -91.5t-50.5 -68t-76.5 -42t-96.5 -14.5h-135v-260h-81z" />
    <glyph glyph-name="Q.ss01" horiz-adv-x="804" 
d="M264 -149l-35 60l136 79q-66 6 -124 34t-101.5 74.5t-69 110t-25.5 140.5q0 81 30 146t79.5 111.5t112.5 71.5t128 25v-74q-67 0 -121.5 -23t-92.5 -63.5t-59 -95t-21 -117.5q0 -64 24 -119.5t66 -97t99.5 -65t124.5 -23.5q68 0 127.5 25t103.5 70t69 106.5t25 134.5
q0 72 -26 133t-71 106.5t-106 72.5t-130 30q69 0 132.5 -26t112.5 -73.5t78 -113t29 -144.5q0 -53 -13.5 -100.5t-38 -88t-58.5 -73t-76 -54.5l-242 -140l383 -39h-450z" />
    <glyph glyph-name="R.ss01" horiz-adv-x="609" 
d="M308 318h-135v-318h-81v692h216q51 0 93 -12t71.5 -35.5t46 -58.5t16.5 -81q0 -77 -43.5 -122.5t-118.5 -59.5l372 -565l-425 560h-12zM173 390h138q75 0 109 29t34 86t-34 86t-109 29h-138v-230z" />
    <glyph glyph-name="S.ss01" horiz-adv-x="514" 
d="M261 -12q-47 0 -82 13t-59.5 33t-40.5 44t-25 46t-12.5 39t-2.5 24q4 -26 17 -58t37.5 -59.5t63.5 -46.5t96 -19q47 0 81.5 12.5t56.5 33t32.5 46.5t10.5 52q0 20 -7.5 41.5t-28 44.5t-56.5 47t-94 49q-54 24 -90.5 46.5t-58.5 47t-31 51.5t-9 59t12 62.5t36.5 54t61 38
t84.5 14.5q51 0 87.5 -16t61 -42t38 -58.5t16.5 -65.5h-83q-3 16 -10 35.5t-22 36t-39 27.5t-61 11q-54 0 -86 -28t-32 -75q0 -53 39 -87t116 -69q66 -30 104.5 -58.5t59 -55.5t26 -51.5t5.5 -45.5q0 -26 -11.5 -56.5t-37 -56.5t-65.5 -43t-98 -17z" />
    <glyph glyph-name="T.ss01" horiz-adv-x="548" 
d="M231 620h-219v72h524v-72h-219l-46 -862z" />
    <glyph glyph-name="U.ss01" horiz-adv-x="706" 
d="M353 -12q-64 0 -114 19t-84.5 55t-52.5 87.5t-18 115.5v427h81v-410q0 -67 15.5 -114.5t43.5 -78t67 -44.5t87 -14q61 0 103 19.5t69 53t39.5 79t14.5 96.5l18 424v-438q0 -64 -18 -115.5t-52.5 -87.5t-84.5 -55t-114 -19z" />
    <glyph glyph-name="V.ss01" horiz-adv-x="641" 
d="M279 0l-266 692h87l236 -640l378 860l-351 -912h-84z" />
    <glyph glyph-name="W.ss01" horiz-adv-x="861" 
d="M197 -11l-168 703h87l124 -558l151 515h80l170 -580l245 843l-219 -912h-82l-170 579l-285 -821z" />
    <glyph glyph-name="X.ss01" horiz-adv-x="582" 
d="M254 344l-245 348h91l201 -284l377 504l-350 -543l261 -369h-91l-216 305l-430 -547z" />
    <glyph glyph-name="Y.ss01" horiz-adv-x="595" 
d="M704 912l-365 -652v-260h-81v260l-242 432h89l212 -380z" />
    <glyph glyph-name="Z.ss01" horiz-adv-x="559" 
d="M394 620h-343v72h491l-455 -620h439v-72h-492l-177 -242z" />
    <glyph glyph-name="c.ss01" horiz-adv-x="503" 
d="M271 -12q-59 0 -102.5 20.5t-72.5 53t-43.5 72.5t-14.5 79q0 54 18.5 97t49.5 72.5t72.5 45.5t86.5 16q72 0 127.5 -36.5t82.5 -101.5h-84q-8 13 -19 27t-28 26t-40 19.5t-53 7.5q-36 0 -67.5 -13t-55.5 -37t-38 -58t-14 -76q0 -40 15 -76t41 -63t62.5 -42.5t78.5 -15.5
q24 0 51 4t54 16.5t52 36.5t45 64q-12 -35 -33 -61t-48 -43t-58.5 -25.5t-64.5 -8.5z" />
    <glyph glyph-name="e.ss01" horiz-adv-x="499" 
d="M281 -12q-26 0 -57.5 9t-60.5 28.5t-52.5 51t-33.5 76.5q-14 -1 -27.5 -1h-27.5v73h24t24 1q1 45 18 84.5t46.5 69t70 47t90.5 17.5q25 0 51 -6.5t47 -21t34 -37.5t13 -56q0 -41 -25 -71.5t-69 -50.5t-105.5 -31.5t-134.5 -15.5q8 -41 28.5 -70t46.5 -48t55 -27.5
t55 -8.5q74 0 118 31t76 86q-17 -43 -43.5 -68.5t-55.5 -39t-57 -17.5t-48 -4zM284 397q-32 0 -63 -12t-56 -34.5t-42 -54t-21 -69.5q137 6 204.5 30t67.5 77q0 29 -22.5 46t-67.5 17z" />
    <glyph glyph-name="g.ss01" horiz-adv-x="519" 
d="M263 -242q-50 0 -92 17t-72 48.5t-47.5 76t-18.5 100.5h79q1 -50 15 -84t35.5 -54.5t48 -29t51.5 -8.5q32 0 57 9t42.5 24.5t26.5 35.5t9 43q0 22 -9.5 44t-28 39t-45.5 27.5t-61 10.5h-11q-45 0 -81.5 16t-63 42.5t-40.5 61.5t-14 73q0 39 14.5 74.5t41 61.5t64 41.5
t83.5 15.5v-64q-40 0 -69 -11.5t-48 -31t-28 -45t-9 -53.5q0 -36 13 -63.5t34.5 -46.5t49.5 -29t57 -10q36 0 68.5 12t56.5 34t38 54t14 71q0 40 -14.5 72.5t-38 56t-53 37.5t-59.5 17q14 0 29.5 -3.5t30.5 -9.5h216l-55 -55h-86q20 -25 33 -56.5t13 -69.5
q0 -64 -32.5 -108.5t-80.5 -65.5v-1q75 -18 109.5 -57.5t34.5 -87.5q0 -38 -16.5 -69.5t-44.5 -54t-66 -35t-80 -12.5z" />
    <glyph glyph-name="k.ss01" horiz-adv-x="452" 
d="M147 0h-77v711h77v-711zM534 543l-289 -307l210 -236h-97l-200 226v1z" />
    <glyph glyph-name="o.ss01" 
d="M267 -12q-54 0 -97 19t-72 51t-44.5 72.5t-15.5 84.5q0 49 17.5 91t48 72.5t71 47.5t86.5 17v-72q-41 0 -72.5 -12.5t-54 -35t-34 -53t-11.5 -65.5q0 -43 16 -77.5t41.5 -58.5t58.5 -37t68 -13q40 0 76.5 14t64.5 40.5t44.5 63.5t16.5 84q0 51 -17 90.5t-45.5 68
t-64.5 44.5t-75 19q42 0 81.5 -16.5t70 -46.5t49 -72t18.5 -92t-18 -91.5t-49 -72t-71.5 -47.5t-86.5 -17z" />
    <glyph glyph-name="s.ss01" horiz-adv-x="378" 
d="M193 -12q-45 0 -76 15.5t-49.5 37.5t-26 45.5t-7.5 39.5q8 -58 48.5 -91t100.5 -33t94 22t34 63q0 19 -10.5 35t-27.5 30t-39.5 25.5t-46.5 20.5q-27 10 -52 20.5t-44.5 25t-31 35.5t-11.5 51q0 25 10.5 46t28.5 36t41.5 23t50.5 8q59 0 100.5 -34t49.5 -95h-73
q-2 11 -7.5 23t-16 22.5t-26 17t-36.5 6.5q-38 0 -55.5 -18t-17.5 -39q0 -11 3 -22t14.5 -22t32.5 -23.5t57 -26.5q72 -29 105.5 -62t33.5 -75q0 -20 -9 -39t-27.5 -34t-46.5 -24.5t-67 -9.5z" />
    <glyph glyph-name="u.ss01" horiz-adv-x="487" 
d="M244 -12q-40 0 -73 11t-57 34.5t-37 59t-13 84.5v253h77v-252q0 -75 28 -114t97 -39q73 0 105 39.5t37 117.5l16 261v-266q0 -51 -13 -87t-37 -58.5t-57 -33t-73 -10.5z" />
    <glyph glyph-name="v.ss01" horiz-adv-x="438" 
d="M13 430h84l133 -375l224 445l-195 -500h-78z" />
    <glyph glyph-name="w.ss01" horiz-adv-x="629" 
d="M192 430q-30 -46 -52.5 -100.5t-22.5 -128.5q0 -27 6 -53t18.5 -46t31 -32.5t44.5 -12.5q28 0 53 17q-24 38 -34.5 81.5t-10.5 77.5q0 23 4.5 44.5t14 38t25.5 26.5t39 10q25 0 43.5 -11.5t29.5 -31t16.5 -44.5t5.5 -51q0 -17 -4 -39.5t-13 -46t-22 -46.5t-31 -42
q18 -16 41 -25t52 -9q34 0 58.5 11.5t41.5 29.5t27.5 39.5t16 42.5t7.5 38.5t2 26.5q0 30 -7 66t-23.5 76t-44.5 81.5t-70 82.5q34 -30 63 -66t50 -75t32.5 -81t11.5 -85q0 -35 -8.5 -71t-28 -66t-52.5 -49t-81 -19q-32 0 -58.5 9.5t-47.5 25.5q-20 -16 -43.5 -25.5
t-52.5 -9.5q-54 0 -88 23.5t-54 57.5t-27.5 71t-7.5 63q0 17 2 41t9 53.5t19 63t33 69.5h87zM257 220q0 -29 8 -62.5t25 -65.5q14 15 24.5 33t18 37.5t11.5 38.5t4 35q0 44 -14 60.5t-30 16.5q-23 0 -35 -21t-12 -72z" />
    <glyph glyph-name="x.ss01" horiz-adv-x="437" 
d="M179 213l-170 217h88l127 -161l214 231l-181 -273l179 -227h-89l-134 170l-361 -412z" />
    <glyph glyph-name="y.ss01" horiz-adv-x="469" 
d="M197 0l-188 430h84l153 -377l248 447l-221 -500v-230h-76v230z" />
    <glyph glyph-name="z.ss01" horiz-adv-x="426" 
d="M-152 -243l423 609h-226v64h355l-300 -366h292v-64h-345z" />
    <glyph glyph-name="L_periodcentered" horiz-adv-x="522" 
d="M428 331h-77v110h77v-110zM92 692h81v-620h317v-72h-398v692z" />
    <glyph glyph-name="l_periodcentered" horiz-adv-x="296" 
d="M296 307h-77v110h77v-110zM147 0h-77v711h77v-711z" />
    </font>
</defs>
</svg>
